<svg width="543" height="371" viewBox="0 0 543 371" fill="none" xmlns="http://www.w3.org/2000/svg">
<path d="M0.699951 370.9C0.699951 370.8 0.699951 370.8 0.699951 370.9C0.699951 370.8 0.699951 370.8 0.699951 370.9C0.699951 370.8 0.699951 370.8 0.699951 370.9C0.699951 370.8 0.699951 370.8 0.699951 370.9C0.699951 370.8 0.699951 370.8 0.699951 370.9C0.699951 370.8 0.699951 370.8 0.699951 370.9C0.699951 369.7 1.5 368.7 2.59998 368.4V316.6C1.5 316.3 0.699951 315.3 0.699951 314.2C0.699951 312.8 1.79993 311.6 3.29993 311.6C3.99988 311.6 4.59998 311.9 5.09998 312.3L49.8999 286.4C49.8999 286.2 49.7999 286 49.7999 285.8C49.7999 284.4 50.8999 283.2 52.3999 283.2C53.0999 283.2 53.7 283.5 54.2 283.9L98.9999 258C98.9 257.8 98.8999 257.6 98.8999 257.4C98.8999 256 99.9999 254.8 101.5 254.8C102.9 254.8 104.1 255.9 104.1 257.4C104.1 257.6 104 257.8 104 258L148.7 284C149 283.7 149.4 283.5 149.8 283.4V231.6C148.7 231.3 147.9 230.3 147.9 229.2C147.9 227.8 149 226.6 150.5 226.6C151.2 226.6 151.8 226.9 152.3 227.3L197.1 201.4C197.1 201.2 197 201 197 200.8C197 199.4 198.1 198.2 199.6 198.2C200.3 198.2 200.9 198.5 201.4 198.9L246.2 173C246.1 172.8 246.1 172.6 246.1 172.4C246.1 171 247.2 169.8 248.7 169.8C250.1 169.8 251.3 170.9 251.3 172.4C251.3 172.6 251.2 172.8 251.2 173L295.9 199C296.2 198.7 296.6 198.5 297 198.4V146.6C295.9 146.3 295.1 145.3 295.1 144.2C295.1 142.8 296.2 141.6 297.7 141.6C298.4 141.6 299 141.9 299.5 142.3L344.3 116.5C344.3 116.3 344.2 116.1 344.2 115.9C344.2 114.5 345.3 113.3 346.8 113.3C347.5 113.3 348.1 113.6 348.6 114L393.4 88.1C393.3 87.9 393.3 87.7 393.3 87.5C393.3 86.1 394.4 84.9 395.9 84.9C397.3 84.9 398.5 86 398.5 87.5C398.5 87.7 398.4 87.9 398.4 88.1L443.1 114C443.4 113.7 443.8 113.5 444.2 113.4V61.6C443.1 61.3 442.3 60.3 442.3 59.2C442.3 57.8 443.4 56.6 444.9 56.6C445.6 56.6 446.2 56.9 446.7 57.3L491.5 31.4C491.5 31.2 491.4 31 491.4 30.8C491.4 29.4 492.5 28.2 494 28.2C494.7 28.2 495.3 28.5 495.8 28.9L504 24.2L540.6 3.2C540.5 3 540.5 2.8 540.5 2.6C540.5 1.2 541.6 0 543.1 0C544.5 0 545.7 1.1 545.7 2.6C545.7 2.8 545.6 3 545.6 3.2L582.2 24.3L590.4 29C590.9 28.5 591.5 28.3 592.2 28.3C593.6 28.3 594.8 29.4 594.8 30.9C594.8 31.1 594.7 31.3 594.7 31.5L639.5 57.4C640 56.9 640.6 56.7 641.3 56.7C642.7 56.7 643.9 57.8 643.9 59.3C643.9 60.5 643.1 61.4 642 61.7V113.5C642.4 113.6 642.8 113.8 643.1 114.1L687.9 88.2C687.8 88 687.8 87.8 687.8 87.6C687.8 86.2 688.9 85 690.4 85C691.8 85 693 86.1 693 87.6C693 87.8 692.9 88 692.9 88.2L737.5 114C738 113.5 738.6 113.3 739.3 113.3C740.7 113.3 741.9 114.4 741.9 115.9C741.9 116.1 741.8 116.3 741.8 116.5L786.6 142.4C787.1 141.9 787.7 141.7 788.4 141.7C789.8 141.7 791 142.8 791 144.3C791 145.5 790.2 146.4 789.1 146.7V198.5C789.5 198.6 789.9 198.8 790.2 199.1L835 173.2C834.9 173 834.9 172.8 834.9 172.6C834.9 171.2 836 170 837.5 170C838.9 170 840.1 171.1 840.1 172.6C840.1 172.8 840 173 840 173.2L884.7 199C885.2 198.5 885.8 198.3 886.5 198.3C887.9 198.3 889.1 199.4 889.1 200.9C889.1 201.1 889 201.3 889 201.5L933.8 227.4C934.3 226.9 934.9 226.7 935.6 226.7C937 226.7 938.2 227.8 938.2 229.3C938.2 230.5 937.4 231.4 936.3 231.7V283.5C936.7 283.6 937.1 283.8 937.4 284.1L982.2 258.2C982.1 258 982.1 257.8 982.1 257.6C982.1 256.2 983.2 255 984.7 255C986.1 255 987.3 256.1 987.3 257.6C987.3 257.8 987.2 258 987.2 258.2L1031.9 284C1032.4 283.5 1033 283.3 1033.7 283.3C1035.1 283.3 1036.3 284.4 1036.3 285.9C1036.3 286.1 1036.2 286.3 1036.2 286.5L1081 312.3C1081.5 311.8 1082.1 311.6 1082.8 311.6C1084.2 311.6 1085.4 312.7 1085.4 314.2C1085.4 315.4 1084.6 316.3 1083.5 316.6V368.4C1084.6 368.7 1085.4 369.7 1085.4 370.8C1085.4 372 1084.6 372.9 1083.5 373.2V425C1084.6 425.3 1085.4 426.3 1085.4 427.4C1085.4 428.8 1084.3 430 1082.8 430C1082.1 430 1081.5 429.7 1081 429.3L1036.2 455.2C1036.2 455.4 1036.3 455.6 1036.3 455.8C1036.3 457.2 1035.2 458.4 1033.7 458.4C1033 458.4 1032.4 458.1 1031.9 457.7L987.1 483.6C987.2 483.8 987.2 484 987.2 484.2C987.2 485.6 986.1 486.8 984.6 486.8C983.2 486.8 982 485.7 982 484.2C982 484 982.1 483.8 982.1 483.6L937.3 457.7C937 458 936.6 458.2 936.2 458.3V510.1C937.3 510.4 938.1 511.4 938.1 512.5C938.1 513.9 937 515.1 935.5 515.1C934.8 515.1 934.2 514.8 933.7 514.4L888.9 540.3C888.9 540.5 889 540.7 889 540.9C889 542.3 887.9 543.5 886.4 543.5C885.7 543.5 885.1 543.2 884.6 542.8L839.8 568.7C839.9 568.9 839.9 569.1 839.9 569.3C839.9 570.7 838.8 571.9 837.3 571.9C835.9 571.9 834.7 570.8 834.7 569.3C834.7 569.1 834.8 568.9 834.8 568.7L790 542.8C789.7 543.1 789.3 543.3 788.9 543.4V595.2C790 595.5 790.8 596.5 790.8 597.6C790.8 599 789.7 600.2 788.2 600.2C787.5 600.2 786.9 599.9 786.4 599.5L741.6 625.4C741.6 625.6 741.7 625.8 741.7 626C741.7 627.4 740.6 628.6 739.1 628.6C738.4 628.6 737.8 628.3 737.3 627.9L692.5 653.8C692.6 654 692.6 654.2 692.6 654.4C692.6 655.8 691.5 657 690 657C688.6 657 687.4 655.9 687.4 654.4C687.4 654.2 687.5 654 687.5 653.8L642.7 627.9C642.4 628.2 642 628.4 641.6 628.5V680.3C642.7 680.6 643.5 681.6 643.5 682.7C643.5 684.1 642.4 685.3 640.9 685.3C640.2 685.3 639.6 685 639.1 684.6L594.3 710.5C594.3 710.7 594.4 710.9 594.4 711.1C594.4 712.5 593.3 713.7 591.8 713.7C591.1 713.7 590.5 713.4 590 713L581.8 717.7L545.2 738.8C545.3 739 545.3 739.2 545.3 739.4C545.3 740.8 544.2 742 542.7 742C541.3 742 540.1 740.9 540.1 739.4C540.1 739.2 540.2 739 540.2 738.8L503.6 717.7L495.4 713C494.9 713.5 494.3 713.7 493.6 713.7C492.2 713.7 491 712.6 491 711.1C491 710.9 491.1 710.7 491.1 710.5L446.3 684.6C445.8 685.1 445.2 685.3 444.5 685.3C443.1 685.3 441.9 684.2 441.9 682.7C441.9 681.5 442.7 680.6 443.8 680.3V628.5C443.4 628.4 443 628.2 442.7 627.9L397.9 653.8C398 654 398 654.2 398 654.4C398 655.8 396.9 657 395.4 657C394 657 392.8 655.9 392.8 654.4C392.8 654.2 392.9 654 392.9 653.8L348.1 627.9C347.6 628.4 347 628.6 346.3 628.6C344.9 628.6 343.7 627.5 343.7 626C343.7 625.8 343.8 625.6 343.8 625.4L299 599.5C298.5 600 297.9 600.2 297.2 600.2C295.8 600.2 294.6 599.1 294.6 597.6C294.6 596.4 295.4 595.5 296.5 595.2V543.4C296.1 543.3 295.7 543.1 295.4 542.8L250.6 568.7C250.7 568.9 250.7 569.1 250.7 569.3C250.7 570.7 249.6 571.9 248.1 571.9C246.7 571.9 245.5 570.8 245.5 569.3C245.5 569.1 245.6 568.9 245.6 568.7L200.8 542.8C200.3 543.3 199.7 543.5 199 543.5C197.6 543.5 196.4 542.4 196.4 540.9C196.4 540.7 196.5 540.5 196.5 540.3L151.7 514.4C151.2 514.9 150.6 515.1 149.9 515.1C148.5 515.1 147.3 514 147.3 512.5C147.3 511.3 148.1 510.4 149.2 510.1V458.3C148.8 458.2 148.4 458 148.1 457.7L103.3 483.6C103.4 483.8 103.4 484 103.4 484.2C103.4 485.6 102.3 486.8 100.8 486.8C99.3999 486.8 98.2 485.7 98.2 484.2C98.2 484 98.2999 483.8 98.2999 483.6L53.4999 457.7C52.9999 458.2 52.3999 458.4 51.7 458.4C50.2999 458.4 49.1 457.3 49.1 455.8C49.1 455.6 49.2 455.4 49.2 455.2L4.3999 429.3C3.8999 429.8 3.29993 430 2.59998 430C1.19995 430 -0.00012207 428.9 -0.00012207 427.4C-0.00012207 426.2 0.799927 425.3 1.8999 425V373.2C1.49988 373 0.699951 372 0.699951 370.9ZM3.99988 316.6V368.4C4.3999 368.5 4.79993 368.7 5.09998 369L49.8999 343.1C49.8999 342.9 49.7999 342.7 49.7999 342.5C49.7999 341.3 50.6 340.4 51.7 340.1V288.3C51.2999 288.2 50.9 288 50.6 287.7L5.79993 313.6C5.79993 313.8 5.8999 314 5.8999 314.2C5.79993 315.3 4.99988 316.3 3.99988 316.6ZM99.5999 259.3L54.7 285.2C54.7 285.4 54.7999 285.6 54.7999 285.8C54.7999 286 54.7 286.2 54.7 286.4L99.4999 312.3C99.9999 311.8 100.6 311.6 101.3 311.6C102 311.6 102.6 311.9 103.1 312.3L147.9 286.4C147.9 286.2 147.8 286 147.8 285.8C147.8 285.6 147.9 285.4 147.9 285.2L103 259.3C102.5 259.7 101.9 260 101.2 260C100.7 260.1 100.1 259.8 99.5999 259.3ZM151.2 231.6V283.4C151.6 283.5 152 283.7 152.3 284L197.1 258.1C197 257.9 197 257.7 197 257.5C197 256.3 197.8 255.4 198.9 255.1V203.3C198.5 203.2 198.1 203 197.8 202.7L153 228.6C153 228.8 153.1 229 153.1 229.2C153 230.3 152.2 231.3 151.2 231.6ZM246.8 174.4L201.9 200.3C201.9 200.5 202 200.7 202 200.9C202 201.1 201.9 201.3 201.9 201.5L246.7 227.4C247.2 226.9 247.8 226.7 248.5 226.7C249.2 226.7 249.8 227 250.3 227.4L295.1 201.5C295.1 201.3 295 201.1 295 200.9C295 200.7 295.1 200.5 295.1 200.3L250.2 174.4C249.7 174.8 249.1 175.1 248.4 175.1C247.9 175.1 247.3 174.8 246.8 174.4ZM298.4 146.6V198.4C298.8 198.5 299.2 198.7 299.5 199L344.3 173.1C344.2 172.9 344.2 172.7 344.2 172.5C344.2 171.3 345 170.4 346.1 170.1V118.3C345.7 118.2 345.3 118 345 117.7L300.2 143.6C300.2 143.8 300.3 144 300.3 144.2C300.2 145.3 299.4 146.3 298.4 146.6ZM445.6 61.6V113.4C446 113.5 446.4 113.7 446.7 114L491.5 88.1C491.4 87.9 491.4 87.7 491.4 87.5C491.4 86.3 492.2 85.4 493.3 85.1V33.3C492.9 33.2 492.5 33 492.2 32.7L447.3 58.6C447.3 58.8 447.4 59 447.4 59.2C447.4 60.4 446.6 61.3 445.6 61.6ZM541.2 4.4L496.4 30.3C496.4 30.5 496.5 30.7 496.5 30.9C496.5 31.1 496.4 31.3 496.4 31.5L541.2 57.4C541.7 56.9 542.3 56.7 543 56.7C543.7 56.7 544.3 57 544.8 57.4L589.6 31.5C589.6 31.3 589.5 31.1 589.5 30.9C589.5 30.7 589.6 30.5 589.6 30.3L544.8 4.4C544.3 4.8 543.7 5.1 543 5.1C542.3 5.1 541.7 4.8 541.2 4.4ZM638.6 59.2C638.6 59 638.7 58.8 638.7 58.6L593.9 32.7C593.6 33 593.2 33.2 592.8 33.3V85.1C593.9 85.4 594.7 86.4 594.7 87.5C594.7 87.7 594.6 87.9 594.6 88.1L639.3 114C639.6 113.7 640 113.5 640.4 113.4V61.6C639.4 61.3 638.6 60.4 638.6 59.2ZM785.8 144.2C785.8 144 785.9 143.8 785.9 143.6L741.1 117.7C740.8 118 740.4 118.2 740 118.3V170.1C741.1 170.4 741.9 171.4 741.9 172.5C741.9 172.7 741.8 172.9 741.8 173.1L786.5 199C786.8 198.7 787.2 198.5 787.6 198.4V146.6C786.6 146.3 785.8 145.3 785.8 144.2ZM835.6 174.4L790.7 200.3C790.7 200.5 790.8 200.7 790.8 200.9C790.8 201.1 790.7 201.3 790.7 201.5L835.5 227.4C836 226.9 836.6 226.7 837.3 226.7C838 226.7 838.6 227 839.1 227.4L883.9 201.5C883.9 201.3 883.8 201.1 883.8 200.9C883.8 200.7 883.9 200.5 883.9 200.3L839 174.4C838.5 174.8 837.9 175.1 837.2 175.1C836.7 175.1 836.1 174.8 835.6 174.4ZM933 229.2C933 229 933.1 228.8 933.1 228.6L888.3 202.7C888 203 887.6 203.2 887.2 203.3V255.1C888.3 255.4 889.1 256.4 889.1 257.5C889.1 257.7 889 257.9 889 258.1L933.7 284C934 283.7 934.4 283.5 934.8 283.4V231.6C933.8 231.3 933 230.3 933 229.2ZM982.8 259.3L937.9 285.2C937.9 285.4 938 285.6 938 285.8C938 286 937.9 286.2 937.9 286.4L982.8 312.3C983.3 311.9 983.9 311.6 984.6 311.6C985.3 311.6 985.9 311.9 986.4 312.3L1031.2 286.4C1031.2 286.2 1031.1 286 1031.1 285.8C1031.1 285.6 1031.2 285.4 1031.2 285.2L986.3 259.3C985.8 259.7 985.2 260 984.5 260C983.9 260.1 983.3 259.8 982.8 259.3ZM1080.2 314.1C1080.2 313.9 1080.3 313.7 1080.3 313.5L1035.5 287.6C1035.2 287.9 1034.8 288.1 1034.4 288.2V340C1035.5 340.3 1036.3 341.2 1036.3 342.4C1036.3 342.6 1036.2 342.8 1036.2 343L1039.3 344.8L1080.9 369C1081.2 368.7 1081.6 368.5 1082 368.4V339.4V316.6C1081 316.3 1080.2 315.3 1080.2 314.1ZM1082 425.1V373.3C1081.6 373.2 1081.2 373 1080.9 372.7L1036.1 398.6C1036.1 398.8 1036.2 399 1036.2 399.2C1036.2 400.4 1035.4 401.3 1034.3 401.6V453.4C1034.7 453.5 1035.1 453.7 1035.4 454L1080.3 428.1C1080.3 427.9 1080.2 427.7 1080.2 427.5C1080.2 426.3 1081 425.4 1082 425.1ZM986.4 482.3L1031.3 456.4C1031.3 456.2 1031.2 456 1031.2 455.8C1031.2 455.6 1031.3 455.4 1031.3 455.2L986.5 429.3C986 429.8 985.4 430 984.7 430C984 430 983.4 429.7 982.9 429.3L938.1 455.2C938.1 455.4 938.2 455.6 938.2 455.8C938.2 456 938.1 456.2 938.1 456.4L983 482.3C983.5 481.9 984.1 481.6 984.8 481.6C985.3 481.6 985.9 481.9 986.4 482.3ZM934.9 510.1V458.3C934.5 458.2 934.1 458 933.8 457.7L889 483.6C889.1 483.8 889.1 484 889.1 484.2C889.1 485.4 888.3 486.3 887.2 486.6V538.4C887.6 538.5 888 538.7 888.3 539L933.1 513.1C933.1 512.9 933 512.7 933 512.5C933 511.3 933.8 510.4 934.9 510.1ZM839.2 567.3L884.1 541.4C884.1 541.2 884 541 884 540.8C884 540.6 884.1 540.4 884.1 540.2L839.3 514.3C838.8 514.8 838.2 515 837.5 515C836.8 515 836.2 514.7 835.7 514.3L790.9 540.2C790.9 540.4 791 540.6 791 540.8C791 541 790.9 541.2 790.9 541.4L835.8 567.3C836.3 566.9 836.9 566.6 837.6 566.6C838.1 566.6 838.7 566.9 839.2 567.3ZM787.7 595.1V543.3C787.3 543.2 786.9 543 786.6 542.7L741.8 568.6C741.9 568.8 741.9 569 741.9 569.2C741.9 570.4 741.1 571.3 740 571.6V623.4C740.4 623.5 740.8 623.7 741.1 624L785.9 598.1C785.9 597.9 785.8 597.7 785.8 597.5C785.8 596.3 786.6 595.4 787.7 595.1ZM640.5 680V628.2C640.1 628.1 639.7 627.9 639.4 627.6L594.6 653.5C594.7 653.7 594.7 653.9 594.7 654.1C594.7 655.3 593.9 656.2 592.8 656.5V708.3C593.2 708.4 593.6 708.6 593.9 708.9L638.7 683C638.7 682.8 638.6 682.6 638.6 682.4C638.6 681.3 639.4 680.4 640.5 680ZM544.8 737.3L589.6 711.4C589.6 711.2 589.5 711 589.5 710.8C589.5 710.6 589.6 710.4 589.6 710.2L544.8 684.3C544.3 684.8 543.7 685 543 685C542.3 685 541.7 684.7 541.2 684.3L496.4 710.2C496.4 710.4 496.5 710.6 496.5 710.8C496.5 711 496.4 711.2 496.4 711.4L541.2 737.3C541.7 736.9 542.3 736.6 543 736.6C543.7 736.5 544.3 736.8 544.8 737.3ZM447.4 682.5C447.4 682.7 447.3 682.9 447.3 683.1L492.2 709C492.5 708.7 492.9 708.5 493.3 708.4V656.6C492.2 656.3 491.4 655.3 491.4 654.2C491.4 654 491.5 653.8 491.5 653.6L446.7 627.7C446.4 628 446 628.2 445.6 628.3V680C446.6 680.4 447.4 681.3 447.4 682.5ZM300.2 597.5C300.2 597.7 300.1 597.9 300.1 598.1L345 624C345.3 623.7 345.7 623.5 346.1 623.4V571.6C345 571.3 344.2 570.3 344.2 569.2C344.2 569 344.3 568.8 344.3 568.6L299.5 542.7C299.2 543 298.8 543.2 298.4 543.3V595.1C299.4 595.4 300.2 596.3 300.2 597.5ZM250.4 567.3L295.3 541.4C295.3 541.2 295.2 541 295.2 540.8C295.2 540.6 295.3 540.4 295.3 540.2L250.5 514.3C250 514.8 249.4 515 248.7 515C248 515 247.4 514.7 246.9 514.3L202.1 540.2C202.1 540.4 202.2 540.6 202.2 540.8C202.2 541 202.1 541.2 202.1 541.4L247 567.3C247.5 566.9 248.1 566.6 248.8 566.6C249.3 566.6 249.9 566.9 250.4 567.3ZM153 512.5C153 512.7 152.9 512.9 152.9 513.1L197.8 539C198.1 538.7 198.5 538.5 198.9 538.4V486.6C197.8 486.3 197 485.3 197 484.2C197 484 197.1 483.8 197.1 483.6L152.3 457.7C152 458 151.6 458.2 151.2 458.3V510.1C152.2 510.4 153 511.3 153 512.5ZM103.2 482.3L148.1 456.4C148.1 456.2 148 456 148 455.8C148 455.6 148.1 455.4 148.1 455.2L103.2 429.3C102.7 429.7 102.1 430 101.4 430C100.7 430 100.1 429.7 99.5999 429.3L54.7999 455.2C54.7999 455.4 54.8999 455.6 54.8999 455.8C54.8999 456 54.7999 456.2 54.7999 456.4L99.7 482.3C100.2 481.9 100.8 481.6 101.5 481.6C102.1 481.6 102.7 481.9 103.2 482.3ZM5.79993 427.5C5.79993 427.7 5.69995 427.9 5.69995 428.1L50.4999 454C50.7999 453.7 51.2 453.5 51.6 453.4V401.6C50.5 401.3 49.7 400.4 49.7 399.2C49.7 399 49.7999 398.8 49.7999 398.6L46.3999 396.6L4.99988 372.7C4.69983 373 4.29993 373.2 3.8999 373.3V402.3V425.1C4.99988 425.4 5.79993 426.3 5.79993 427.5ZM300.1 200.3C300.1 200.5 300.2 200.7 300.2 200.9C300.2 201.1 300.1 201.3 300.1 201.5L323.5 215L345 227.4C345.5 226.9 346.1 226.7 346.8 226.7C347.5 226.7 348.1 227 348.6 227.4L393.4 201.5C393.4 201.3 393.3 201.1 393.3 200.9C393.3 200.7 393.4 200.5 393.4 200.3L365 183.9L348.6 174.4C348.1 174.8 347.5 175.1 346.8 175.1C346.1 175.1 345.5 174.8 345 174.4L300.1 200.3ZM722.6 183L692.7 200.3C692.7 200.5 692.8 200.7 692.8 200.9C692.8 201.1 692.7 201.3 692.7 201.5L737.5 227.4C738 226.9 738.6 226.7 739.3 226.7C740 226.7 740.6 227 741.1 227.4L761.6 215.6L785.9 201.5C785.9 201.3 785.8 201.1 785.8 200.9C785.8 200.7 785.9 200.5 785.9 200.3L741 174.4C740.5 174.8 739.9 175.1 739.2 175.1C738.5 175.1 737.9 174.8 737.4 174.4L722.6 183ZM785.9 541.4C785.9 541.2 785.8 541 785.8 540.8C785.8 540.6 785.9 540.4 785.9 540.2L763.2 527.1L741 514.3C740.5 514.8 739.9 515 739.2 515C738.5 515 737.9 514.7 737.4 514.3L692.6 540.2C692.6 540.4 692.7 540.6 692.7 540.8C692.7 541 692.6 541.2 692.6 541.4L722.5 558.7L737.4 567.3C737.9 566.9 738.5 566.6 739.2 566.6C739.9 566.6 740.5 566.9 741 567.3L785.9 541.4ZM364.9 557.8L393.3 541.4C393.3 541.2 393.2 541 393.2 540.8C393.2 540.6 393.3 540.4 393.3 540.2L348.5 514.3C348 514.8 347.4 515 346.7 515C346 515 345.4 514.7 344.9 514.3L321.9 527.6L300.1 540.2C300.1 540.4 300.2 540.6 300.2 540.8C300.2 541 300.1 541.2 300.1 541.4L345 567.3C345.5 566.9 346.1 566.6 346.8 566.6C347.5 566.6 348.1 566.9 348.6 567.3L364.9 557.8ZM445.6 118.3V170.1C446.7 170.4 447.5 171.4 447.5 172.5C447.5 172.7 447.4 172.9 447.4 173.1L467.5 184.7L492.1 199C492.4 198.7 492.8 198.5 493.2 198.4V146.6C492.1 146.3 491.3 145.3 491.3 144.2C491.3 144 491.4 143.8 491.4 143.6L474.4 133.8L446.5 117.7C446.4 118 446 118.2 445.6 118.3ZM611.5 133.8L594.5 143.6C594.5 143.8 594.6 144 594.6 144.2C594.6 145.4 593.8 146.3 592.7 146.6V198.4C593.1 198.5 593.5 198.7 593.8 199L620.5 183.6L638.6 173.1C638.5 172.9 638.5 172.7 638.5 172.5C638.5 171.3 639.3 170.4 640.4 170.1V118.3C640 118.2 639.6 118 639.3 117.7L611.5 133.8ZM640.5 623.4V571.6C639.4 571.3 638.6 570.3 638.6 569.2C638.6 569 638.7 568.8 638.7 568.6L619.1 557.3L593.9 542.7C593.6 543 593.2 543.2 592.8 543.3V595.1C593.9 595.4 594.7 596.4 594.7 597.5C594.7 597.7 594.6 597.9 594.6 598.1L611.6 607.9L639.4 624C639.7 623.7 640 623.5 640.5 623.4ZM474.5 607.9L491.5 598.1C491.5 597.9 491.4 597.7 491.4 597.5C491.4 596.3 492.2 595.4 493.3 595.1V543.3C492.9 543.2 492.5 543 492.2 542.7L469.1 556.1L447.4 568.6C447.5 568.8 447.5 569 447.5 569.2C447.5 570.4 446.7 571.3 445.6 571.6V623.4C446 623.5 446.4 623.7 446.7 624L474.5 607.9ZM5.79993 370.9C5.79993 371.1 5.69995 371.3 5.69995 371.5L50.4999 397.4C50.9999 396.9 51.6 396.7 52.2999 396.7C52.9999 396.7 53.6 397 54.1 397.4L98.8999 371.5C98.8999 371.3 98.7999 371.1 98.7999 370.9C98.7999 370.7 98.8999 370.5 98.8999 370.3L54.1 344.4C53.6 344.9 52.9999 345.1 52.2999 345.1C51.6 345.1 50.9999 344.8 50.4999 344.4L5.69995 370.3C5.79993 370.4 5.79993 370.6 5.79993 370.9C5.79993 370.8 5.79993 370.8 5.79993 370.9C5.79993 370.8 5.79993 370.8 5.79993 370.9C5.79993 370.8 5.79993 370.8 5.79993 370.9C5.79993 370.8 5.79993 370.8 5.79993 370.9C5.79993 370.8 5.79993 370.8 5.79993 370.9C5.79993 370.8 5.79993 370.8 5.79993 370.9ZM151.2 288.3V340.1C152.3 340.4 153.1 341.3 153.1 342.5C153.1 342.7 153 342.9 153 343.1L164.3 349.6L179.5 358.4L197.7 369C198 368.7 198.4 368.5 198.8 368.4V316.6C197.7 316.3 196.9 315.3 196.9 314.2C196.9 314 197 313.8 197 313.6L152.2 287.7C152 288 151.6 288.1 151.2 288.3ZM443.1 174.4L398.2 200.3C398.2 200.5 398.3 200.7 398.3 200.9C398.3 201.1 398.2 201.3 398.2 201.5L420.6 214.5L443 227.4C443.5 226.9 444.1 226.7 444.8 226.7C445.5 226.7 446.1 227 446.6 227.4L491.4 201.5C491.4 201.3 491.3 201.1 491.3 200.9C491.3 200.7 491.4 200.5 491.4 200.3L463.5 184.2L446.6 174.4C446.1 174.8 445.5 175.1 444.8 175.1C444.2 175.1 443.6 174.8 443.1 174.4ZM622.4 184.1L594.5 200.2C594.5 200.4 594.6 200.6 594.6 200.8C594.6 201 594.5 201.2 594.5 201.4L639.3 227.3C639.8 226.8 640.4 226.6 641.1 226.6C641.8 226.6 642.4 226.9 642.9 227.3L666.3 213.8L687.8 201.4C687.8 201.2 687.7 201 687.7 200.8C687.7 200.6 687.8 200.4 687.8 200.2L642.9 174.3C642.4 174.7 641.8 175 641.1 175C640.4 175 639.8 174.7 639.3 174.3L622.4 184.1ZM934.9 453.4V401.6C933.8 401.3 933 400.4 933 399.2C933 399 933.1 398.8 933.1 398.6L921.8 392.1L905.8 382.9L888.3 372.8C888 373.1 887.6 373.3 887.2 373.4V425.2C888.3 425.5 889.1 426.5 889.1 427.6C889.1 427.8 889 428 889 428.2L933.8 454C934.1 453.7 934.4 453.5 934.9 453.4ZM642.9 567.3L687.8 541.4C687.8 541.2 687.7 541 687.7 540.8C687.7 540.6 687.8 540.4 687.8 540.2L667.8 528.7L642.9 514.3C642.4 514.8 641.8 515 641.1 515C640.4 515 639.8 514.7 639.3 514.3L594.5 540.2C594.5 540.4 594.6 540.6 594.6 540.8C594.6 541 594.5 541.2 594.5 541.4L622.4 557.5L639.3 567.3C639.8 566.9 640.4 566.6 641.1 566.6C641.8 566.6 642.5 566.9 642.9 567.3ZM463.6 557.5L491.5 541.4C491.5 541.2 491.4 541 491.4 540.8C491.4 540.6 491.5 540.4 491.5 540.2L446.7 514.3C446.2 514.8 445.6 515 444.9 515C444.2 515 443.6 514.7 443.1 514.3L419.1 528.2L398.3 540.2C398.3 540.4 398.4 540.6 398.4 540.8C398.4 541 398.3 541.2 398.3 541.4L443.2 567.3C443.7 566.9 444.3 566.6 445 566.6C445.7 566.6 446.3 566.9 446.8 567.3L463.6 557.5ZM347.4 231.6V283.4C347.8 283.5 348.2 283.7 348.5 284L393.3 258.1C393.2 257.9 393.2 257.7 393.2 257.5C393.2 256.3 394 255.4 395.1 255.1V203.3C394.7 203.2 394.3 203 394 202.7L349.2 228.6C349.2 228.8 349.3 229 349.3 229.2C349.3 230.3 348.5 231.3 347.4 231.6ZM494.6 146.6V198.4C495 198.5 495.4 198.7 495.7 199L503.9 194.3L517.9 186.2L540.5 173.2C540.4 173 540.4 172.8 540.4 172.6C540.4 171.4 541.2 170.5 542.3 170.2V118.4C541.9 118.3 541.5 118.1 541.2 117.8L530.9 123.7L496.4 143.6C496.4 143.8 496.5 144 496.5 144.2C496.5 145.3 495.7 146.3 494.6 146.6ZM736.7 229.2C736.7 229 736.8 228.8 736.8 228.6L692 202.7C691.7 203 691.3 203.2 690.9 203.3V255.1C692 255.4 692.8 256.3 692.8 257.5C692.8 257.7 692.7 257.9 692.7 258.1L737.5 284C737.8 283.7 738.2 283.5 738.6 283.4V231.6C737.5 231.3 736.7 230.3 736.7 229.2ZM738.6 510.1V458.3C738.2 458.2 737.8 458 737.5 457.7L692.7 483.6C692.8 483.8 692.8 484 692.8 484.2C692.8 485.4 692 486.3 690.9 486.6V538.4C691.3 538.5 691.7 538.7 692 539L736.8 513.1C736.8 512.9 736.7 512.7 736.7 512.5C736.7 511.3 737.5 510.4 738.6 510.1ZM591.4 595.1V543.3C591 543.2 590.6 543 590.3 542.7L582.1 547.4L571.6 553.5L545.5 568.6C545.6 568.8 545.6 569 545.6 569.2C545.6 570.4 544.8 571.3 543.7 571.6V623.4C544.1 623.5 544.5 623.7 544.8 624L552.9 619.3L589.7 598.1C589.7 597.9 589.6 597.7 589.6 597.5C589.5 596.3 590.3 595.4 591.4 595.1ZM349.3 512.5C349.3 512.7 349.2 512.9 349.2 513.1L394 539C394.3 538.7 394.7 538.5 395.1 538.4V486.6C394 486.3 393.2 485.4 393.2 484.2C393.2 484 393.3 483.8 393.3 483.6L348.5 457.7C348.2 458 347.8 458.2 347.4 458.3V510.1C348.5 510.4 349.3 511.3 349.3 512.5ZM104 370.9C104 371.1 103.9 371.3 103.9 371.5L148.7 397.4C149.2 396.9 149.8 396.7 150.5 396.7C151.2 396.7 151.8 397 152.3 397.4L197.1 371.5C197.1 371.3 197 371.1 197 370.9C197 370.7 197.1 370.5 197.1 370.3L152.3 344.4C151.8 344.9 151.2 345.1 150.5 345.1C149.8 345.1 149.2 344.8 148.7 344.4L103.9 370.3C103.9 370.4 104 370.6 104 370.9C104 370.8 104 370.8 104 370.9C104 370.8 104 370.8 104 370.9C104 370.8 104 370.8 104 370.9C104 370.8 104 370.8 104 370.9C104 370.8 104 370.8 104 370.9C104 370.8 104 370.8 104 370.9ZM445.6 231.6V283.4C446 283.5 446.4 283.7 446.7 284L491.5 258.1C491.4 257.9 491.4 257.7 491.4 257.5C491.4 256.3 492.2 255.4 493.3 255.1V203.3C492.9 203.2 492.5 203 492.2 202.7L447.4 228.6C447.4 228.8 447.5 229 447.5 229.2C447.4 230.3 446.6 231.3 445.6 231.6ZM638.6 229.2C638.6 229 638.7 228.8 638.7 228.6L593.9 202.7C593.6 203 593.2 203.2 592.8 203.3V255.1C593.9 255.4 594.7 256.4 594.7 257.5C594.7 257.7 594.6 257.9 594.6 258.1L639.3 284C639.6 283.7 640 283.5 640.4 283.4V231.6C639.4 231.3 638.6 230.3 638.6 229.2ZM640.5 510.1V458.3C640.1 458.2 639.7 458 639.4 457.7L594.6 483.6C594.7 483.8 594.7 484 594.7 484.2C594.7 485.4 593.9 486.3 592.8 486.6V538.4C593.2 538.5 593.6 538.7 593.9 539L638.7 513.1C638.7 512.9 638.6 512.7 638.6 512.5C638.6 511.3 639.4 510.4 640.5 510.1ZM447.4 512.5C447.4 512.7 447.3 512.9 447.3 513.1L492.2 539C492.5 538.7 492.9 538.5 493.3 538.4V486.6C492.2 486.3 491.4 485.3 491.4 484.2C491.4 484 491.5 483.8 491.5 483.6L446.7 457.7C446.4 458 446 458.2 445.6 458.3V510.1C446.6 510.4 447.4 511.3 447.4 512.5ZM202.1 370.9C202.1 371.1 202 371.3 202 371.5L246.8 397.4C247.3 396.9 247.9 396.7 248.6 396.7C249.3 396.7 249.9 397 250.4 397.4L278.5 381.2L295.2 371.6C295.2 371.4 295.1 371.2 295.1 371C295.1 370.8 295.2 370.6 295.2 370.4L250.4 344.5C249.9 345 249.3 345.2 248.6 345.2C247.9 345.2 247.3 344.9 246.8 344.5L212.7 364.2L202 370.4C202 370.4 202.1 370.6 202.1 370.9C202.1 370.8 202.1 370.8 202.1 370.9C202.1 370.8 202.1 370.8 202.1 370.9C202.1 370.8 202.1 370.8 202.1 370.9C202.1 370.8 202.1 370.8 202.1 370.9C202.1 370.8 202.1 370.8 202.1 370.9C202.1 370.8 202.1 370.8 202.1 370.9ZM530.5 180.6L496.4 200.3C496.4 200.5 496.5 200.7 496.5 200.9C496.5 201.1 496.4 201.3 496.4 201.5L520.7 215.5L541.2 227.4C541.7 226.9 542.3 226.7 543 226.7C543.7 226.7 544.3 227 544.8 227.4L565.3 215.5L589.6 201.5C589.6 201.3 589.5 201.1 589.5 200.9C589.5 200.7 589.6 200.5 589.6 200.3L555.8 180.8L544.8 174.4C544.3 174.8 543.7 175.1 543 175.1C542.3 175.1 541.7 174.8 541.2 174.4L530.5 180.6ZM883.9 370.8C883.9 370.6 884 370.4 884 370.2L839.2 344.3C838.7 344.8 838.1 345 837.4 345C836.7 345 836.1 344.7 835.6 344.3L806.8 360.9L790.7 370.2C790.7 370.4 790.8 370.6 790.8 370.8C790.8 371 790.7 371.2 790.7 371.4L835.5 397.3C836 396.8 836.6 396.6 837.3 396.6C838 396.6 838.6 396.9 839.1 397.3L872.6 378L884.1 371.4C884 371.2 883.9 371.1 883.9 370.8ZM557.2 560.1L589.6 541.4C589.6 541.2 589.5 541 589.5 540.8C589.5 540.6 589.6 540.4 589.6 540.2L566.9 527.1L544.7 514.3C544.2 514.8 543.6 515 542.9 515C542.2 515 541.6 514.7 541.1 514.3L518.9 527.1L496.2 540.2C496.2 540.4 496.3 540.6 496.3 540.8C496.3 541 496.2 541.2 496.2 541.4L528.9 560.3L541 567.3C541.5 566.9 542.1 566.6 542.8 566.6C543.5 566.6 544.1 566.9 544.6 567.3L557.2 560.1ZM785.8 370.8C785.8 370.6 785.9 370.4 785.9 370.2L741.1 344.3C740.6 344.8 740 345 739.3 345C738.6 345 738 344.7 737.5 344.3L704.7 363.2L692.6 370.2C692.6 370.4 692.7 370.6 692.7 370.8C692.7 371 692.6 371.2 692.6 371.4L737.4 397.3C737.9 396.8 738.5 396.6 739.2 396.6C739.9 396.6 740.5 396.9 741 397.3L774.3 378.2L785.9 371.5C785.9 371.2 785.8 371.1 785.8 370.8ZM687.7 370.8C687.7 370.6 687.8 370.4 687.8 370.2L643 344.3C642.5 344.8 641.9 345 641.2 345C640.5 345 639.9 344.7 639.4 344.3L606.2 363.5L594.6 370.2C594.6 370.4 594.7 370.6 594.7 370.8C594.7 371 594.6 371.2 594.6 371.4L639.4 397.3C639.9 396.8 640.5 396.6 641.2 396.6C641.9 396.6 642.5 396.9 643 397.3L672.2 380.4L687.8 371.4C687.7 371.2 687.7 371.1 687.7 370.8ZM498.3 369.1L496.4 370.2C496.4 370.4 496.5 370.6 496.5 370.8C496.5 371 496.4 371.2 496.4 371.4L504 375.8L518.8 384.4L541.2 397.3C541.7 396.8 542.3 396.6 543 396.6C543.7 396.6 544.3 396.9 544.8 397.3L560.1 388.5L572.2 381.5L582.1 375.8L587.7 372.6L589.7 371.4C589.7 371.2 589.6 371 589.6 370.8C589.6 370.6 589.7 370.4 589.7 370.2L582.1 365.8L567.3 357.2L544.9 344.3C544.4 344.8 543.8 345 543.1 345C542.4 345 541.8 344.7 541.3 344.3L525.7 353.3L514.1 360L504 365.8L498.3 369.1ZM494.6 402.2V425C495.7 425.3 496.5 426.2 496.5 427.4C496.5 427.6 496.4 427.8 496.4 428L522 442.8L541.2 454C541.5 453.7 541.9 453.5 542.3 453.4V401.6C541.2 401.3 540.4 400.4 540.4 399.2C540.4 399 540.5 398.8 540.5 398.6L534.9 395.4L519.9 386.8L503.8 377.5L495.6 372.8C495.3 373.1 494.9 373.3 494.5 373.4L494.6 402.2ZM585.7 430.4L589.6 428.1C589.6 427.9 589.5 427.7 589.5 427.5C589.5 426.3 590.3 425.4 591.4 425.1V373.3C591 373.2 590.6 373 590.3 372.7L582.1 377.4L566 386.7L545.5 398.6C545.5 398.8 545.6 399 545.6 399.2C545.6 400.4 544.8 401.3 543.7 401.6V453.4C544.1 453.5 544.5 453.7 544.8 454L562.7 443.7L567.1 441.1L585.7 430.4ZM591.4 339.4V316.6C590.3 316.3 589.5 315.4 589.5 314.2C589.5 314 589.6 313.8 589.6 313.6L564 298.8L544.7 287.7C544.4 288 544 288.2 543.6 288.3V340.1C544.7 340.4 545.5 341.3 545.5 342.5C545.5 342.7 545.4 342.9 545.4 343.1L550.9 346.3L566 355L582.1 364.3L590.3 369C590.6 368.7 591 368.5 591.4 368.4V339.4ZM500.6 311.1L496.4 313.5C496.4 313.7 496.5 313.9 496.5 314.1C496.5 315.3 495.7 316.2 494.6 316.5V368.3C495 368.4 495.4 368.6 495.7 368.9L503.9 364.2L520 354.9L540.5 343C540.5 342.8 540.4 342.6 540.4 342.4C540.4 341.2 541.2 340.3 542.3 340V288.2C541.9 288.1 541.5 287.9 541.2 287.6L523.3 298L517.9 301.1L500.6 311.1ZM413.4 361.5L398.3 370.2C398.3 370.4 398.4 370.6 398.4 370.8C398.4 371 398.3 371.2 398.3 371.4L443.1 397.3C443.6 396.8 444.2 396.6 444.9 396.6C445.6 396.6 446.2 396.9 446.7 397.3L479.2 378.6L491.6 371.5C491.6 371.3 491.5 371.1 491.5 370.9C491.5 370.7 491.6 370.5 491.6 370.3L446.8 344.4C446.3 344.9 445.7 345.1 445 345.1C444.3 345.1 443.7 344.8 443.2 344.4L413.4 361.5ZM447.4 455.8C447.4 456 447.3 456.2 447.3 456.4L492.2 482.3C492.7 481.9 493.3 481.6 494 481.6C494.7 481.6 495.3 481.9 495.8 482.3L504.1 477.5L535.3 459.5L540.6 456.4C540.6 456.2 540.5 456 540.5 455.8C540.5 455.6 540.6 455.4 540.6 455.2L537.5 453.4L512.1 438.8L508.2 436.6L503.9 434.1L497.5 430.4L495.6 429.3C495.1 429.8 494.5 430 493.8 430C493.1 430 492.5 429.7 492 429.3L478.7 437L447.1 455.2C447.4 455.4 447.4 455.6 447.4 455.8ZM495.7 539L503.9 534.2L540.5 513.1C540.5 512.9 540.4 512.7 540.4 512.5C540.4 511.3 541.2 510.4 542.3 510.1V458.3C541.9 458.2 541.5 458 541.2 457.7L522.5 468.5L496.3 483.6C496.4 483.8 496.4 484 496.4 484.2C496.4 485.4 495.6 486.3 494.5 486.6V538.4C495.1 538.5 495.4 538.7 495.7 539ZM590.3 539C590.6 538.7 591 538.5 591.4 538.4V486.6C590.3 486.3 589.5 485.3 589.5 484.2C589.5 484 589.6 483.8 589.6 483.6L563.4 468.5L544.7 457.7C544.4 458 544 458.2 543.6 458.3V510.1C544.7 510.4 545.5 511.4 545.5 512.5C545.5 512.7 545.4 512.9 545.4 513.1L582 534.2L590.3 539ZM593.9 482.3L638.8 456.4C638.8 456.2 638.7 456 638.7 455.8C638.7 455.6 638.8 455.4 638.8 455.2L617.7 443L593.9 429.3C593.4 429.8 592.8 430 592.1 430C591.4 430 590.8 429.7 590.3 429.3L588.9 430.1L582 434.1L577.7 436.6L545.4 455.3C545.4 455.5 545.5 455.7 545.5 455.9C545.5 456.1 545.4 456.3 545.4 456.5L551.1 459.8L582 477.6L590.3 482.4C590.8 482 591.4 481.7 592.1 481.7C592.8 481.7 593.4 481.9 593.9 482.3ZM640.5 453.4V401.6C639.4 401.3 638.6 400.4 638.6 399.2C638.6 399 638.7 398.8 638.7 398.6L631.8 394.6L614.4 384.5L593.9 372.6C593.6 372.9 593.2 373.1 592.8 373.2V402.2V425C593.9 425.3 594.7 426.2 594.7 427.4C594.7 427.6 594.6 427.8 594.6 428L604.3 433.6L639.4 454C639.7 453.7 640 453.5 640.5 453.4ZM638.6 285.8C638.6 285.6 638.7 285.4 638.7 285.2L593.8 259.3C593.3 259.7 592.7 260 592 260C591.3 260 590.7 259.7 590.2 259.3L581.9 264.1L550.1 282.4L545.3 285.2C545.3 285.4 545.4 285.6 545.4 285.8C545.4 286 545.3 286.2 545.3 286.4L548.6 288.3L573.8 302.8L577.7 305.1L581.9 307.6L588.4 311.3L590.2 312.3C590.7 311.8 591.3 311.6 592 311.6C592.7 311.6 593.3 311.9 593.8 312.3L606.4 305.1L638.7 286.5C638.7 286.2 638.6 286.1 638.6 285.8ZM590.3 202.7L582.1 207.5L545.5 228.6C545.5 228.8 545.6 229 545.6 229.2C545.6 230.4 544.8 231.3 543.7 231.6V283.4C544.1 283.5 544.5 283.7 544.8 284L563.5 273.2L589.7 258.1C589.6 257.9 589.6 257.7 589.6 257.5C589.6 256.3 590.4 255.4 591.5 255.1V203.3C591 203.2 590.6 203 590.3 202.7ZM495.7 202.7C495.4 203 495 203.2 494.6 203.3V255.1C495.7 255.4 496.5 256.4 496.5 257.5C496.5 257.7 496.4 257.9 496.4 258.1L522.6 273.2L541.2 284C541.5 283.7 541.9 283.5 542.3 283.4V231.6C541.2 231.3 540.4 230.3 540.4 229.2C540.4 229 540.5 228.8 540.5 228.6L503.9 207.5L495.7 202.7ZM492.2 259.3L447.3 285.2C447.3 285.4 447.4 285.6 447.4 285.8C447.4 286 447.3 286.2 447.3 286.4L470 299.5L492.1 312.3C492.6 311.8 493.2 311.6 493.9 311.6C494.6 311.6 495.2 311.9 495.7 312.3L497 311.6L504 307.6L508.2 305.2L540.6 286.5C540.6 286.3 540.5 286.1 540.5 285.9C540.5 285.7 540.6 285.5 540.6 285.3L536.1 282.7L504 264.2L495.7 259.4C495.2 259.8 494.6 260.1 493.9 260.1C493.3 260.1 492.6 259.8 492.2 259.3ZM445.6 288.3V340.1C446.7 340.4 447.5 341.3 447.5 342.5C447.5 342.7 447.4 342.9 447.4 343.1L454.2 347L470.8 356.6L492.1 369C492.4 368.7 492.8 368.5 493.2 368.4V339.4V316.6C492.1 316.3 491.3 315.4 491.3 314.2C491.3 314 491.4 313.8 491.4 313.6L481.9 308.1L446.6 287.7C446.4 288 446 288.1 445.6 288.3ZM445.6 402.2V453.4C446 453.5 446.4 453.7 446.7 454L491.5 428.1C491.5 427.9 491.4 427.7 491.4 427.5C491.4 426.3 492.2 425.4 493.3 425.1V373.3C492.9 373.2 492.5 373 492.2 372.7L472.8 383.9L447.4 398.6C447.4 398.8 447.5 399 447.5 399.2C447.5 400.4 446.7 401.3 445.6 401.6V402.2ZM640.5 339.4V288.2C640.1 288.1 639.7 287.9 639.4 287.6L594.6 313.5C594.6 313.7 594.7 313.9 594.7 314.1C594.7 315.3 593.9 316.2 592.8 316.5V368.3C593.2 368.4 593.6 368.6 593.9 368.9L616.7 355.8L638.8 343.1C638.8 342.9 638.7 342.7 638.7 342.5C638.7 341.3 639.5 340.4 640.6 340.1L640.5 339.4ZM311.1 363.9L300.1 370.3C300.1 370.5 300.2 370.7 300.2 370.9C300.2 371.1 300.1 371.3 300.1 371.5L344.9 397.4C345.4 396.9 346 396.7 346.7 396.7C347.4 396.7 348 397 348.5 397.4L380.6 378.9L393.3 371.6C393.3 371.4 393.2 371.2 393.2 371C393.2 370.8 393.3 370.6 393.3 370.4L348.5 344.5C348 345 347.4 345.2 346.7 345.2C346 345.2 345.4 344.9 344.9 344.5L311.1 363.9ZM642.9 454L687.7 428.1C687.7 427.9 687.6 427.7 687.6 427.5C687.6 426.3 688.4 425.4 689.5 425.1V373.3C689.1 373.2 688.7 373 688.4 372.7L643.6 398.6C643.6 398.8 643.7 399 643.7 399.2C643.7 400.4 642.9 401.3 641.8 401.6V453.4C642.3 453.5 642.6 453.7 642.9 454ZM443.1 287.7L398.3 313.6C398.3 313.8 398.4 314 398.4 314.2C398.4 315.4 397.6 316.3 396.5 316.6V368.4C396.9 368.5 397.3 368.7 397.6 369L442.4 343.1C442.4 342.9 442.3 342.7 442.3 342.5C442.3 341.3 443.1 340.4 444.2 340.1V288.3C443.8 288.1 443.4 288 443.1 287.7ZM347.4 402.2V453.4C347.8 453.5 348.2 453.7 348.5 454L393.3 428.1C393.3 427.9 393.2 427.7 393.2 427.5C393.2 426.3 394 425.4 395.1 425.1V373.3C394.7 373.2 394.3 373 394 372.7L371 386L349.2 398.6C349.2 398.8 349.3 399 349.3 399.2C349.3 400.4 348.5 401.3 347.4 401.6V402.2ZM409.3 434.5L443.1 454C443.4 453.7 443.8 453.5 444.2 453.4V401.6C443.1 401.3 442.3 400.3 442.3 399.2C442.3 399 442.4 398.8 442.4 398.6L435.8 394.8L397.6 372.7C397.3 373 396.9 373.2 396.5 373.3V402.3V425.1C397.6 425.4 398.4 426.3 398.4 427.5C398.4 427.7 398.3 427.9 398.3 428.1L409.3 434.5ZM702.6 433.9L737.5 454C737.8 453.7 738.2 453.5 738.6 453.4V401.6C737.5 401.3 736.7 400.3 736.7 399.2C736.7 399 736.8 398.8 736.8 398.6L729.9 394.6L712.7 384.6L692 372.6C691.7 372.9 691.3 373.1 690.9 373.2V402.2V425C692 425.3 692.8 426.2 692.8 427.4C692.8 427.6 692.7 427.8 692.7 428L702.6 433.9ZM738.6 339.4V288.2C738.2 288.1 737.8 287.9 737.5 287.6L692.7 313.5C692.7 313.7 692.8 313.9 692.8 314.1C692.8 315.3 692 316.2 690.9 316.5V368.3C691.3 368.4 691.7 368.6 692 368.9L714.7 355.8L736.8 343C736.8 342.8 736.7 342.6 736.7 342.4C736.7 341.2 737.5 340.3 738.6 340V339.4ZM676.9 307.3L642.9 287.7C642.6 288 642.2 288.2 641.8 288.3V340.1C642.9 340.4 643.7 341.4 643.7 342.5C643.7 342.7 643.6 342.9 643.6 343.1L650.3 347L688.4 369C688.7 368.7 689.1 368.5 689.5 368.4V339.4V316.6C688.4 316.3 687.6 315.4 687.6 314.2C687.6 314 687.7 313.8 687.7 313.6L676.9 307.3ZM383.5 307.8L348.5 287.6C348.2 287.9 347.8 288.1 347.4 288.2V340C348.5 340.3 349.3 341.3 349.3 342.4C349.3 342.6 349.2 342.8 349.2 343L356.2 347L368.8 354.3L394 369C394.3 368.7 394.7 368.5 395.1 368.4V339.4V316.6C394 316.3 393.2 315.4 393.2 314.2C393.2 314 393.3 313.8 393.3 313.6L383.5 307.8ZM413.2 473.3L442.5 456.4C442.5 456.2 442.4 456 442.4 455.8C442.4 455.6 442.5 455.4 442.5 455.2L430.3 448.1L397.7 429.3C397.2 429.8 396.6 430 395.9 430C395.2 430 394.6 429.7 394.1 429.3L380.2 437.3L349.2 455.2C349.2 455.4 349.3 455.6 349.3 455.8C349.3 456 349.2 456.2 349.2 456.4L394.1 482.3C394.6 481.9 395.2 481.6 395.9 481.6C396.6 481.6 397.2 481.9 397.7 482.3L413.2 473.3ZM672.9 473.3L688.5 482.3C689 481.9 689.6 481.6 690.3 481.6C691 481.6 691.6 481.9 692.1 482.3L737 456.4C737 456.2 736.9 456 736.9 455.8C736.9 455.6 737 455.4 737 455.2L724.3 447.9L692.2 429.3C691.7 429.8 691.1 430 690.4 430C689.7 430 689.1 429.7 688.6 429.3L673.2 438.2L643.8 455.2C643.8 455.4 643.9 455.6 643.9 455.8C643.9 456 643.8 456.2 643.8 456.4L672.9 473.3ZM741.1 454L785.9 428.1C785.9 427.9 785.8 427.7 785.8 427.5C785.8 426.3 786.6 425.4 787.7 425.1V373.3C787.3 373.2 786.9 373 786.6 372.7L741.8 398.6C741.8 398.8 741.9 399 741.9 399.2C741.9 400.4 741.1 401.3 740 401.6V453.4C740.4 453.5 740.8 453.7 741.1 454ZM982.1 370.8C982.1 370.6 982.2 370.4 982.2 370.2L937.4 344.3C936.9 344.8 936.3 345 935.6 345C934.9 345 934.3 344.7 933.8 344.3L889 370.2C889 370.4 889.1 370.6 889.1 370.8C889.1 371 889 371.2 889 371.4L933.8 397.3C934.3 396.8 934.9 396.6 935.6 396.6C936.3 396.6 936.9 396.9 937.4 397.3L982.2 371.4C982.1 371.2 982.1 371.1 982.1 370.8ZM836.7 340.1V288.3C836.3 288.2 835.9 288 835.6 287.7L790.8 313.6C790.8 313.8 790.9 314 790.9 314.2C790.9 315.4 790.1 316.3 789 316.6V368.4C789.4 368.5 789.8 368.7 790.1 369L812.8 355.9L834.9 343.1C834.9 342.9 834.8 342.7 834.8 342.5C834.9 341.3 835.7 340.4 836.7 340.1ZM672.9 268.3L643.6 285.2C643.6 285.4 643.7 285.6 643.7 285.8C643.7 286 643.6 286.2 643.6 286.4L657.6 294.5L688.4 312.3C688.9 311.8 689.5 311.6 690.2 311.6C690.9 311.6 691.5 311.9 692 312.3L705.2 304.7L736.8 286.4C736.8 286.2 736.7 286 736.7 285.8C736.7 285.6 736.8 285.4 736.8 285.2L691.9 259.3C691.4 259.7 690.8 260 690.1 260C689.4 260 688.8 259.7 688.3 259.3L672.9 268.3ZM413.2 268.3L397.6 259.3C397.1 259.7 396.5 260 395.8 260C395.1 260 394.5 259.7 394 259.3L349.1 285.2C349.1 285.4 349.2 285.6 349.2 285.8C349.2 286 349.1 286.2 349.1 286.4L365 295.6L393.9 312.3C394.4 311.8 395 311.6 395.7 311.6C396.4 311.6 397 311.9 397.5 312.3L412.3 303.7L442.3 286.4C442.3 286.2 442.2 286 442.2 285.8C442.2 285.6 442.3 285.4 442.3 285.2L413.2 268.3ZM345 287.7L300.2 313.6C300.2 313.8 300.3 314 300.3 314.2C300.3 315.4 299.5 316.3 298.4 316.6V368.4C298.8 368.5 299.2 368.7 299.5 369L344.3 343.1C344.3 342.9 344.2 342.7 344.2 342.5C344.2 341.3 345 340.4 346.1 340.1V288.3C345.6 288.1 345.3 288 345 287.7ZM249.3 401.6V453.4C249.7 453.5 250.1 453.7 250.4 454L295.2 428.1C295.2 427.9 295.1 427.7 295.1 427.5C295.1 426.3 295.9 425.4 297 425.1V373.3C296.6 373.2 296.2 373 295.9 372.7L275.3 384.6L251.1 398.6C251.1 398.8 251.2 399 251.2 399.2C251.2 400.3 250.4 401.3 249.3 401.6ZM306.5 431.8L345 454C345.3 453.7 345.7 453.5 346.1 453.4V401.6C345 401.3 344.2 400.4 344.2 399.2C344.2 399 344.3 398.8 344.3 398.6L338.2 395.1L299.4 372.7C299.1 373 298.7 373.2 298.3 373.3V402.3V425.1C299.4 425.4 300.2 426.3 300.2 427.5C300.2 427.7 300.1 427.9 300.1 428.1L306.5 431.8ZM423.7 523.9L442.5 513.1C442.5 512.9 442.4 512.7 442.4 512.5C442.4 511.3 443.2 510.4 444.3 510.1V458.3C443.9 458.2 443.5 458 443.2 457.7L418 472.3L398.4 483.6C398.5 483.8 398.5 484 398.5 484.2C398.5 485.4 397.7 486.3 396.6 486.6V538.4C397 538.5 397.4 538.7 397.7 539L423.7 523.9ZM496.5 597.5C496.5 597.7 496.4 597.9 496.4 598.1L533.2 619.3L541.3 624C541.6 623.7 542 623.5 542.4 623.4V571.6C541.3 571.3 540.5 570.4 540.5 569.2C540.5 569 540.6 568.8 540.6 568.6L514.5 553.5L504 547.4L495.8 542.7C495.5 543 495.1 543.2 494.7 543.3V595.1C495.7 595.4 496.5 596.3 496.5 597.5ZM661.4 523.4L688.4 539C688.7 538.7 689.1 538.5 689.5 538.4V486.6C688.4 486.3 687.6 485.3 687.6 484.2C687.6 484 687.7 483.8 687.7 483.6L667.1 471.7L642.8 457.7C642.5 458 642.1 458.2 641.7 458.3V510.1C642.8 510.4 643.6 511.4 643.6 512.5C643.6 512.7 643.5 512.9 643.5 513.1L661.4 523.4ZM805.5 436.6L835.6 454C835.9 453.7 836.3 453.5 836.7 453.4V401.6C835.6 401.3 834.8 400.3 834.8 399.2C834.8 399 834.9 398.8 834.9 398.6L827.1 394.1L810.7 384.6L790.1 372.7C789.8 373 789.4 373.2 789 373.3V402.3V425.1C790.1 425.4 790.9 426.3 790.9 427.5C790.9 427.7 790.8 427.9 790.8 428.1L805.5 436.6ZM779.8 310L741 287.6C740.7 287.9 740.3 288.1 739.9 288.2V340C741 340.3 741.8 341.2 741.8 342.4C741.8 342.6 741.7 342.8 741.7 343L747.9 346.6L786.5 369C786.8 368.7 787.2 368.5 787.6 368.4V339.4V316.6C786.5 316.3 785.7 315.4 785.7 314.2C785.7 314 785.8 313.8 785.8 313.6L779.8 310ZM661.4 218.3L643.6 228.6C643.6 228.8 643.7 229 643.7 229.2C643.7 230.4 642.9 231.3 641.8 231.6V283.4C642.2 283.5 642.6 283.7 642.9 284L669.3 268.7L687.7 258.1C687.6 257.9 687.6 257.7 687.6 257.5C687.6 256.3 688.4 255.4 689.5 255.1V203.3C689.1 203.2 688.7 203 688.4 202.7L661.4 218.3ZM589.5 144.2C589.5 144 589.6 143.8 589.6 143.6L555.1 123.7L544.8 117.8C544.5 118.1 544.1 118.3 543.7 118.4V170.2C544.8 170.5 545.6 171.5 545.6 172.6C545.6 172.8 545.5 173 545.5 173.2L568.1 186.2L582.1 194.3L590.3 199C590.6 198.7 591 198.5 591.4 198.4V146.6C590.3 146.3 589.5 145.3 589.5 144.2ZM423.7 217.7L397.6 202.6C397.3 202.9 396.9 203.1 396.5 203.2V255C397.6 255.3 398.4 256.3 398.4 257.4C398.4 257.6 398.3 257.8 398.3 258L415.7 268.1L443.1 284C443.4 283.7 443.8 283.5 444.2 283.4V231.6C443.1 231.3 442.3 230.3 442.3 229.2C442.3 229 442.4 228.8 442.4 228.6L423.7 217.7ZM280.6 305.1L250.4 287.6C250.1 287.9 249.7 288.1 249.3 288.2V340C250.4 340.3 251.2 341.3 251.2 342.4C251.2 342.6 251.1 342.8 251.1 343L259 347.6L273.2 355.8L295.9 369C296.2 368.7 296.6 368.5 297 368.4V339.4V316.6C295.9 316.3 295.1 315.4 295.1 314.2C295.1 314 295.2 313.8 295.2 313.6L280.6 305.1ZM151.2 401.6V453.4C151.6 453.5 152 453.7 152.3 454L197.1 428.1C197.1 427.9 197 427.7 197 427.5C197 426.3 197.8 425.4 198.9 425.1V373.3C198.5 373.2 198.1 373 197.8 372.7L181.4 382.2L156.4 396.6L153 398.6C153 398.8 153.1 399 153.1 399.2C153 400.3 152.2 401.3 151.2 401.6ZM315.7 472.9L344.3 456.4C344.3 456.2 344.2 456 344.2 455.8C344.2 455.6 344.3 455.4 344.3 455.2L311.2 436.1L299.5 429.3C299 429.8 298.4 430 297.7 430C297 430 296.4 429.7 295.9 429.3L251.1 455.2C251.1 455.4 251.2 455.6 251.2 455.8C251.2 456 251.1 456.2 251.1 456.4L296 482.3C296.5 481.9 297.1 481.6 297.8 481.6C298.5 481.6 299.1 481.9 299.6 482.3L315.7 472.9ZM769.4 472.4L786.6 482.3C787.1 481.9 787.7 481.6 788.4 481.6C789.1 481.6 789.7 481.9 790.2 482.3L835.1 456.4C835.1 456.2 835 456 835 455.8C835 455.6 835.1 455.4 835.1 455.2L833.1 454.1L790.2 429.3C789.7 429.8 789.1 430 788.4 430C787.7 430 787.1 429.7 786.6 429.3L775.1 435.9L741.8 455.1C741.8 455.3 741.9 455.5 741.9 455.7C741.9 455.9 741.8 456.1 741.8 456.3L769.4 472.4ZM839.2 454L884 428.1C884 427.9 883.9 427.7 883.9 427.5C883.9 426.3 884.7 425.4 885.8 425.1V373.3C885.4 373.2 885 373 884.7 372.7L839.9 398.6C839.9 398.8 840 399 840 399.2C840 400.4 839.2 401.3 838.1 401.6V453.4C838.5 453.5 838.9 453.7 839.2 454ZM934.9 340.1V288.3C934.5 288.2 934.1 288 933.8 287.7L889 313.6C889 313.8 889.1 314 889.1 314.2C889.1 315.4 888.3 316.3 887.2 316.6V368.4C887.6 368.5 888 368.7 888.3 369L908 357.6L929.8 345L933.2 343.1C933.2 342.9 933.1 342.7 933.1 342.5C933 341.3 933.8 340.4 934.9 340.1ZM878 310.1L839.2 287.7C838.9 288 838.5 288.2 838.1 288.3V340.1C839.2 340.4 840 341.3 840 342.5C840 342.7 839.9 342.9 839.9 343.1L845.7 346.4L884.7 368.9C885 368.6 885.4 368.4 885.8 368.3V339.3V316.5C884.7 316.2 883.9 315.3 883.9 314.1C883.9 313.9 884 313.7 884 313.5L878 310.1ZM769.4 269.3L741.7 285.3C741.7 285.5 741.8 285.7 741.8 285.9C741.8 286.1 741.7 286.3 741.7 286.5L777.1 306.9L786.5 312.3C787 311.8 787.6 311.6 788.3 311.6C789 311.6 789.6 311.9 790.1 312.3L834.9 286.4C834.9 286.2 834.8 286 834.8 285.8C834.8 285.6 834.9 285.4 834.9 285.2L790 259.3C789.5 259.7 788.9 260 788.2 260C787.5 260 786.9 259.7 786.4 259.3L769.4 269.3ZM315.7 268.7L299.5 259.3C299 259.7 298.4 260 297.7 260C297 260 296.4 259.7 295.9 259.3L251 285.2C251 285.4 251.1 285.6 251.1 285.8C251.1 286 251 286.2 251 286.4L253.8 288L295.8 312.3C296.3 311.8 296.9 311.6 297.6 311.6C298.3 311.6 298.9 311.9 299.4 312.3L310.2 306.1L344.3 286.4C344.3 286.2 344.2 286 344.2 285.8C344.2 285.6 344.3 285.4 344.3 285.2L315.7 268.7ZM246.8 287.7L202 313.6C202 313.8 202.1 314 202.1 314.2C202.1 315.4 201.3 316.3 200.2 316.6V368.4C200.6 368.5 201 368.7 201.3 369L246.1 343.1C246.1 342.9 246 342.7 246 342.5C246 341.3 246.8 340.4 247.9 340.1V288.3C247.5 288.1 247.1 288 246.8 287.7ZM208.5 431.9L246.8 454C247.1 453.7 247.5 453.5 247.9 453.4V401.6C246.8 401.3 246 400.4 246 399.2C246 399 246.1 398.8 246.1 398.6L240.5 395.3L201.3 372.7C201 373 200.6 373.2 200.2 373.3V402.3V425.1C201.3 425.4 202.1 426.3 202.1 427.5C202.1 427.7 202 427.9 202 428.1L208.5 431.9ZM328.7 522.1L344.3 513.1C344.3 512.9 344.2 512.7 344.2 512.5C344.2 511.3 345 510.4 346.1 510.1V458.3C345.7 458.2 345.3 458 345 457.7L322.9 470.5L300.2 483.6C300.3 483.8 300.3 484 300.3 484.2C300.3 485.4 299.5 486.3 298.4 486.6V538.4C298.8 538.5 299.2 538.7 299.5 539L328.7 522.1ZM757.3 522.1L786.6 539C786.9 538.7 787.3 538.5 787.7 538.4V486.6C786.6 486.3 785.8 485.3 785.8 484.2C785.8 484 785.9 483.8 785.9 483.6L764.2 471.1L741.1 457.8C740.8 458.1 740.4 458.3 740 458.4V510.2C741.1 510.5 741.9 511.5 741.9 512.6C741.9 512.8 741.8 513 741.8 513.2L757.3 522.1ZM1080.2 370.8C1080.2 370.6 1080.3 370.4 1080.3 370.2L1035.5 344.3C1035 344.8 1034.4 345 1033.7 345C1033 345 1032.4 344.7 1031.9 344.3L987.1 370.2C987.1 370.4 987.2 370.6 987.2 370.8C987.2 371 987.1 371.2 987.1 371.4L1031.9 397.3C1032.4 396.8 1033 396.6 1033.7 396.6C1034.4 396.6 1035 396.9 1035.5 397.3L1080.3 371.4C1080.3 371.2 1080.2 371.1 1080.2 370.8ZM757.3 219.6L741.7 228.6C741.7 228.8 741.8 229 741.8 229.2C741.8 230.4 741 231.3 739.9 231.6V283.4C740.3 283.5 740.7 283.7 741 284L766 269.6L785.9 258.1C785.8 257.9 785.8 257.7 785.8 257.5C785.8 256.3 786.6 255.4 787.7 255.1V203.3C787.3 203.2 786.9 203 786.6 202.7L757.3 219.6ZM328.7 219.6L299.5 202.7C299.2 203 298.8 203.2 298.4 203.3V255.1C299.5 255.4 300.3 256.4 300.3 257.5C300.3 257.7 300.2 257.9 300.2 258.1L321 270.1L345 284C345.3 283.7 345.7 283.5 346.1 283.4V231.6C345 231.3 344.2 230.3 344.2 229.2C344.2 229 344.3 228.8 344.3 228.6L328.7 219.6ZM98.9999 428.1C98.9999 427.9 98.8999 427.7 98.8999 427.5C98.8999 426.3 99.7 425.4 100.8 425.1V373.3C100.4 373.2 99.9999 373 99.7 372.7L82.7 382.5L58.2 396.6L54.8999 398.5C54.8999 398.7 54.9999 398.9 54.9999 399.1C54.9999 400.3 54.2 401.2 53.1 401.5V453.3C53.5 453.4 53.8999 453.6 54.2 453.9L98.9999 428.1ZM104 427.5C104 427.7 103.9 427.9 103.9 428.1L148.7 454C149 453.7 149.4 453.5 149.8 453.4V401.6C148.7 401.3 147.9 400.3 147.9 399.2C147.9 399 148 398.8 148 398.6L146.6 397.8L103.2 372.8C102.9 373.1 102.5 373.3 102.1 373.4V402.4V425.2C103.2 425.4 104 426.3 104 427.5ZM153 455.8C153 456 152.9 456.2 152.9 456.4L197.8 482.3C198.3 481.9 198.9 481.6 199.6 481.6C200.3 481.6 200.9 481.9 201.4 482.3L219.1 472.1L246.3 456.4C246.3 456.2 246.2 456 246.2 455.8C246.2 455.6 246.3 455.4 246.3 455.2L203.3 430.4L201.5 429.3C201 429.8 200.4 430 199.7 430C199 430 198.4 429.7 197.9 429.3L153.1 455.2C153 455.4 153 455.6 153 455.8ZM246.2 513.1C246.2 512.9 246.1 512.7 246.1 512.5C246.1 511.3 246.9 510.4 248 510.1V458.3C247.6 458.2 247.2 458 246.9 457.7L222.6 471.7L202.1 483.5C202.2 483.7 202.2 483.9 202.2 484.1C202.2 485.3 201.4 486.2 200.3 486.5V538.3C200.7 538.4 201.1 538.6 201.4 538.9L246.2 513.1ZM251.2 512.5C251.2 512.7 251.1 512.9 251.1 513.1L295.9 539C296.2 538.7 296.6 538.5 297 538.4V486.6C295.9 486.3 295.1 485.3 295.1 484.2C295.1 484 295.2 483.8 295.2 483.6L250.4 457.7C250.1 458 249.7 458.2 249.3 458.3V510.1C250.4 510.4 251.2 511.3 251.2 512.5ZM447.4 625.8C447.4 626 447.3 626.2 447.3 626.4L492.2 652.3C492.7 651.9 493.3 651.6 494 651.6C494.7 651.6 495.3 651.9 495.8 652.3L504.1 647.5L533.2 630.7L540.7 626.4C540.7 626.2 540.6 626 540.6 625.8C540.6 625.6 540.7 625.4 540.7 625.2L520.6 613.6L504.1 604.1L495.9 599.3C495.4 599.8 494.8 600 494.1 600C493.4 600 492.8 599.7 492.3 599.3L468.9 612.8L447.4 625.2C447.4 625.4 447.4 625.6 447.4 625.8ZM504 704.2L540.6 683.1C540.6 682.9 540.5 682.7 540.5 682.5C540.5 681.3 541.3 680.4 542.4 680.1V628.3C542 628.2 541.6 628 541.3 627.7L522.5 638.5L496.4 653.5C496.5 653.7 496.5 653.9 496.5 654.1C496.5 655.3 495.7 656.2 494.6 656.5V708.3C495 708.4 495.4 708.6 495.7 708.9L504 704.2ZM582 704.2L590.3 709C590.6 708.7 591 708.5 591.4 708.4V656.6C590.3 656.3 589.5 655.3 589.5 654.2C589.5 654 589.6 653.8 589.6 653.6L563.5 638.5L544.7 627.7C544.4 628 544 628.2 543.6 628.3V680C544.7 680.3 545.5 681.3 545.5 682.4C545.5 682.6 545.4 682.8 545.4 683L582 704.2ZM638.7 626.4C638.7 626.2 638.6 626 638.6 625.8C638.6 625.6 638.7 625.4 638.7 625.2L615.3 611.7L593.9 599.3C593.4 599.8 592.8 600 592.1 600C591.4 600 590.8 599.7 590.3 599.3L582.1 604.1L565.6 613.6L545.5 625.2C545.5 625.4 545.6 625.6 545.6 625.8C545.6 626 545.5 626.2 545.5 626.4L553.4 631L582.1 647.6L590.4 652.4C590.9 652 591.5 651.7 592.2 651.7C592.9 651.7 593.5 652 594 652.4L638.7 626.4ZM835 513.1C835 512.9 834.9 512.7 834.9 512.5C834.9 511.3 835.7 510.4 836.8 510.1V458.3C836.4 458.2 836 458 835.7 457.7L790.9 483.6C791 483.8 791 484 791 484.2C791 485.4 790.2 486.3 789.1 486.6V538.4C789.5 538.5 789.9 538.7 790.2 539L835 513.1ZM840 512.5C840 512.7 839.9 512.9 839.9 513.1L884.7 539C885 538.7 885.4 538.5 885.8 538.4V486.6C884.7 486.3 883.9 485.3 883.9 484.2C883.9 484 884 483.8 884 483.6L863.5 471.8L839.2 457.8C838.9 458.1 838.5 458.3 838.1 458.4V510.2C839.2 510.4 840 511.3 840 512.5ZM933.1 456.4C933.1 456.2 933 456 933 455.8C933 455.6 933.1 455.4 933.1 455.2L896.5 434.1L888.3 429.4C887.8 429.9 887.2 430.1 886.5 430.1C885.8 430.1 885.2 429.8 884.7 429.4L873.5 435.9L839.9 455.3C839.9 455.5 840 455.7 840 455.9C840 456.1 839.9 456.3 839.9 456.5L867.1 472.2L884.8 482.4C885.3 482 885.9 481.7 886.6 481.7C887.3 481.7 887.9 482 888.4 482.4L933.1 456.4ZM982.2 428.1C982.2 427.9 982.1 427.7 982.1 427.5C982.1 426.3 982.9 425.4 984 425.1V373.3C983.6 373.2 983.2 373 982.9 372.7L938.1 398.6C938.1 398.8 938.2 399 938.2 399.2C938.2 400.4 937.4 401.3 936.3 401.6V453.4C936.7 453.5 937.1 453.7 937.4 454L982.2 428.1ZM987.2 427.5C987.2 427.7 987.1 427.9 987.1 428.1L1031.9 454C1032.2 453.7 1032.6 453.5 1033 453.4V401.6C1031.9 401.3 1031.1 400.4 1031.1 399.2C1031.1 399 1031.2 398.8 1031.2 398.6L1020 392.1L1001.9 381.6L986.4 372.7C986.1 373 985.7 373.2 985.3 373.3V425.1C986.4 425.4 987.2 426.3 987.2 427.5ZM987 313.5C987 313.7 987.1 313.9 987.1 314.1C987.1 315.3 986.3 316.2 985.2 316.5V368.3C985.6 368.4 986 368.6 986.3 368.9L1003.5 359L1028 345L1031.3 343.1C1031.3 342.9 1031.2 342.7 1031.2 342.5C1031.2 341.3 1032 340.4 1033.1 340.1V288.3C1032.7 288.2 1032.3 288 1032 287.7L987 313.5ZM982.1 314.1C982.1 313.9 982.2 313.7 982.2 313.5L937.4 287.6C937.1 287.9 936.7 288.1 936.3 288.2V340C937.4 340.3 938.2 341.3 938.2 342.4C938.2 342.6 938.1 342.8 938.1 343L939.7 343.9L982.9 368.9C983.2 368.6 983.6 368.4 984 368.3V339.3V316.5C982.9 316.3 982.1 315.3 982.1 314.1ZM933 285.8C933 285.6 933.1 285.4 933.1 285.2L888.2 259.3C887.7 259.7 887.1 260 886.4 260C885.7 260 885.1 259.7 884.6 259.3L866.9 269.5L839.7 285.2C839.7 285.4 839.8 285.6 839.8 285.8C839.8 286 839.7 286.2 839.7 286.4L884.5 312.3C885 311.8 885.6 311.6 886.3 311.6C887 311.6 887.6 311.9 888.1 312.3L932.9 286.4C933.1 286.2 933 286.1 933 285.8ZM839.8 228.6C839.8 228.8 839.9 229 839.9 229.2C839.9 230.4 839.1 231.3 838 231.6V283.4C838.4 283.5 838.8 283.7 839.1 284L865.7 268.7L884 258.2C883.9 258 883.9 257.8 883.9 257.6C883.9 256.4 884.7 255.5 885.8 255.2V203.4C885.4 203.3 885 203.1 884.7 202.8L839.8 228.6ZM834.9 229.2C834.9 229 835 228.8 835 228.6L790.2 202.7C789.9 203 789.5 203.2 789.1 203.3V255.1C790.2 255.4 791 256.4 791 257.5C791 257.7 790.9 257.9 790.9 258.1L835.6 284C835.9 283.7 836.3 283.5 836.7 283.4V231.6C835.7 231.3 834.9 230.3 834.9 229.2ZM638.6 115.8C638.6 115.6 638.7 115.4 638.7 115.2L593.8 89.3C593.3 89.7 592.7 90 592 90C591.3 90 590.7 89.7 590.2 89.3L581.9 94.1L553.2 110.7L545.3 115.3C545.3 115.5 545.4 115.7 545.4 115.9C545.4 116.1 545.3 116.3 545.3 116.5L565.4 128.1L581.9 137.6L590.1 142.4C590.6 141.9 591.2 141.7 591.9 141.7C592.6 141.7 593.2 142 593.7 142.4L615.3 130L638.7 116.5C638.7 116.3 638.6 116.1 638.6 115.8C638.6 115.9 638.6 115.9 638.6 115.8C638.6 115.9 638.6 115.9 638.6 115.8ZM582 37.5L545.4 58.6C545.4 58.8 545.5 59 545.5 59.2C545.5 60.4 544.7 61.3 543.6 61.6V113.4C544 113.5 544.4 113.7 544.7 114L563.5 103.2L589.6 88.1C589.5 87.9 589.5 87.7 589.5 87.5C589.5 86.3 590.3 85.4 591.4 85.1V33.3C591 33.2 590.6 33 590.3 32.7L582 37.5ZM504 37.5L495.8 32.7C495.5 33 495.1 33.2 494.7 33.3V85.1C495.8 85.4 496.6 86.4 496.6 87.5C496.6 87.7 496.5 87.9 496.5 88.1L522.6 103.1L541.2 114C541.5 113.7 541.9 113.5 542.3 113.4V61.6C541.2 61.3 540.4 60.3 540.4 59.2C540.4 59 540.5 58.8 540.5 58.6L504 37.5ZM447.3 115.3C447.3 115.5 447.4 115.7 447.4 115.9C447.4 116.1 447.3 116.3 447.3 116.5L468.8 128.9L492.2 142.4C492.7 141.9 493.3 141.7 494 141.7C494.7 141.7 495.3 142 495.8 142.4L504 137.6L520.5 128.1L540.6 116.5C540.6 116.3 540.5 116.1 540.5 115.9C540.5 115.7 540.6 115.5 540.6 115.3L533.1 111L504 94.2L495.7 89.4C495.2 89.8 494.6 90.1 493.9 90.1C493.2 90.1 492.6 89.8 492.1 89.4L447.3 115.3ZM251.1 228.6C251.1 228.8 251.2 229 251.2 229.2C251.2 230.4 250.4 231.3 249.3 231.6V283.4C249.7 283.5 250.1 283.7 250.4 284L295.2 258.1C295.1 257.9 295.1 257.7 295.1 257.5C295.1 256.3 295.9 255.4 297 255.1V203.3C296.6 203.2 296.2 203 295.9 202.7L251.1 228.6ZM246.1 229.2C246.1 229 246.2 228.8 246.2 228.6L201.4 202.7C201.1 203 200.7 203.2 200.3 203.3V255.1C201.4 255.4 202.2 256.4 202.2 257.5C202.2 257.7 202.1 257.9 202.1 258.1L220.4 268.6L246.8 284C247.1 283.7 247.5 283.5 247.9 283.4V231.6C246.9 231.3 246.1 230.3 246.1 229.2ZM152.9 285.2C152.9 285.4 153 285.6 153 285.8C153 286 152.9 286.2 152.9 286.4L189.9 307.8L197.7 312.3C198.2 311.8 198.8 311.6 199.5 311.6C200.2 311.6 200.8 311.9 201.3 312.3L212.1 306.1L246.2 286.4C246.2 286.2 246.1 286 246.1 285.8C246.1 285.6 246.2 285.4 246.2 285.2L219 269.5L201.3 259.3C200.8 259.7 200.2 260 199.5 260C198.8 260 198.2 259.7 197.7 259.3L152.9 285.2ZM103.9 313.6C103.9 313.8 104 314 104 314.2C104 315.4 103.2 316.3 102.1 316.6V368.4C102.5 368.5 102.9 368.7 103.2 369L148 343.1C148 342.9 147.9 342.7 147.9 342.5C147.9 341.3 148.7 340.4 149.8 340.1V288.3C149.4 288.2 149 288 148.7 287.7L103.9 313.6ZM98.8999 314.1C98.8999 313.9 98.9999 313.7 98.9999 313.5L54.2 287.6C53.8999 287.9 53.5 288.1 53.1 288.2V340C54.2 340.3 54.9999 341.2 54.9999 342.4C54.9999 342.6 54.8999 342.8 54.8999 343L66.0999 349.5L80.8999 358.1L99.5999 369C99.8999 368.7 100.3 368.5 100.7 368.4V316.6C99.7 316.3 98.8999 315.3 98.8999 314.1ZM393.4 598.1C393.4 597.9 393.3 597.7 393.3 597.5C393.3 596.3 394.1 595.4 395.2 595.1V543.3C394.8 543.2 394.4 543 394.1 542.7L369.8 556.7L349.2 568.6C349.3 568.8 349.3 569 349.3 569.2C349.3 570.4 348.5 571.3 347.4 571.6V623.4C347.8 623.5 348.2 623.7 348.5 624L393.4 598.1ZM398.4 597.5C398.4 597.7 398.3 597.9 398.3 598.1L443.1 624C443.4 623.7 443.8 623.5 444.2 623.4V571.6C443.1 571.3 442.3 570.3 442.3 569.2C442.3 569 442.4 568.8 442.4 568.6L397.6 542.7C397.3 543 396.9 543.2 396.5 543.3V595.1C397.6 595.4 398.4 596.3 398.4 597.5ZM687.8 598.1C687.8 597.9 687.7 597.7 687.7 597.5C687.7 596.3 688.5 595.4 689.6 595.1V543.3C689.2 543.2 688.8 543 688.5 542.7L643.7 568.6C643.8 568.8 643.8 569 643.8 569.2C643.8 570.4 643 571.3 641.9 571.6V623.4C642.3 623.5 642.7 623.7 643 624L687.8 598.1ZM692.8 597.5C692.8 597.7 692.7 597.9 692.7 598.1L737.5 624C737.8 623.7 738.2 623.5 738.6 623.4V571.6C737.5 571.3 736.7 570.3 736.7 569.2C736.7 569 736.8 568.8 736.8 568.6L715.1 556.1L692 542.7C691.7 543 691.3 543.2 690.9 543.3V595.1C692 595.4 692.8 596.3 692.8 597.5ZM692.6 143.6C692.6 143.8 692.7 144 692.7 144.2C692.7 145.4 691.9 146.3 690.8 146.6V198.4C691.2 198.5 691.6 198.7 691.9 199L716.7 184.7L736.8 173.1C736.7 172.9 736.7 172.7 736.7 172.5C736.7 171.3 737.5 170.4 738.6 170.1V118.3C738.2 118.2 737.8 118 737.5 117.7L692.6 143.6ZM687.7 144.2C687.7 144 687.8 143.8 687.8 143.6L643 117.7C642.7 118 642.3 118.2 641.9 118.3V170.1C643 170.4 643.8 171.4 643.8 172.5C643.8 172.7 643.7 172.9 643.7 173.1L688.4 199C688.7 198.7 689.1 198.5 689.5 198.4V146.6C688.5 146.3 687.7 145.3 687.7 144.2ZM398.3 143.6C398.3 143.8 398.4 144 398.4 144.2C398.4 145.4 397.6 146.3 396.5 146.6V198.4C396.9 198.5 397.3 198.7 397.6 199L442.4 173.1C442.3 172.9 442.3 172.7 442.3 172.5C442.3 171.3 443.1 170.4 444.2 170.1V118.3C443.8 118.2 443.4 118 443.1 117.7L398.3 143.6ZM393.3 144.2C393.3 144 393.4 143.8 393.4 143.6L348.6 117.7C348.3 118 347.9 118.2 347.5 118.3V170.1C348.6 170.4 349.4 171.4 349.4 172.5C349.4 172.7 349.3 172.9 349.3 173.1L368.3 184.1L394 199C394.3 198.7 394.7 198.5 395.1 198.4V146.6C394.1 146.3 393.3 145.3 393.3 144.2ZM349.3 625.8C349.3 626 349.2 626.2 349.2 626.4L394.1 652.3C394.6 651.9 395.2 651.6 395.9 651.6C396.6 651.6 397.2 651.9 397.7 652.3L442.6 626.4C442.6 626.2 442.5 626 442.5 625.8C442.5 625.6 442.6 625.4 442.6 625.2L397.8 599.3C397.3 599.8 396.7 600 396 600C395.3 600 394.7 599.7 394.2 599.3L349.4 625.2C349.2 625.4 349.3 625.6 349.3 625.8ZM736.8 626.4C736.8 626.2 736.7 626 736.7 625.8C736.7 625.6 736.8 625.4 736.8 625.2L692 599.3C691.5 599.8 690.9 600 690.2 600C689.5 600 688.9 599.7 688.4 599.3L643.6 625.2C643.6 625.4 643.7 625.6 643.7 625.8C643.7 626 643.6 626.2 643.6 626.4L688.5 652.3C689 651.9 689.6 651.6 690.3 651.6C691 651.6 691.6 651.9 692.1 652.3L736.8 626.4ZM736.7 115.8C736.7 115.6 736.8 115.4 736.8 115.2L691.9 89.3C691.4 89.7 690.8 90 690.1 90C689.4 90 688.8 89.7 688.3 89.3L643.4 115.2C643.4 115.4 643.5 115.6 643.5 115.8C643.5 116 643.4 116.2 643.4 116.4L688.2 142.3C688.7 141.8 689.3 141.6 690 141.6C690.7 141.6 691.3 141.9 691.8 142.3L736.6 116.4C736.8 116.3 736.7 116.1 736.7 115.8C736.7 115.9 736.7 115.9 736.7 115.8C736.7 115.9 736.7 115.9 736.7 115.8ZM349.2 115.3C349.2 115.5 349.3 115.7 349.3 115.9C349.3 116.1 349.2 116.3 349.2 116.5L394 142.4C394.5 141.9 395.1 141.7 395.8 141.7C396.5 141.7 397.1 142 397.6 142.4L442.4 116.5C442.4 116.3 442.3 116.1 442.3 115.9C442.3 115.7 442.4 115.5 442.4 115.3L397.5 89.4C397 89.8 396.4 90.1 395.7 90.1C395 90.1 394.4 89.8 393.9 89.4L349.2 115.3Z" fill="url(#paint0_linear_2_313)"/>
<defs>
<linearGradient id="paint0_linear_2_313" x1="843.027" y1="70.8143" x2="242.999" y2="670.842" gradientUnits="userSpaceOnUse">
<stop stop-color="#F4682B"/>
<stop offset="1" stop-color="#FFB800" stop-opacity="0"/>
</linearGradient>
</defs>
</svg>
