<svg width="543" height="371" viewBox="0 0 543 371" fill="none" xmlns="http://www.w3.org/2000/svg">
<path d="M0.699951 -0.100006C0.699951 -0.200006 0.699951 -0.200006 0.699951 -0.100006C0.699951 -0.200006 0.699951 -0.200006 0.699951 -0.100006C0.699951 -0.200006 0.699951 -0.200006 0.699951 -0.100006C0.699951 -0.200006 0.699951 -0.200006 0.699951 -0.100006C0.699951 -0.200006 0.699951 -0.200006 0.699951 -0.100006C0.699951 -0.200006 0.699951 -0.200006 0.699951 -0.100006C0.699951 -1.30001 1.49998 -2.30001 2.59998 -2.60001V-54.4C1.49998 -54.7 0.699951 -55.7 0.699951 -56.8C0.699951 -58.2 1.79993 -59.4 3.29993 -59.4C3.99993 -59.4 4.59998 -59.1 5.09998 -58.7L49.8999 -84.6C49.8999 -84.8 49.7999 -85 49.7999 -85.2C49.7999 -86.6 50.8999 -87.8 52.3999 -87.8C53.0999 -87.8 53.7 -87.5 54.2 -87.1L98.9999 -113C98.8999 -113.2 98.8999 -113.4 98.8999 -113.6C98.8999 -115 99.9999 -116.2 101.5 -116.2C102.9 -116.2 104.1 -115.1 104.1 -113.6C104.1 -113.4 104 -113.2 104 -113L148.7 -87C149 -87.3 149.4 -87.5 149.8 -87.6V-139.4C148.7 -139.7 147.9 -140.7 147.9 -141.8C147.9 -143.2 149 -144.4 150.5 -144.4C151.2 -144.4 151.8 -144.1 152.3 -143.7L197.1 -169.6C197.1 -169.8 197 -170 197 -170.2C197 -171.6 198.1 -172.8 199.6 -172.8C200.3 -172.8 200.9 -172.5 201.4 -172.1L246.2 -198C246.1 -198.2 246.1 -198.4 246.1 -198.6C246.1 -200 247.2 -201.2 248.7 -201.2C250.1 -201.2 251.3 -200.1 251.3 -198.6C251.3 -198.4 251.2 -198.2 251.2 -198L295.9 -172C296.2 -172.3 296.6 -172.5 297 -172.6V-224.4C295.9 -224.7 295.1 -225.7 295.1 -226.8C295.1 -228.2 296.2 -229.4 297.7 -229.4C298.4 -229.4 299 -229.1 299.5 -228.7L344.3 -254.5C344.3 -254.7 344.2 -254.9 344.2 -255.1C344.2 -256.5 345.3 -257.7 346.8 -257.7C347.5 -257.7 348.1 -257.4 348.6 -257L393.4 -282.9C393.3 -283.1 393.3 -283.3 393.3 -283.5C393.3 -284.9 394.4 -286.1 395.9 -286.1C397.3 -286.1 398.5 -285 398.5 -283.5C398.5 -283.3 398.4 -283.1 398.4 -282.9L443.1 -257C443.4 -257.3 443.8 -257.5 444.2 -257.6V-309.4C443.1 -309.7 442.3 -310.7 442.3 -311.8C442.3 -313.2 443.4 -314.4 444.9 -314.4C445.6 -314.4 446.2 -314.1 446.7 -313.7L491.5 -339.6C491.5 -339.8 491.4 -340 491.4 -340.2C491.4 -341.6 492.5 -342.8 494 -342.8C494.7 -342.8 495.3 -342.5 495.8 -342.1L504 -346.8L540.6 -367.8C540.5 -368 540.5 -368.2 540.5 -368.4C540.5 -369.8 541.6 -371 543.1 -371C544.5 -371 545.7 -369.9 545.7 -368.4C545.7 -368.2 545.6 -368 545.6 -367.8L582.2 -346.7L590.4 -342C590.9 -342.5 591.5 -342.7 592.2 -342.7C593.6 -342.7 594.8 -341.6 594.8 -340.1C594.8 -339.9 594.7 -339.7 594.7 -339.5L639.5 -313.6C640 -314.1 640.6 -314.3 641.3 -314.3C642.7 -314.3 643.9 -313.2 643.9 -311.7C643.9 -310.5 643.1 -309.6 642 -309.3V-257.5C642.4 -257.4 642.8 -257.2 643.1 -256.9L687.9 -282.8C687.8 -283 687.8 -283.2 687.8 -283.4C687.8 -284.8 688.9 -286 690.4 -286C691.8 -286 693 -284.9 693 -283.4C693 -283.2 692.9 -283 692.9 -282.8L737.5 -257C738 -257.5 738.6 -257.7 739.3 -257.7C740.7 -257.7 741.9 -256.6 741.9 -255.1C741.9 -254.9 741.8 -254.7 741.8 -254.5L786.6 -228.6C787.1 -229.1 787.7 -229.3 788.4 -229.3C789.8 -229.3 791 -228.2 791 -226.7C791 -225.5 790.2 -224.6 789.1 -224.3V-172.5C789.5 -172.4 789.9 -172.2 790.2 -171.9L835 -197.8C834.9 -198 834.9 -198.2 834.9 -198.4C834.9 -199.8 836 -201 837.5 -201C838.9 -201 840.1 -199.9 840.1 -198.4C840.1 -198.2 840 -198 840 -197.8L884.7 -172C885.2 -172.5 885.8 -172.7 886.5 -172.7C887.9 -172.7 889.1 -171.6 889.1 -170.1C889.1 -169.9 889 -169.7 889 -169.5L933.8 -143.6C934.3 -144.1 934.9 -144.3 935.6 -144.3C937 -144.3 938.2 -143.2 938.2 -141.7C938.2 -140.5 937.4 -139.6 936.3 -139.3V-87.5C936.7 -87.4 937.1 -87.2 937.4 -86.9L982.2 -112.8C982.1 -113 982.1 -113.2 982.1 -113.4C982.1 -114.8 983.2 -116 984.7 -116C986.1 -116 987.3 -114.9 987.3 -113.4C987.3 -113.2 987.2 -113 987.2 -112.8L1031.9 -87C1032.4 -87.5 1033 -87.7 1033.7 -87.7C1035.1 -87.7 1036.3 -86.6 1036.3 -85.1C1036.3 -84.9 1036.2 -84.7 1036.2 -84.5L1081 -58.7C1081.5 -59.2 1082.1 -59.4 1082.8 -59.4C1084.2 -59.4 1085.4 -58.3 1085.4 -56.8C1085.4 -55.6 1084.6 -54.7 1083.5 -54.4V-2.60001C1084.6 -2.30001 1085.4 -1.30001 1085.4 -0.200012C1085.4 0.999988 1084.6 1.90001 1083.5 2.20001V54C1084.6 54.3 1085.4 55.3 1085.4 56.4C1085.4 57.8 1084.3 59 1082.8 59C1082.1 59 1081.5 58.7 1081 58.3L1036.2 84.2C1036.2 84.4 1036.3 84.6 1036.3 84.8C1036.3 86.2 1035.2 87.4 1033.7 87.4C1033 87.4 1032.4 87.1 1031.9 86.7L987.1 112.6C987.2 112.8 987.2 113 987.2 113.2C987.2 114.6 986.1 115.8 984.6 115.8C983.2 115.8 982 114.7 982 113.2C982 113 982.1 112.8 982.1 112.6L937.3 86.7C937 87 936.6 87.2 936.2 87.3V139.1C937.3 139.4 938.1 140.4 938.1 141.5C938.1 142.9 937 144.1 935.5 144.1C934.8 144.1 934.2 143.8 933.7 143.4L888.9 169.3C888.9 169.5 889 169.7 889 169.9C889 171.3 887.9 172.5 886.4 172.5C885.7 172.5 885.1 172.2 884.6 171.8L839.8 197.7C839.9 197.9 839.9 198.1 839.9 198.3C839.9 199.7 838.8 200.9 837.3 200.9C835.9 200.9 834.7 199.8 834.7 198.3C834.7 198.1 834.8 197.9 834.8 197.7L790 171.8C789.7 172.1 789.3 172.3 788.9 172.4V224.2C790 224.5 790.8 225.5 790.8 226.6C790.8 228 789.7 229.2 788.2 229.2C787.5 229.2 786.9 228.9 786.4 228.5L741.6 254.4C741.6 254.6 741.7 254.8 741.7 255C741.7 256.4 740.6 257.6 739.1 257.6C738.4 257.6 737.8 257.3 737.3 256.9L692.5 282.8C692.6 283 692.6 283.2 692.6 283.4C692.6 284.8 691.5 286 690 286C688.6 286 687.4 284.9 687.4 283.4C687.4 283.2 687.5 283 687.5 282.8L642.7 256.9C642.4 257.2 642 257.4 641.6 257.5V309.3C642.7 309.6 643.5 310.6 643.5 311.7C643.5 313.1 642.4 314.3 640.9 314.3C640.2 314.3 639.6 314 639.1 313.6L594.3 339.5C594.3 339.7 594.4 339.9 594.4 340.1C594.4 341.5 593.3 342.7 591.8 342.7C591.1 342.7 590.5 342.4 590 342L581.8 346.7L545.2 367.8C545.3 368 545.3 368.2 545.3 368.4C545.3 369.8 544.2 371 542.7 371C541.3 371 540.1 369.9 540.1 368.4C540.1 368.2 540.2 368 540.2 367.8L503.6 346.7L495.4 342C494.9 342.5 494.3 342.7 493.6 342.7C492.2 342.7 491 341.6 491 340.1C491 339.9 491.1 339.7 491.1 339.5L446.3 313.6C445.8 314.1 445.2 314.3 444.5 314.3C443.1 314.3 441.9 313.2 441.9 311.7C441.9 310.5 442.7 309.6 443.8 309.3V257.5C443.4 257.4 443 257.2 442.7 256.9L397.9 282.8C398 283 398 283.2 398 283.4C398 284.8 396.9 286 395.4 286C394 286 392.8 284.9 392.8 283.4C392.8 283.2 392.9 283 392.9 282.8L348.1 256.9C347.6 257.4 347 257.6 346.3 257.6C344.9 257.6 343.7 256.5 343.7 255C343.7 254.8 343.8 254.6 343.8 254.4L299 228.5C298.5 229 297.9 229.2 297.2 229.2C295.8 229.2 294.6 228.1 294.6 226.6C294.6 225.4 295.4 224.5 296.5 224.2V172.4C296.1 172.3 295.7 172.1 295.4 171.8L250.6 197.7C250.7 197.9 250.7 198.1 250.7 198.3C250.7 199.7 249.6 200.9 248.1 200.9C246.7 200.9 245.5 199.8 245.5 198.3C245.5 198.1 245.6 197.9 245.6 197.7L200.8 171.8C200.3 172.3 199.7 172.5 199 172.5C197.6 172.5 196.4 171.4 196.4 169.9C196.4 169.7 196.5 169.5 196.5 169.3L151.7 143.4C151.2 143.9 150.6 144.1 149.9 144.1C148.5 144.1 147.3 143 147.3 141.5C147.3 140.3 148.1 139.4 149.2 139.1V87.3C148.8 87.2 148.4 87 148.1 86.7L103.3 112.6C103.4 112.8 103.4 113 103.4 113.2C103.4 114.6 102.3 115.8 100.8 115.8C99.3999 115.8 98.2 114.7 98.2 113.2C98.2 113 98.2999 112.8 98.2999 112.6L53.4999 86.7C52.9999 87.2 52.4 87.4 51.7 87.4C50.3 87.4 49.1 86.3 49.1 84.8C49.1 84.6 49.2 84.4 49.2 84.2L4.3999 58.3C3.8999 58.8 3.29998 59 2.59998 59C1.19998 59 -0.00012207 57.9 -0.00012207 56.4C-0.00012207 55.2 0.799902 54.3 1.8999 54V2.20001C1.4999 2.00001 0.699951 0.999994 0.699951 -0.100006ZM3.99988 -54.4V-2.60001C4.39988 -2.50001 4.79998 -2.3 5.09998 -2L49.8999 -27.9C49.8999 -28.1 49.7999 -28.3 49.7999 -28.5C49.7999 -29.7 50.6 -30.6 51.7 -30.9V-82.7C51.3 -82.8 50.9 -83 50.6 -83.3L5.79993 -57.4C5.79993 -57.2 5.8999 -57 5.8999 -56.8C5.7999 -55.7 4.99988 -54.7 3.99988 -54.4ZM99.5999 -111.7L54.7 -85.8C54.7 -85.6 54.7999 -85.4 54.7999 -85.2C54.7999 -85 54.7 -84.8 54.7 -84.6L99.4999 -58.7C99.9999 -59.2 100.6 -59.4 101.3 -59.4C102 -59.4 102.6 -59.1 103.1 -58.7L147.9 -84.6C147.9 -84.8 147.8 -85 147.8 -85.2C147.8 -85.4 147.9 -85.6 147.9 -85.8L103 -111.7C102.5 -111.3 101.9 -111 101.2 -111C100.7 -110.9 100.1 -111.2 99.5999 -111.7ZM151.2 -139.4V-87.6C151.6 -87.5 152 -87.3 152.3 -87L197.1 -112.9C197 -113.1 197 -113.3 197 -113.5C197 -114.7 197.8 -115.6 198.9 -115.9V-167.7C198.5 -167.8 198.1 -168 197.8 -168.3L153 -142.4C153 -142.2 153.1 -142 153.1 -141.8C153 -140.7 152.2 -139.7 151.2 -139.4ZM246.8 -196.6L201.9 -170.7C201.9 -170.5 202 -170.3 202 -170.1C202 -169.9 201.9 -169.7 201.9 -169.5L246.7 -143.6C247.2 -144.1 247.8 -144.3 248.5 -144.3C249.2 -144.3 249.8 -144 250.3 -143.6L295.1 -169.5C295.1 -169.7 295 -169.9 295 -170.1C295 -170.3 295.1 -170.5 295.1 -170.7L250.2 -196.6C249.7 -196.2 249.1 -195.9 248.4 -195.9C247.9 -195.9 247.3 -196.2 246.8 -196.6ZM298.4 -224.4V-172.6C298.8 -172.5 299.2 -172.3 299.5 -172L344.3 -197.9C344.2 -198.1 344.2 -198.3 344.2 -198.5C344.2 -199.7 345 -200.6 346.1 -200.9V-252.7C345.7 -252.8 345.3 -253 345 -253.3L300.2 -227.4C300.2 -227.2 300.3 -227 300.3 -226.8C300.2 -225.7 299.4 -224.7 298.4 -224.4ZM445.6 -309.4V-257.6C446 -257.5 446.4 -257.3 446.7 -257L491.5 -282.9C491.4 -283.1 491.4 -283.3 491.4 -283.5C491.4 -284.7 492.2 -285.6 493.3 -285.9V-337.7C492.9 -337.8 492.5 -338 492.2 -338.3L447.3 -312.4C447.3 -312.2 447.4 -312 447.4 -311.8C447.4 -310.6 446.6 -309.7 445.6 -309.4ZM541.2 -366.6L496.4 -340.7C496.4 -340.5 496.5 -340.3 496.5 -340.1C496.5 -339.9 496.4 -339.7 496.4 -339.5L541.2 -313.6C541.7 -314.1 542.3 -314.3 543 -314.3C543.7 -314.3 544.3 -314 544.8 -313.6L589.6 -339.5C589.6 -339.7 589.5 -339.9 589.5 -340.1C589.5 -340.3 589.6 -340.5 589.6 -340.7L544.8 -366.6C544.3 -366.2 543.7 -365.9 543 -365.9C542.3 -365.9 541.7 -366.2 541.2 -366.6ZM638.6 -311.8C638.6 -312 638.7 -312.2 638.7 -312.4L593.9 -338.3C593.6 -338 593.2 -337.8 592.8 -337.7V-285.9C593.9 -285.6 594.7 -284.6 594.7 -283.5C594.7 -283.3 594.6 -283.1 594.6 -282.9L639.3 -257C639.6 -257.3 640 -257.5 640.4 -257.6V-309.4C639.4 -309.7 638.6 -310.6 638.6 -311.8ZM785.8 -226.8C785.8 -227 785.9 -227.2 785.9 -227.4L741.1 -253.3C740.8 -253 740.4 -252.8 740 -252.7V-200.9C741.1 -200.6 741.9 -199.6 741.9 -198.5C741.9 -198.3 741.8 -198.1 741.8 -197.9L786.5 -172C786.8 -172.3 787.2 -172.5 787.6 -172.6V-224.4C786.6 -224.7 785.8 -225.7 785.8 -226.8ZM835.6 -196.6L790.7 -170.7C790.7 -170.5 790.8 -170.3 790.8 -170.1C790.8 -169.9 790.7 -169.7 790.7 -169.5L835.5 -143.6C836 -144.1 836.6 -144.3 837.3 -144.3C838 -144.3 838.6 -144 839.1 -143.6L883.9 -169.5C883.9 -169.7 883.8 -169.9 883.8 -170.1C883.8 -170.3 883.9 -170.5 883.9 -170.7L839 -196.6C838.5 -196.2 837.9 -195.9 837.2 -195.9C836.7 -195.9 836.1 -196.2 835.6 -196.6ZM933 -141.8C933 -142 933.1 -142.2 933.1 -142.4L888.3 -168.3C888 -168 887.6 -167.8 887.2 -167.7V-115.9C888.3 -115.6 889.1 -114.6 889.1 -113.5C889.1 -113.3 889 -113.1 889 -112.9L933.7 -87C934 -87.3 934.4 -87.5 934.8 -87.6V-139.4C933.8 -139.7 933 -140.7 933 -141.8ZM982.8 -111.7L937.9 -85.8C937.9 -85.6 938 -85.4 938 -85.2C938 -85 937.9 -84.8 937.9 -84.6L982.8 -58.7C983.3 -59.1 983.9 -59.4 984.6 -59.4C985.3 -59.4 985.9 -59.1 986.4 -58.7L1031.2 -84.6C1031.2 -84.8 1031.1 -85 1031.1 -85.2C1031.1 -85.4 1031.2 -85.6 1031.2 -85.8L986.3 -111.7C985.8 -111.3 985.2 -111 984.5 -111C983.9 -110.9 983.3 -111.2 982.8 -111.7ZM1080.2 -56.9C1080.2 -57.1 1080.3 -57.3 1080.3 -57.5L1035.5 -83.4C1035.2 -83.1 1034.8 -82.9 1034.4 -82.8V-31C1035.5 -30.7 1036.3 -29.8 1036.3 -28.6C1036.3 -28.4 1036.2 -28.2 1036.2 -28L1039.3 -26.2L1080.9 -2C1081.2 -2.3 1081.6 -2.50001 1082 -2.60001V-31.6V-54.4C1081 -54.7 1080.2 -55.7 1080.2 -56.9ZM1082 54.1V2.29999C1081.6 2.19999 1081.2 2.00001 1080.9 1.70001L1036.1 27.6C1036.1 27.8 1036.2 28 1036.2 28.2C1036.2 29.4 1035.4 30.3 1034.3 30.6V82.4C1034.7 82.5 1035.1 82.7 1035.4 83L1080.3 57.1C1080.3 56.9 1080.2 56.7 1080.2 56.5C1080.2 55.3 1081 54.4 1082 54.1ZM986.4 111.3L1031.3 85.4C1031.3 85.2 1031.2 85 1031.2 84.8C1031.2 84.6 1031.3 84.4 1031.3 84.2L986.5 58.3C986 58.8 985.4 59 984.7 59C984 59 983.4 58.7 982.9 58.3L938.1 84.2C938.1 84.4 938.2 84.6 938.2 84.8C938.2 85 938.1 85.2 938.1 85.4L983 111.3C983.5 110.9 984.1 110.6 984.8 110.6C985.3 110.6 985.9 110.9 986.4 111.3ZM934.9 139.1V87.3C934.5 87.2 934.1 87 933.8 86.7L889 112.6C889.1 112.8 889.1 113 889.1 113.2C889.1 114.4 888.3 115.3 887.2 115.6V167.4C887.6 167.5 888 167.7 888.3 168L933.1 142.1C933.1 141.9 933 141.7 933 141.5C933 140.3 933.8 139.4 934.9 139.1ZM839.2 196.3L884.1 170.4C884.1 170.2 884 170 884 169.8C884 169.6 884.1 169.4 884.1 169.2L839.3 143.3C838.8 143.8 838.2 144 837.5 144C836.8 144 836.2 143.7 835.7 143.3L790.9 169.2C790.9 169.4 791 169.6 791 169.8C791 170 790.9 170.2 790.9 170.4L835.8 196.3C836.3 195.9 836.9 195.6 837.6 195.6C838.1 195.6 838.7 195.9 839.2 196.3ZM787.7 224.1V172.3C787.3 172.2 786.9 172 786.6 171.7L741.8 197.6C741.9 197.8 741.9 198 741.9 198.2C741.9 199.4 741.1 200.3 740 200.6V252.4C740.4 252.5 740.8 252.7 741.1 253L785.9 227.1C785.9 226.9 785.8 226.7 785.8 226.5C785.8 225.3 786.6 224.4 787.7 224.1ZM640.5 309V257.2C640.1 257.1 639.7 256.9 639.4 256.6L594.6 282.5C594.7 282.7 594.7 282.9 594.7 283.1C594.7 284.3 593.9 285.2 592.8 285.5V337.3C593.2 337.4 593.6 337.6 593.9 337.9L638.7 312C638.7 311.8 638.6 311.6 638.6 311.4C638.6 310.3 639.4 309.4 640.5 309ZM544.8 366.3L589.6 340.4C589.6 340.2 589.5 340 589.5 339.8C589.5 339.6 589.6 339.4 589.6 339.2L544.8 313.3C544.3 313.8 543.7 314 543 314C542.3 314 541.7 313.7 541.2 313.3L496.4 339.2C496.4 339.4 496.5 339.6 496.5 339.8C496.5 340 496.4 340.2 496.4 340.4L541.2 366.3C541.7 365.9 542.3 365.6 543 365.6C543.7 365.5 544.3 365.8 544.8 366.3ZM447.4 311.5C447.4 311.7 447.3 311.9 447.3 312.1L492.2 338C492.5 337.7 492.9 337.5 493.3 337.4V285.6C492.2 285.3 491.4 284.3 491.4 283.2C491.4 283 491.5 282.8 491.5 282.6L446.7 256.7C446.4 257 446 257.2 445.6 257.3V309C446.6 309.4 447.4 310.3 447.4 311.5ZM300.2 226.5C300.2 226.7 300.1 226.9 300.1 227.1L345 253C345.3 252.7 345.7 252.5 346.1 252.4V200.6C345 200.3 344.2 199.3 344.2 198.2C344.2 198 344.3 197.8 344.3 197.6L299.5 171.7C299.2 172 298.8 172.2 298.4 172.3V224.1C299.4 224.4 300.2 225.3 300.2 226.5ZM250.4 196.3L295.3 170.4C295.3 170.2 295.2 170 295.2 169.8C295.2 169.6 295.3 169.4 295.3 169.2L250.5 143.3C250 143.8 249.4 144 248.7 144C248 144 247.4 143.7 246.9 143.3L202.1 169.2C202.1 169.4 202.2 169.6 202.2 169.8C202.2 170 202.1 170.2 202.1 170.4L247 196.3C247.5 195.9 248.1 195.6 248.8 195.6C249.3 195.6 249.9 195.9 250.4 196.3ZM153 141.5C153 141.7 152.9 141.9 152.9 142.1L197.8 168C198.1 167.7 198.5 167.5 198.9 167.4V115.6C197.8 115.3 197 114.3 197 113.2C197 113 197.1 112.8 197.1 112.6L152.3 86.7C152 87 151.6 87.2 151.2 87.3V139.1C152.2 139.4 153 140.3 153 141.5ZM103.2 111.3L148.1 85.4C148.1 85.2 148 85 148 84.8C148 84.6 148.1 84.4 148.1 84.2L103.2 58.3C102.7 58.7 102.1 59 101.4 59C100.7 59 100.1 58.7 99.5999 58.3L54.7999 84.2C54.7999 84.4 54.8999 84.6 54.8999 84.8C54.8999 85 54.7999 85.2 54.7999 85.4L99.7 111.3C100.2 110.9 100.8 110.6 101.5 110.6C102.1 110.6 102.7 110.9 103.2 111.3ZM5.79993 56.5C5.79993 56.7 5.69995 56.9 5.69995 57.1L50.4999 83C50.7999 82.7 51.2 82.5 51.6 82.4V30.6C50.5 30.3 49.7 29.4 49.7 28.2C49.7 28 49.7999 27.8 49.7999 27.6L46.3999 25.6L4.99988 1.70001C4.69988 2.00001 4.2999 2.19999 3.8999 2.29999V31.3V54.1C4.9999 54.4 5.79993 55.3 5.79993 56.5ZM300.1 -170.7C300.1 -170.5 300.2 -170.3 300.2 -170.1C300.2 -169.9 300.1 -169.7 300.1 -169.5L323.5 -156L345 -143.6C345.5 -144.1 346.1 -144.3 346.8 -144.3C347.5 -144.3 348.1 -144 348.6 -143.6L393.4 -169.5C393.4 -169.7 393.3 -169.9 393.3 -170.1C393.3 -170.3 393.4 -170.5 393.4 -170.7L365 -187.1L348.6 -196.6C348.1 -196.2 347.5 -195.9 346.8 -195.9C346.1 -195.9 345.5 -196.2 345 -196.6L300.1 -170.7ZM722.6 -188L692.7 -170.7C692.7 -170.5 692.8 -170.3 692.8 -170.1C692.8 -169.9 692.7 -169.7 692.7 -169.5L737.5 -143.6C738 -144.1 738.6 -144.3 739.3 -144.3C740 -144.3 740.6 -144 741.1 -143.6L761.6 -155.4L785.9 -169.5C785.9 -169.7 785.8 -169.9 785.8 -170.1C785.8 -170.3 785.9 -170.5 785.9 -170.7L741 -196.6C740.5 -196.2 739.9 -195.9 739.2 -195.9C738.5 -195.9 737.9 -196.2 737.4 -196.6L722.6 -188ZM785.9 170.4C785.9 170.2 785.8 170 785.8 169.8C785.8 169.6 785.9 169.4 785.9 169.2L763.2 156.1L741 143.3C740.5 143.8 739.9 144 739.2 144C738.5 144 737.9 143.7 737.4 143.3L692.6 169.2C692.6 169.4 692.7 169.6 692.7 169.8C692.7 170 692.6 170.2 692.6 170.4L722.5 187.7L737.4 196.3C737.9 195.9 738.5 195.6 739.2 195.6C739.9 195.6 740.5 195.9 741 196.3L785.9 170.4ZM364.9 186.8L393.3 170.4C393.3 170.2 393.2 170 393.2 169.8C393.2 169.6 393.3 169.4 393.3 169.2L348.5 143.3C348 143.8 347.4 144 346.7 144C346 144 345.4 143.7 344.9 143.3L321.9 156.6L300.1 169.2C300.1 169.4 300.2 169.6 300.2 169.8C300.2 170 300.1 170.2 300.1 170.4L345 196.3C345.5 195.9 346.1 195.6 346.8 195.6C347.5 195.6 348.1 195.9 348.6 196.3L364.9 186.8ZM445.6 -252.7V-200.9C446.7 -200.6 447.5 -199.6 447.5 -198.5C447.5 -198.3 447.4 -198.1 447.4 -197.9L467.5 -186.3L492.1 -172C492.4 -172.3 492.8 -172.5 493.2 -172.6V-224.4C492.1 -224.7 491.3 -225.7 491.3 -226.8C491.3 -227 491.4 -227.2 491.4 -227.4L474.4 -237.2L446.5 -253.3C446.4 -253 446 -252.8 445.6 -252.7ZM611.5 -237.2L594.5 -227.4C594.5 -227.2 594.6 -227 594.6 -226.8C594.6 -225.6 593.8 -224.7 592.7 -224.4V-172.6C593.1 -172.5 593.5 -172.3 593.8 -172L620.5 -187.4L638.6 -197.9C638.5 -198.1 638.5 -198.3 638.5 -198.5C638.5 -199.7 639.3 -200.6 640.4 -200.9V-252.7C640 -252.8 639.6 -253 639.3 -253.3L611.5 -237.2ZM640.5 252.4V200.6C639.4 200.3 638.6 199.3 638.6 198.2C638.6 198 638.7 197.8 638.7 197.6L619.1 186.3L593.9 171.7C593.6 172 593.2 172.2 592.8 172.3V224.1C593.9 224.4 594.7 225.4 594.7 226.5C594.7 226.7 594.6 226.9 594.6 227.1L611.6 236.9L639.4 253C639.7 252.7 640 252.5 640.5 252.4ZM474.5 236.9L491.5 227.1C491.5 226.9 491.4 226.7 491.4 226.5C491.4 225.3 492.2 224.4 493.3 224.1V172.3C492.9 172.2 492.5 172 492.2 171.7L469.1 185.1L447.4 197.6C447.5 197.8 447.5 198 447.5 198.2C447.5 199.4 446.7 200.3 445.6 200.6V252.4C446 252.5 446.4 252.7 446.7 253L474.5 236.9ZM5.79993 -0.100006C5.79993 0.0999939 5.69995 0.3 5.69995 0.5L50.4999 26.4C50.9999 25.9 51.5999 25.7 52.2999 25.7C52.9999 25.7 53.6 26 54.1 26.4L98.8999 0.5C98.8999 0.3 98.7999 0.0999939 98.7999 -0.100006C98.7999 -0.300006 98.8999 -0.500012 98.8999 -0.700012L54.1 -26.6C53.6 -26.1 52.9999 -25.9 52.2999 -25.9C51.5999 -25.9 50.9999 -26.2 50.4999 -26.6L5.69995 -0.700012C5.79995 -0.600012 5.79993 -0.400006 5.79993 -0.100006C5.79993 -0.200006 5.79993 -0.200006 5.79993 -0.100006C5.79993 -0.200006 5.79993 -0.200006 5.79993 -0.100006C5.79993 -0.200006 5.79993 -0.200006 5.79993 -0.100006C5.79993 -0.200006 5.79993 -0.200006 5.79993 -0.100006C5.79993 -0.200006 5.79993 -0.200006 5.79993 -0.100006C5.79993 -0.200006 5.79993 -0.200006 5.79993 -0.100006ZM151.2 -82.7V-30.9C152.3 -30.6 153.1 -29.7 153.1 -28.5C153.1 -28.3 153 -28.1 153 -27.9L164.3 -21.4L179.5 -12.6L197.7 -2C198 -2.3 198.4 -2.50001 198.8 -2.60001V-54.4C197.7 -54.7 196.9 -55.7 196.9 -56.8C196.9 -57 197 -57.2 197 -57.4L152.2 -83.3C152 -83 151.6 -82.9 151.2 -82.7ZM443.1 -196.6L398.2 -170.7C398.2 -170.5 398.3 -170.3 398.3 -170.1C398.3 -169.9 398.2 -169.7 398.2 -169.5L420.6 -156.5L443 -143.6C443.5 -144.1 444.1 -144.3 444.8 -144.3C445.5 -144.3 446.1 -144 446.6 -143.6L491.4 -169.5C491.4 -169.7 491.3 -169.9 491.3 -170.1C491.3 -170.3 491.4 -170.5 491.4 -170.7L463.5 -186.8L446.6 -196.6C446.1 -196.2 445.5 -195.9 444.8 -195.9C444.2 -195.9 443.6 -196.2 443.1 -196.6ZM622.4 -186.9L594.5 -170.8C594.5 -170.6 594.6 -170.4 594.6 -170.2C594.6 -170 594.5 -169.8 594.5 -169.6L639.3 -143.7C639.8 -144.2 640.4 -144.4 641.1 -144.4C641.8 -144.4 642.4 -144.1 642.9 -143.7L666.3 -157.2L687.8 -169.6C687.8 -169.8 687.7 -170 687.7 -170.2C687.7 -170.4 687.8 -170.6 687.8 -170.8L642.9 -196.7C642.4 -196.3 641.8 -196 641.1 -196C640.4 -196 639.8 -196.3 639.3 -196.7L622.4 -186.9ZM934.9 82.4V30.6C933.8 30.3 933 29.4 933 28.2C933 28 933.1 27.8 933.1 27.6L921.8 21.1L905.8 11.9L888.3 1.79999C888 2.09999 887.6 2.29999 887.2 2.39999V54.2C888.3 54.5 889.1 55.5 889.1 56.6C889.1 56.8 889 57 889 57.2L933.8 83C934.1 82.7 934.4 82.5 934.9 82.4ZM642.9 196.3L687.8 170.4C687.8 170.2 687.7 170 687.7 169.8C687.7 169.6 687.8 169.4 687.8 169.2L667.8 157.7L642.9 143.3C642.4 143.8 641.8 144 641.1 144C640.4 144 639.8 143.7 639.3 143.3L594.5 169.2C594.5 169.4 594.6 169.6 594.6 169.8C594.6 170 594.5 170.2 594.5 170.4L622.4 186.5L639.3 196.3C639.8 195.9 640.4 195.6 641.1 195.6C641.8 195.6 642.5 195.9 642.9 196.3ZM463.6 186.5L491.5 170.4C491.5 170.2 491.4 170 491.4 169.8C491.4 169.6 491.5 169.4 491.5 169.2L446.7 143.3C446.2 143.8 445.6 144 444.9 144C444.2 144 443.6 143.7 443.1 143.3L419.1 157.2L398.3 169.2C398.3 169.4 398.4 169.6 398.4 169.8C398.4 170 398.3 170.2 398.3 170.4L443.2 196.3C443.7 195.9 444.3 195.6 445 195.6C445.7 195.6 446.3 195.9 446.8 196.3L463.6 186.5ZM347.4 -139.4V-87.6C347.8 -87.5 348.2 -87.3 348.5 -87L393.3 -112.9C393.2 -113.1 393.2 -113.3 393.2 -113.5C393.2 -114.7 394 -115.6 395.1 -115.9V-167.7C394.7 -167.8 394.3 -168 394 -168.3L349.2 -142.4C349.2 -142.2 349.3 -142 349.3 -141.8C349.3 -140.7 348.5 -139.7 347.4 -139.4ZM494.6 -224.4V-172.6C495 -172.5 495.4 -172.3 495.7 -172L503.9 -176.7L517.9 -184.8L540.5 -197.8C540.4 -198 540.4 -198.2 540.4 -198.4C540.4 -199.6 541.2 -200.5 542.3 -200.8V-252.6C541.9 -252.7 541.5 -252.9 541.2 -253.2L530.9 -247.3L496.4 -227.4C496.4 -227.2 496.5 -227 496.5 -226.8C496.5 -225.7 495.7 -224.7 494.6 -224.4ZM736.7 -141.8C736.7 -142 736.8 -142.2 736.8 -142.4L692 -168.3C691.7 -168 691.3 -167.8 690.9 -167.7V-115.9C692 -115.6 692.8 -114.7 692.8 -113.5C692.8 -113.3 692.7 -113.1 692.7 -112.9L737.5 -87C737.8 -87.3 738.2 -87.5 738.6 -87.6V-139.4C737.5 -139.7 736.7 -140.7 736.7 -141.8ZM738.6 139.1V87.3C738.2 87.2 737.8 87 737.5 86.7L692.7 112.6C692.8 112.8 692.8 113 692.8 113.2C692.8 114.4 692 115.3 690.9 115.6V167.4C691.3 167.5 691.7 167.7 692 168L736.8 142.1C736.8 141.9 736.7 141.7 736.7 141.5C736.7 140.3 737.5 139.4 738.6 139.1ZM591.4 224.1V172.3C591 172.2 590.6 172 590.3 171.7L582.1 176.4L571.6 182.5L545.5 197.6C545.6 197.8 545.6 198 545.6 198.2C545.6 199.4 544.8 200.3 543.7 200.6V252.4C544.1 252.5 544.5 252.7 544.8 253L552.9 248.3L589.7 227.1C589.7 226.9 589.6 226.7 589.6 226.5C589.5 225.3 590.3 224.4 591.4 224.1ZM349.3 141.5C349.3 141.7 349.2 141.9 349.2 142.1L394 168C394.3 167.7 394.7 167.5 395.1 167.4V115.6C394 115.3 393.2 114.4 393.2 113.2C393.2 113 393.3 112.8 393.3 112.6L348.5 86.7C348.2 87 347.8 87.2 347.4 87.3V139.1C348.5 139.4 349.3 140.3 349.3 141.5ZM104 -0.100006C104 0.0999939 103.9 0.3 103.9 0.5L148.7 26.4C149.2 25.9 149.8 25.7 150.5 25.7C151.2 25.7 151.8 26 152.3 26.4L197.1 0.5C197.1 0.3 197 0.0999939 197 -0.100006C197 -0.300006 197.1 -0.500012 197.1 -0.700012L152.3 -26.6C151.8 -26.1 151.2 -25.9 150.5 -25.9C149.8 -25.9 149.2 -26.2 148.7 -26.6L103.9 -0.700012C103.9 -0.600012 104 -0.400006 104 -0.100006C104 -0.200006 104 -0.200006 104 -0.100006C104 -0.200006 104 -0.200006 104 -0.100006C104 -0.200006 104 -0.200006 104 -0.100006C104 -0.200006 104 -0.200006 104 -0.100006C104 -0.200006 104 -0.200006 104 -0.100006C104 -0.200006 104 -0.200006 104 -0.100006ZM445.6 -139.4V-87.6C446 -87.5 446.4 -87.3 446.7 -87L491.5 -112.9C491.4 -113.1 491.4 -113.3 491.4 -113.5C491.4 -114.7 492.2 -115.6 493.3 -115.9V-167.7C492.9 -167.8 492.5 -168 492.2 -168.3L447.4 -142.4C447.4 -142.2 447.5 -142 447.5 -141.8C447.4 -140.7 446.6 -139.7 445.6 -139.4ZM638.6 -141.8C638.6 -142 638.7 -142.2 638.7 -142.4L593.9 -168.3C593.6 -168 593.2 -167.8 592.8 -167.7V-115.9C593.9 -115.6 594.7 -114.6 594.7 -113.5C594.7 -113.3 594.6 -113.1 594.6 -112.9L639.3 -87C639.6 -87.3 640 -87.5 640.4 -87.6V-139.4C639.4 -139.7 638.6 -140.7 638.6 -141.8ZM640.5 139.1V87.3C640.1 87.2 639.7 87 639.4 86.7L594.6 112.6C594.7 112.8 594.7 113 594.7 113.2C594.7 114.4 593.9 115.3 592.8 115.6V167.4C593.2 167.5 593.6 167.7 593.9 168L638.7 142.1C638.7 141.9 638.6 141.7 638.6 141.5C638.6 140.3 639.4 139.4 640.5 139.1ZM447.4 141.5C447.4 141.7 447.3 141.9 447.3 142.1L492.2 168C492.5 167.7 492.9 167.5 493.3 167.4V115.6C492.2 115.3 491.4 114.3 491.4 113.2C491.4 113 491.5 112.8 491.5 112.6L446.7 86.7C446.4 87 446 87.2 445.6 87.3V139.1C446.6 139.4 447.4 140.3 447.4 141.5ZM202.1 -0.100006C202.1 0.0999939 202 0.3 202 0.5L246.8 26.4C247.3 25.9 247.9 25.7 248.6 25.7C249.3 25.7 249.9 26 250.4 26.4L278.5 10.2L295.2 0.600006C295.2 0.400006 295.1 0.2 295.1 0C295.1 -0.2 295.2 -0.400006 295.2 -0.600006L250.4 -26.5C249.9 -26 249.3 -25.8 248.6 -25.8C247.9 -25.8 247.3 -26.1 246.8 -26.5L212.7 -6.79999L202 -0.600006C202 -0.600006 202.1 -0.400006 202.1 -0.100006C202.1 -0.200006 202.1 -0.200006 202.1 -0.100006C202.1 -0.200006 202.1 -0.200006 202.1 -0.100006C202.1 -0.200006 202.1 -0.200006 202.1 -0.100006C202.1 -0.200006 202.1 -0.200006 202.1 -0.100006C202.1 -0.200006 202.1 -0.200006 202.1 -0.100006C202.1 -0.200006 202.1 -0.200006 202.1 -0.100006ZM530.5 -190.4L496.4 -170.7C496.4 -170.5 496.5 -170.3 496.5 -170.1C496.5 -169.9 496.4 -169.7 496.4 -169.5L520.7 -155.5L541.2 -143.6C541.7 -144.1 542.3 -144.3 543 -144.3C543.7 -144.3 544.3 -144 544.8 -143.6L565.3 -155.5L589.6 -169.5C589.6 -169.7 589.5 -169.9 589.5 -170.1C589.5 -170.3 589.6 -170.5 589.6 -170.7L555.8 -190.2L544.8 -196.6C544.3 -196.2 543.7 -195.9 543 -195.9C542.3 -195.9 541.7 -196.2 541.2 -196.6L530.5 -190.4ZM883.9 -0.200012C883.9 -0.400012 884 -0.599988 884 -0.799988L839.2 -26.7C838.7 -26.2 838.1 -26 837.4 -26C836.7 -26 836.1 -26.3 835.6 -26.7L806.8 -10.1L790.7 -0.799988C790.7 -0.599988 790.8 -0.400012 790.8 -0.200012C790.8 -1.22041e-05 790.7 0.199994 790.7 0.399994L835.5 26.3C836 25.8 836.6 25.6 837.3 25.6C838 25.6 838.6 25.9 839.1 26.3L872.6 7L884.1 0.399994C884 0.199994 883.9 0.0999878 883.9 -0.200012ZM557.2 189.1L589.6 170.4C589.6 170.2 589.5 170 589.5 169.8C589.5 169.6 589.6 169.4 589.6 169.2L566.9 156.1L544.7 143.3C544.2 143.8 543.6 144 542.9 144C542.2 144 541.6 143.7 541.1 143.3L518.9 156.1L496.2 169.2C496.2 169.4 496.3 169.6 496.3 169.8C496.3 170 496.2 170.2 496.2 170.4L528.9 189.3L541 196.3C541.5 195.9 542.1 195.6 542.8 195.6C543.5 195.6 544.1 195.9 544.6 196.3L557.2 189.1ZM785.8 -0.200012C785.8 -0.400012 785.9 -0.599988 785.9 -0.799988L741.1 -26.7C740.6 -26.2 740 -26 739.3 -26C738.6 -26 738 -26.3 737.5 -26.7L704.7 -7.79999L692.6 -0.799988C692.6 -0.599988 692.7 -0.400012 692.7 -0.200012C692.7 -1.22041e-05 692.6 0.199994 692.6 0.399994L737.4 26.3C737.9 25.8 738.5 25.6 739.2 25.6C739.9 25.6 740.5 25.9 741 26.3L774.3 7.20001L785.9 0.5C785.9 0.2 785.8 0.0999878 785.8 -0.200012ZM687.7 -0.200012C687.7 -0.400012 687.8 -0.599988 687.8 -0.799988L643 -26.7C642.5 -26.2 641.9 -26 641.2 -26C640.5 -26 639.9 -26.3 639.4 -26.7L606.2 -7.5L594.6 -0.799988C594.6 -0.599988 594.7 -0.400012 594.7 -0.200012C594.7 -1.22041e-05 594.6 0.199994 594.6 0.399994L639.4 26.3C639.9 25.8 640.5 25.6 641.2 25.6C641.9 25.6 642.5 25.9 643 26.3L672.2 9.39999L687.8 0.399994C687.7 0.199994 687.7 0.0999878 687.7 -0.200012ZM498.3 -1.89999L496.4 -0.799988C496.4 -0.599988 496.5 -0.400012 496.5 -0.200012C496.5 -1.22041e-05 496.4 0.199994 496.4 0.399994L504 4.79999L518.8 13.4L541.2 26.3C541.7 25.8 542.3 25.6 543 25.6C543.7 25.6 544.3 25.9 544.8 26.3L560.1 17.5L572.2 10.5L582.1 4.79999L587.7 1.60001L589.7 0.399994C589.7 0.199994 589.6 -1.22041e-05 589.6 -0.200012C589.6 -0.400012 589.7 -0.599988 589.7 -0.799988L582.1 -5.20001L567.3 -13.8L544.9 -26.7C544.4 -26.2 543.8 -26 543.1 -26C542.4 -26 541.8 -26.3 541.3 -26.7L525.7 -17.7L514.1 -11L504 -5.20001L498.3 -1.89999ZM494.6 31.2V54C495.7 54.3 496.5 55.2 496.5 56.4C496.5 56.6 496.4 56.8 496.4 57L522 71.8L541.2 83C541.5 82.7 541.9 82.5 542.3 82.4V30.6C541.2 30.3 540.4 29.4 540.4 28.2C540.4 28 540.5 27.8 540.5 27.6L534.9 24.4L519.9 15.8L503.8 6.5L495.6 1.79999C495.3 2.09999 494.9 2.29999 494.5 2.39999L494.6 31.2ZM585.7 59.4L589.6 57.1C589.6 56.9 589.5 56.7 589.5 56.5C589.5 55.3 590.3 54.4 591.4 54.1V2.29999C591 2.19999 590.6 2.00001 590.3 1.70001L582.1 6.39999L566 15.7L545.5 27.6C545.5 27.8 545.6 28 545.6 28.2C545.6 29.4 544.8 30.3 543.7 30.6V82.4C544.1 82.5 544.5 82.7 544.8 83L562.7 72.7L567.1 70.1L585.7 59.4ZM591.4 -31.6V-54.4C590.3 -54.7 589.5 -55.6 589.5 -56.8C589.5 -57 589.6 -57.2 589.6 -57.4L564 -72.2L544.7 -83.3C544.4 -83 544 -82.8 543.6 -82.7V-30.9C544.7 -30.6 545.5 -29.7 545.5 -28.5C545.5 -28.3 545.4 -28.1 545.4 -27.9L550.9 -24.7L566 -16L582.1 -6.70001L590.3 -2C590.6 -2.3 591 -2.50001 591.4 -2.60001V-31.6ZM500.6 -59.9L496.4 -57.5C496.4 -57.3 496.5 -57.1 496.5 -56.9C496.5 -55.7 495.7 -54.8 494.6 -54.5V-2.70001C495 -2.60001 495.4 -2.40001 495.7 -2.10001L503.9 -6.79999L520 -16.1L540.5 -28C540.5 -28.2 540.4 -28.4 540.4 -28.6C540.4 -29.8 541.2 -30.7 542.3 -31V-82.8C541.9 -82.9 541.5 -83.1 541.2 -83.4L523.3 -73L517.9 -69.9L500.6 -59.9ZM413.4 -9.5L398.3 -0.799988C398.3 -0.599988 398.4 -0.400012 398.4 -0.200012C398.4 -1.22041e-05 398.3 0.199994 398.3 0.399994L443.1 26.3C443.6 25.8 444.2 25.6 444.9 25.6C445.6 25.6 446.2 25.9 446.7 26.3L479.2 7.60001L491.6 0.5C491.6 0.3 491.5 0.0999939 491.5 -0.100006C491.5 -0.300006 491.6 -0.500012 491.6 -0.700012L446.8 -26.6C446.3 -26.1 445.7 -25.9 445 -25.9C444.3 -25.9 443.7 -26.2 443.2 -26.6L413.4 -9.5ZM447.4 84.8C447.4 85 447.3 85.2 447.3 85.4L492.2 111.3C492.7 110.9 493.3 110.6 494 110.6C494.7 110.6 495.3 110.9 495.8 111.3L504.1 106.5L535.3 88.5L540.6 85.4C540.6 85.2 540.5 85 540.5 84.8C540.5 84.6 540.6 84.4 540.6 84.2L537.5 82.4L512.1 67.8L508.2 65.6L503.9 63.1L497.5 59.4L495.6 58.3C495.1 58.8 494.5 59 493.8 59C493.1 59 492.5 58.7 492 58.3L478.7 66L447.1 84.2C447.4 84.4 447.4 84.6 447.4 84.8ZM495.7 168L503.9 163.2L540.5 142.1C540.5 141.9 540.4 141.7 540.4 141.5C540.4 140.3 541.2 139.4 542.3 139.1V87.3C541.9 87.2 541.5 87 541.2 86.7L522.5 97.5L496.3 112.6C496.4 112.8 496.4 113 496.4 113.2C496.4 114.4 495.6 115.3 494.5 115.6V167.4C495.1 167.5 495.4 167.7 495.7 168ZM590.3 168C590.6 167.7 591 167.5 591.4 167.4V115.6C590.3 115.3 589.5 114.3 589.5 113.2C589.5 113 589.6 112.8 589.6 112.6L563.4 97.5L544.7 86.7C544.4 87 544 87.2 543.6 87.3V139.1C544.7 139.4 545.5 140.4 545.5 141.5C545.5 141.7 545.4 141.9 545.4 142.1L582 163.2L590.3 168ZM593.9 111.3L638.8 85.4C638.8 85.2 638.7 85 638.7 84.8C638.7 84.6 638.8 84.4 638.8 84.2L617.7 72L593.9 58.3C593.4 58.8 592.8 59 592.1 59C591.4 59 590.8 58.7 590.3 58.3L588.9 59.1L582 63.1L577.7 65.6L545.4 84.3C545.4 84.5 545.5 84.7 545.5 84.9C545.5 85.1 545.4 85.3 545.4 85.5L551.1 88.8L582 106.6L590.3 111.4C590.8 111 591.4 110.7 592.1 110.7C592.8 110.7 593.4 110.9 593.9 111.3ZM640.5 82.4V30.6C639.4 30.3 638.6 29.4 638.6 28.2C638.6 28 638.7 27.8 638.7 27.6L631.8 23.6L614.4 13.5L593.9 1.60001C593.6 1.90001 593.2 2.10001 592.8 2.20001V31.2V54C593.9 54.3 594.7 55.2 594.7 56.4C594.7 56.6 594.6 56.8 594.6 57L604.3 62.6L639.4 83C639.7 82.7 640 82.5 640.5 82.4ZM638.6 -85.2C638.6 -85.4 638.7 -85.6 638.7 -85.8L593.8 -111.7C593.3 -111.3 592.7 -111 592 -111C591.3 -111 590.7 -111.3 590.2 -111.7L581.9 -106.9L550.1 -88.6L545.3 -85.8C545.3 -85.6 545.4 -85.4 545.4 -85.2C545.4 -85 545.3 -84.8 545.3 -84.6L548.6 -82.7L573.8 -68.2L577.7 -65.9L581.9 -63.4L588.4 -59.7L590.2 -58.7C590.7 -59.2 591.3 -59.4 592 -59.4C592.7 -59.4 593.3 -59.1 593.8 -58.7L606.4 -65.9L638.7 -84.5C638.7 -84.8 638.6 -84.9 638.6 -85.2ZM590.3 -168.3L582.1 -163.5L545.5 -142.4C545.5 -142.2 545.6 -142 545.6 -141.8C545.6 -140.6 544.8 -139.7 543.7 -139.4V-87.6C544.1 -87.5 544.5 -87.3 544.8 -87L563.5 -97.8L589.7 -112.9C589.6 -113.1 589.6 -113.3 589.6 -113.5C589.6 -114.7 590.4 -115.6 591.5 -115.9V-167.7C591 -167.8 590.6 -168 590.3 -168.3ZM495.7 -168.3C495.4 -168 495 -167.8 494.6 -167.7V-115.9C495.7 -115.6 496.5 -114.6 496.5 -113.5C496.5 -113.3 496.4 -113.1 496.4 -112.9L522.6 -97.8L541.2 -87C541.5 -87.3 541.9 -87.5 542.3 -87.6V-139.4C541.2 -139.7 540.4 -140.7 540.4 -141.8C540.4 -142 540.5 -142.2 540.5 -142.4L503.9 -163.5L495.7 -168.3ZM492.2 -111.7L447.3 -85.8C447.3 -85.6 447.4 -85.4 447.4 -85.2C447.4 -85 447.3 -84.8 447.3 -84.6L470 -71.5L492.1 -58.7C492.6 -59.2 493.2 -59.4 493.9 -59.4C494.6 -59.4 495.2 -59.1 495.7 -58.7L497 -59.4L504 -63.4L508.2 -65.8L540.6 -84.5C540.6 -84.7 540.5 -84.9 540.5 -85.1C540.5 -85.3 540.6 -85.5 540.6 -85.7L536.1 -88.3L504 -106.8L495.7 -111.6C495.2 -111.2 494.6 -110.9 493.9 -110.9C493.3 -110.9 492.6 -111.2 492.2 -111.7ZM445.6 -82.7V-30.9C446.7 -30.6 447.5 -29.7 447.5 -28.5C447.5 -28.3 447.4 -28.1 447.4 -27.9L454.2 -24L470.8 -14.4L492.1 -2C492.4 -2.3 492.8 -2.50001 493.2 -2.60001V-31.6V-54.4C492.1 -54.7 491.3 -55.6 491.3 -56.8C491.3 -57 491.4 -57.2 491.4 -57.4L481.9 -62.9L446.6 -83.3C446.4 -83 446 -82.9 445.6 -82.7ZM445.6 31.2V82.4C446 82.5 446.4 82.7 446.7 83L491.5 57.1C491.5 56.9 491.4 56.7 491.4 56.5C491.4 55.3 492.2 54.4 493.3 54.1V2.29999C492.9 2.19999 492.5 2.00001 492.2 1.70001L472.8 12.9L447.4 27.6C447.4 27.8 447.5 28 447.5 28.2C447.5 29.4 446.7 30.3 445.6 30.6V31.2ZM640.5 -31.6V-82.8C640.1 -82.9 639.7 -83.1 639.4 -83.4L594.6 -57.5C594.6 -57.3 594.7 -57.1 594.7 -56.9C594.7 -55.7 593.9 -54.8 592.8 -54.5V-2.70001C593.2 -2.60001 593.6 -2.40001 593.9 -2.10001L616.7 -15.2L638.8 -27.9C638.8 -28.1 638.7 -28.3 638.7 -28.5C638.7 -29.7 639.5 -30.6 640.6 -30.9L640.5 -31.6ZM311.1 -7.10001L300.1 -0.700012C300.1 -0.500012 300.2 -0.300006 300.2 -0.100006C300.2 0.0999939 300.1 0.3 300.1 0.5L344.9 26.4C345.4 25.9 346 25.7 346.7 25.7C347.4 25.7 348 26 348.5 26.4L380.6 7.89999L393.3 0.600006C393.3 0.400006 393.2 0.2 393.2 0C393.2 -0.2 393.3 -0.400006 393.3 -0.600006L348.5 -26.5C348 -26 347.4 -25.8 346.7 -25.8C346 -25.8 345.4 -26.1 344.9 -26.5L311.1 -7.10001ZM642.9 83L687.7 57.1C687.7 56.9 687.6 56.7 687.6 56.5C687.6 55.3 688.4 54.4 689.5 54.1V2.29999C689.1 2.19999 688.7 2.00001 688.4 1.70001L643.6 27.6C643.6 27.8 643.7 28 643.7 28.2C643.7 29.4 642.9 30.3 641.8 30.6V82.4C642.3 82.5 642.6 82.7 642.9 83ZM443.1 -83.3L398.3 -57.4C398.3 -57.2 398.4 -57 398.4 -56.8C398.4 -55.6 397.6 -54.7 396.5 -54.4V-2.60001C396.9 -2.50001 397.3 -2.3 397.6 -2L442.4 -27.9C442.4 -28.1 442.3 -28.3 442.3 -28.5C442.3 -29.7 443.1 -30.6 444.2 -30.9V-82.7C443.8 -82.9 443.4 -83 443.1 -83.3ZM347.4 31.2V82.4C347.8 82.5 348.2 82.7 348.5 83L393.3 57.1C393.3 56.9 393.2 56.7 393.2 56.5C393.2 55.3 394 54.4 395.1 54.1V2.29999C394.7 2.19999 394.3 2.00001 394 1.70001L371 15L349.2 27.6C349.2 27.8 349.3 28 349.3 28.2C349.3 29.4 348.5 30.3 347.4 30.6V31.2ZM409.3 63.5L443.1 83C443.4 82.7 443.8 82.5 444.2 82.4V30.6C443.1 30.3 442.3 29.3 442.3 28.2C442.3 28 442.4 27.8 442.4 27.6L435.8 23.8L397.6 1.70001C397.3 2.00001 396.9 2.19999 396.5 2.29999V31.3V54.1C397.6 54.4 398.4 55.3 398.4 56.5C398.4 56.7 398.3 56.9 398.3 57.1L409.3 63.5ZM702.6 62.9L737.5 83C737.8 82.7 738.2 82.5 738.6 82.4V30.6C737.5 30.3 736.7 29.3 736.7 28.2C736.7 28 736.8 27.8 736.8 27.6L729.9 23.6L712.7 13.6L692 1.60001C691.7 1.90001 691.3 2.10001 690.9 2.20001V31.2V54C692 54.3 692.8 55.2 692.8 56.4C692.8 56.6 692.7 56.8 692.7 57L702.6 62.9ZM738.6 -31.6V-82.8C738.2 -82.9 737.8 -83.1 737.5 -83.4L692.7 -57.5C692.7 -57.3 692.8 -57.1 692.8 -56.9C692.8 -55.7 692 -54.8 690.9 -54.5V-2.70001C691.3 -2.60001 691.7 -2.40001 692 -2.10001L714.7 -15.2L736.8 -28C736.8 -28.2 736.7 -28.4 736.7 -28.6C736.7 -29.8 737.5 -30.7 738.6 -31V-31.6ZM676.9 -63.7L642.9 -83.3C642.6 -83 642.2 -82.8 641.8 -82.7V-30.9C642.9 -30.6 643.7 -29.6 643.7 -28.5C643.7 -28.3 643.6 -28.1 643.6 -27.9L650.3 -24L688.4 -2C688.7 -2.3 689.1 -2.50001 689.5 -2.60001V-31.6V-54.4C688.4 -54.7 687.6 -55.6 687.6 -56.8C687.6 -57 687.7 -57.2 687.7 -57.4L676.9 -63.7ZM383.5 -63.2L348.5 -83.4C348.2 -83.1 347.8 -82.9 347.4 -82.8V-31C348.5 -30.7 349.3 -29.7 349.3 -28.6C349.3 -28.4 349.2 -28.2 349.2 -28L356.2 -24L368.8 -16.7L394 -2C394.3 -2.3 394.7 -2.50001 395.1 -2.60001V-31.6V-54.4C394 -54.7 393.2 -55.6 393.2 -56.8C393.2 -57 393.3 -57.2 393.3 -57.4L383.5 -63.2ZM413.2 102.3L442.5 85.4C442.5 85.2 442.4 85 442.4 84.8C442.4 84.6 442.5 84.4 442.5 84.2L430.3 77.1L397.7 58.3C397.2 58.8 396.6 59 395.9 59C395.2 59 394.6 58.7 394.1 58.3L380.2 66.3L349.2 84.2C349.2 84.4 349.3 84.6 349.3 84.8C349.3 85 349.2 85.2 349.2 85.4L394.1 111.3C394.6 110.9 395.2 110.6 395.9 110.6C396.6 110.6 397.2 110.9 397.7 111.3L413.2 102.3ZM672.9 102.3L688.5 111.3C689 110.9 689.6 110.6 690.3 110.6C691 110.6 691.6 110.9 692.1 111.3L737 85.4C737 85.2 736.9 85 736.9 84.8C736.9 84.6 737 84.4 737 84.2L724.3 76.9L692.2 58.3C691.7 58.8 691.1 59 690.4 59C689.7 59 689.1 58.7 688.6 58.3L673.2 67.2L643.8 84.2C643.8 84.4 643.9 84.6 643.9 84.8C643.9 85 643.8 85.2 643.8 85.4L672.9 102.3ZM741.1 83L785.9 57.1C785.9 56.9 785.8 56.7 785.8 56.5C785.8 55.3 786.6 54.4 787.7 54.1V2.29999C787.3 2.19999 786.9 2.00001 786.6 1.70001L741.8 27.6C741.8 27.8 741.9 28 741.9 28.2C741.9 29.4 741.1 30.3 740 30.6V82.4C740.4 82.5 740.8 82.7 741.1 83ZM982.1 -0.200012C982.1 -0.400012 982.2 -0.599988 982.2 -0.799988L937.4 -26.7C936.9 -26.2 936.3 -26 935.6 -26C934.9 -26 934.3 -26.3 933.8 -26.7L889 -0.799988C889 -0.599988 889.1 -0.400012 889.1 -0.200012C889.1 -1.22041e-05 889 0.199994 889 0.399994L933.8 26.3C934.3 25.8 934.9 25.6 935.6 25.6C936.3 25.6 936.9 25.9 937.4 26.3L982.2 0.399994C982.1 0.199994 982.1 0.0999878 982.1 -0.200012ZM836.7 -30.9V-82.7C836.3 -82.8 835.9 -83 835.6 -83.3L790.8 -57.4C790.8 -57.2 790.9 -57 790.9 -56.8C790.9 -55.6 790.1 -54.7 789 -54.4V-2.60001C789.4 -2.50001 789.8 -2.3 790.1 -2L812.8 -15.1L834.9 -27.9C834.9 -28.1 834.8 -28.3 834.8 -28.5C834.9 -29.7 835.7 -30.6 836.7 -30.9ZM672.9 -102.7L643.6 -85.8C643.6 -85.6 643.7 -85.4 643.7 -85.2C643.7 -85 643.6 -84.8 643.6 -84.6L657.6 -76.5L688.4 -58.7C688.9 -59.2 689.5 -59.4 690.2 -59.4C690.9 -59.4 691.5 -59.1 692 -58.7L705.2 -66.3L736.8 -84.6C736.8 -84.8 736.7 -85 736.7 -85.2C736.7 -85.4 736.8 -85.6 736.8 -85.8L691.9 -111.7C691.4 -111.3 690.8 -111 690.1 -111C689.4 -111 688.8 -111.3 688.3 -111.7L672.9 -102.7ZM413.2 -102.7L397.6 -111.7C397.1 -111.3 396.5 -111 395.8 -111C395.1 -111 394.5 -111.3 394 -111.7L349.1 -85.8C349.1 -85.6 349.2 -85.4 349.2 -85.2C349.2 -85 349.1 -84.8 349.1 -84.6L365 -75.4L393.9 -58.7C394.4 -59.2 395 -59.4 395.7 -59.4C396.4 -59.4 397 -59.1 397.5 -58.7L412.3 -67.3L442.3 -84.6C442.3 -84.8 442.2 -85 442.2 -85.2C442.2 -85.4 442.3 -85.6 442.3 -85.8L413.2 -102.7ZM345 -83.3L300.2 -57.4C300.2 -57.2 300.3 -57 300.3 -56.8C300.3 -55.6 299.5 -54.7 298.4 -54.4V-2.60001C298.8 -2.50001 299.2 -2.3 299.5 -2L344.3 -27.9C344.3 -28.1 344.2 -28.3 344.2 -28.5C344.2 -29.7 345 -30.6 346.1 -30.9V-82.7C345.6 -82.9 345.3 -83 345 -83.3ZM249.3 30.6V82.4C249.7 82.5 250.1 82.7 250.4 83L295.2 57.1C295.2 56.9 295.1 56.7 295.1 56.5C295.1 55.3 295.9 54.4 297 54.1V2.29999C296.6 2.19999 296.2 2.00001 295.9 1.70001L275.3 13.6L251.1 27.6C251.1 27.8 251.2 28 251.2 28.2C251.2 29.3 250.4 30.3 249.3 30.6ZM306.5 60.8L345 83C345.3 82.7 345.7 82.5 346.1 82.4V30.6C345 30.3 344.2 29.4 344.2 28.2C344.2 28 344.3 27.8 344.3 27.6L338.2 24.1L299.4 1.70001C299.1 2.00001 298.7 2.19999 298.3 2.29999V31.3V54.1C299.4 54.4 300.2 55.3 300.2 56.5C300.2 56.7 300.1 56.9 300.1 57.1L306.5 60.8ZM423.7 152.9L442.5 142.1C442.5 141.9 442.4 141.7 442.4 141.5C442.4 140.3 443.2 139.4 444.3 139.1V87.3C443.9 87.2 443.5 87 443.2 86.7L418 101.3L398.4 112.6C398.5 112.8 398.5 113 398.5 113.2C398.5 114.4 397.7 115.3 396.6 115.6V167.4C397 167.5 397.4 167.7 397.7 168L423.7 152.9ZM496.5 226.5C496.5 226.7 496.4 226.9 496.4 227.1L533.2 248.3L541.3 253C541.6 252.7 542 252.5 542.4 252.4V200.6C541.3 200.3 540.5 199.4 540.5 198.2C540.5 198 540.6 197.8 540.6 197.6L514.5 182.5L504 176.4L495.8 171.7C495.5 172 495.1 172.2 494.7 172.3V224.1C495.7 224.4 496.5 225.3 496.5 226.5ZM661.4 152.4L688.4 168C688.7 167.7 689.1 167.5 689.5 167.4V115.6C688.4 115.3 687.6 114.3 687.6 113.2C687.6 113 687.7 112.8 687.7 112.6L667.1 100.7L642.8 86.7C642.5 87 642.1 87.2 641.7 87.3V139.1C642.8 139.4 643.6 140.4 643.6 141.5C643.6 141.7 643.5 141.9 643.5 142.1L661.4 152.4ZM805.5 65.6L835.6 83C835.9 82.7 836.3 82.5 836.7 82.4V30.6C835.6 30.3 834.8 29.3 834.8 28.2C834.8 28 834.9 27.8 834.9 27.6L827.1 23.1L810.7 13.6L790.1 1.70001C789.8 2.00001 789.4 2.19999 789 2.29999V31.3V54.1C790.1 54.4 790.9 55.3 790.9 56.5C790.9 56.7 790.8 56.9 790.8 57.1L805.5 65.6ZM779.8 -61L741 -83.4C740.7 -83.1 740.3 -82.9 739.9 -82.8V-31C741 -30.7 741.8 -29.8 741.8 -28.6C741.8 -28.4 741.7 -28.2 741.7 -28L747.9 -24.4L786.5 -2C786.8 -2.3 787.2 -2.50001 787.6 -2.60001V-31.6V-54.4C786.5 -54.7 785.7 -55.6 785.7 -56.8C785.7 -57 785.8 -57.2 785.8 -57.4L779.8 -61ZM661.4 -152.7L643.6 -142.4C643.6 -142.2 643.7 -142 643.7 -141.8C643.7 -140.6 642.9 -139.7 641.8 -139.4V-87.6C642.2 -87.5 642.6 -87.3 642.9 -87L669.3 -102.3L687.7 -112.9C687.6 -113.1 687.6 -113.3 687.6 -113.5C687.6 -114.7 688.4 -115.6 689.5 -115.9V-167.7C689.1 -167.8 688.7 -168 688.4 -168.3L661.4 -152.7ZM589.5 -226.8C589.5 -227 589.6 -227.2 589.6 -227.4L555.1 -247.3L544.8 -253.2C544.5 -252.9 544.1 -252.7 543.7 -252.6V-200.8C544.8 -200.5 545.6 -199.5 545.6 -198.4C545.6 -198.2 545.5 -198 545.5 -197.8L568.1 -184.8L582.1 -176.7L590.3 -172C590.6 -172.3 591 -172.5 591.4 -172.6V-224.4C590.3 -224.7 589.5 -225.7 589.5 -226.8ZM423.7 -153.3L397.6 -168.4C397.3 -168.1 396.9 -167.9 396.5 -167.8V-116C397.6 -115.7 398.4 -114.7 398.4 -113.6C398.4 -113.4 398.3 -113.2 398.3 -113L415.7 -102.9L443.1 -87C443.4 -87.3 443.8 -87.5 444.2 -87.6V-139.4C443.1 -139.7 442.3 -140.7 442.3 -141.8C442.3 -142 442.4 -142.2 442.4 -142.4L423.7 -153.3ZM280.6 -65.9L250.4 -83.4C250.1 -83.1 249.7 -82.9 249.3 -82.8V-31C250.4 -30.7 251.2 -29.7 251.2 -28.6C251.2 -28.4 251.1 -28.2 251.1 -28L259 -23.4L273.2 -15.2L295.9 -2C296.2 -2.3 296.6 -2.50001 297 -2.60001V-31.6V-54.4C295.9 -54.7 295.1 -55.6 295.1 -56.8C295.1 -57 295.2 -57.2 295.2 -57.4L280.6 -65.9ZM151.2 30.6V82.4C151.6 82.5 152 82.7 152.3 83L197.1 57.1C197.1 56.9 197 56.7 197 56.5C197 55.3 197.8 54.4 198.9 54.1V2.29999C198.5 2.19999 198.1 2.00001 197.8 1.70001L181.4 11.2L156.4 25.6L153 27.6C153 27.8 153.1 28 153.1 28.2C153 29.3 152.2 30.3 151.2 30.6ZM315.7 101.9L344.3 85.4C344.3 85.2 344.2 85 344.2 84.8C344.2 84.6 344.3 84.4 344.3 84.2L311.2 65.1L299.5 58.3C299 58.8 298.4 59 297.7 59C297 59 296.4 58.7 295.9 58.3L251.1 84.2C251.1 84.4 251.2 84.6 251.2 84.8C251.2 85 251.1 85.2 251.1 85.4L296 111.3C296.5 110.9 297.1 110.6 297.8 110.6C298.5 110.6 299.1 110.9 299.6 111.3L315.7 101.9ZM769.4 101.4L786.6 111.3C787.1 110.9 787.7 110.6 788.4 110.6C789.1 110.6 789.7 110.9 790.2 111.3L835.1 85.4C835.1 85.2 835 85 835 84.8C835 84.6 835.1 84.4 835.1 84.2L833.1 83.1L790.2 58.3C789.7 58.8 789.1 59 788.4 59C787.7 59 787.1 58.7 786.6 58.3L775.1 64.9L741.8 84.1C741.8 84.3 741.9 84.5 741.9 84.7C741.9 84.9 741.8 85.1 741.8 85.3L769.4 101.4ZM839.2 83L884 57.1C884 56.9 883.9 56.7 883.9 56.5C883.9 55.3 884.7 54.4 885.8 54.1V2.29999C885.4 2.19999 885 2.00001 884.7 1.70001L839.9 27.6C839.9 27.8 840 28 840 28.2C840 29.4 839.2 30.3 838.1 30.6V82.4C838.5 82.5 838.9 82.7 839.2 83ZM934.9 -30.9V-82.7C934.5 -82.8 934.1 -83 933.8 -83.3L889 -57.4C889 -57.2 889.1 -57 889.1 -56.8C889.1 -55.6 888.3 -54.7 887.2 -54.4V-2.60001C887.6 -2.50001 888 -2.3 888.3 -2L908 -13.4L929.8 -26L933.2 -27.9C933.2 -28.1 933.1 -28.3 933.1 -28.5C933 -29.7 933.8 -30.6 934.9 -30.9ZM878 -60.9L839.2 -83.3C838.9 -83 838.5 -82.8 838.1 -82.7V-30.9C839.2 -30.6 840 -29.7 840 -28.5C840 -28.3 839.9 -28.1 839.9 -27.9L845.7 -24.6L884.7 -2.10001C885 -2.40001 885.4 -2.60001 885.8 -2.70001V-31.7V-54.5C884.7 -54.8 883.9 -55.7 883.9 -56.9C883.9 -57.1 884 -57.3 884 -57.5L878 -60.9ZM769.4 -101.7L741.7 -85.7C741.7 -85.5 741.8 -85.3 741.8 -85.1C741.8 -84.9 741.7 -84.7 741.7 -84.5L777.1 -64.1L786.5 -58.7C787 -59.2 787.6 -59.4 788.3 -59.4C789 -59.4 789.6 -59.1 790.1 -58.7L834.9 -84.6C834.9 -84.8 834.8 -85 834.8 -85.2C834.8 -85.4 834.9 -85.6 834.9 -85.8L790 -111.7C789.5 -111.3 788.9 -111 788.2 -111C787.5 -111 786.9 -111.3 786.4 -111.7L769.4 -101.7ZM315.7 -102.3L299.5 -111.7C299 -111.3 298.4 -111 297.7 -111C297 -111 296.4 -111.3 295.9 -111.7L251 -85.8C251 -85.6 251.1 -85.4 251.1 -85.2C251.1 -85 251 -84.8 251 -84.6L253.8 -83L295.8 -58.7C296.3 -59.2 296.9 -59.4 297.6 -59.4C298.3 -59.4 298.9 -59.1 299.4 -58.7L310.2 -64.9L344.3 -84.6C344.3 -84.8 344.2 -85 344.2 -85.2C344.2 -85.4 344.3 -85.6 344.3 -85.8L315.7 -102.3ZM246.8 -83.3L202 -57.4C202 -57.2 202.1 -57 202.1 -56.8C202.1 -55.6 201.3 -54.7 200.2 -54.4V-2.60001C200.6 -2.50001 201 -2.3 201.3 -2L246.1 -27.9C246.1 -28.1 246 -28.3 246 -28.5C246 -29.7 246.8 -30.6 247.9 -30.9V-82.7C247.5 -82.9 247.1 -83 246.8 -83.3ZM208.5 60.9L246.8 83C247.1 82.7 247.5 82.5 247.9 82.4V30.6C246.8 30.3 246 29.4 246 28.2C246 28 246.1 27.8 246.1 27.6L240.5 24.3L201.3 1.70001C201 2.00001 200.6 2.19999 200.2 2.29999V31.3V54.1C201.3 54.4 202.1 55.3 202.1 56.5C202.1 56.7 202 56.9 202 57.1L208.5 60.9ZM328.7 151.1L344.3 142.1C344.3 141.9 344.2 141.7 344.2 141.5C344.2 140.3 345 139.4 346.1 139.1V87.3C345.7 87.2 345.3 87 345 86.7L322.9 99.5L300.2 112.6C300.3 112.8 300.3 113 300.3 113.2C300.3 114.4 299.5 115.3 298.4 115.6V167.4C298.8 167.5 299.2 167.7 299.5 168L328.7 151.1ZM757.3 151.1L786.6 168C786.9 167.7 787.3 167.5 787.7 167.4V115.6C786.6 115.3 785.8 114.3 785.8 113.2C785.8 113 785.9 112.8 785.9 112.6L764.2 100.1L741.1 86.8C740.8 87.1 740.4 87.3 740 87.4V139.2C741.1 139.5 741.9 140.5 741.9 141.6C741.9 141.8 741.8 142 741.8 142.2L757.3 151.1ZM1080.2 -0.200012C1080.2 -0.400012 1080.3 -0.599988 1080.3 -0.799988L1035.5 -26.7C1035 -26.2 1034.4 -26 1033.7 -26C1033 -26 1032.4 -26.3 1031.9 -26.7L987.1 -0.799988C987.1 -0.599988 987.2 -0.400012 987.2 -0.200012C987.2 -1.22041e-05 987.1 0.199994 987.1 0.399994L1031.9 26.3C1032.4 25.8 1033 25.6 1033.7 25.6C1034.4 25.6 1035 25.9 1035.5 26.3L1080.3 0.399994C1080.3 0.199994 1080.2 0.0999878 1080.2 -0.200012ZM757.3 -151.4L741.7 -142.4C741.7 -142.2 741.8 -142 741.8 -141.8C741.8 -140.6 741 -139.7 739.9 -139.4V-87.6C740.3 -87.5 740.7 -87.3 741 -87L766 -101.4L785.9 -112.9C785.8 -113.1 785.8 -113.3 785.8 -113.5C785.8 -114.7 786.6 -115.6 787.7 -115.9V-167.7C787.3 -167.8 786.9 -168 786.6 -168.3L757.3 -151.4ZM328.7 -151.4L299.5 -168.3C299.2 -168 298.8 -167.8 298.4 -167.7V-115.9C299.5 -115.6 300.3 -114.6 300.3 -113.5C300.3 -113.3 300.2 -113.1 300.2 -112.9L321 -100.9L345 -87C345.3 -87.3 345.7 -87.5 346.1 -87.6V-139.4C345 -139.7 344.2 -140.7 344.2 -141.8C344.2 -142 344.3 -142.2 344.3 -142.4L328.7 -151.4ZM98.9999 57.1C98.9999 56.9 98.8999 56.7 98.8999 56.5C98.8999 55.3 99.6999 54.4 100.8 54.1V2.29999C100.4 2.19999 100 2.00001 99.7 1.70001L82.7 11.5L58.2 25.6L54.8999 27.5C54.8999 27.7 54.9999 27.9 54.9999 28.1C54.9999 29.3 54.2 30.2 53.1 30.5V82.3C53.5 82.4 53.9 82.6 54.2 82.9L98.9999 57.1ZM104 56.5C104 56.7 103.9 56.9 103.9 57.1L148.7 83C149 82.7 149.4 82.5 149.8 82.4V30.6C148.7 30.3 147.9 29.3 147.9 28.2C147.9 28 148 27.8 148 27.6L146.6 26.8L103.2 1.79999C102.9 2.09999 102.5 2.29999 102.1 2.39999V31.4V54.2C103.2 54.4 104 55.3 104 56.5ZM153 84.8C153 85 152.9 85.2 152.9 85.4L197.8 111.3C198.3 110.9 198.9 110.6 199.6 110.6C200.3 110.6 200.9 110.9 201.4 111.3L219.1 101.1L246.3 85.4C246.3 85.2 246.2 85 246.2 84.8C246.2 84.6 246.3 84.4 246.3 84.2L203.3 59.4L201.5 58.3C201 58.8 200.4 59 199.7 59C199 59 198.4 58.7 197.9 58.3L153.1 84.2C153 84.4 153 84.6 153 84.8ZM246.2 142.1C246.2 141.9 246.1 141.7 246.1 141.5C246.1 140.3 246.9 139.4 248 139.1V87.3C247.6 87.2 247.2 87 246.9 86.7L222.6 100.7L202.1 112.5C202.2 112.7 202.2 112.9 202.2 113.1C202.2 114.3 201.4 115.2 200.3 115.5V167.3C200.7 167.4 201.1 167.6 201.4 167.9L246.2 142.1ZM251.2 141.5C251.2 141.7 251.1 141.9 251.1 142.1L295.9 168C296.2 167.7 296.6 167.5 297 167.4V115.6C295.9 115.3 295.1 114.3 295.1 113.2C295.1 113 295.2 112.8 295.2 112.6L250.4 86.7C250.1 87 249.7 87.2 249.3 87.3V139.1C250.4 139.4 251.2 140.3 251.2 141.5ZM447.4 254.8C447.4 255 447.3 255.2 447.3 255.4L492.2 281.3C492.7 280.9 493.3 280.6 494 280.6C494.7 280.6 495.3 280.9 495.8 281.3L504.1 276.5L533.2 259.7L540.7 255.4C540.7 255.2 540.6 255 540.6 254.8C540.6 254.6 540.7 254.4 540.7 254.2L520.6 242.6L504.1 233.1L495.9 228.3C495.4 228.8 494.8 229 494.1 229C493.4 229 492.8 228.7 492.3 228.3L468.9 241.8L447.4 254.2C447.4 254.4 447.4 254.6 447.4 254.8ZM504 333.2L540.6 312.1C540.6 311.9 540.5 311.7 540.5 311.5C540.5 310.3 541.3 309.4 542.4 309.1V257.3C542 257.2 541.6 257 541.3 256.7L522.5 267.5L496.4 282.5C496.5 282.7 496.5 282.9 496.5 283.1C496.5 284.3 495.7 285.2 494.6 285.5V337.3C495 337.4 495.4 337.6 495.7 337.9L504 333.2ZM582 333.2L590.3 338C590.6 337.7 591 337.5 591.4 337.4V285.6C590.3 285.3 589.5 284.3 589.5 283.2C589.5 283 589.6 282.8 589.6 282.6L563.5 267.5L544.7 256.7C544.4 257 544 257.2 543.6 257.3V309C544.7 309.3 545.5 310.3 545.5 311.4C545.5 311.6 545.4 311.8 545.4 312L582 333.2ZM638.7 255.4C638.7 255.2 638.6 255 638.6 254.8C638.6 254.6 638.7 254.4 638.7 254.2L615.3 240.7L593.9 228.3C593.4 228.8 592.8 229 592.1 229C591.4 229 590.8 228.7 590.3 228.3L582.1 233.1L565.6 242.6L545.5 254.2C545.5 254.4 545.6 254.6 545.6 254.8C545.6 255 545.5 255.2 545.5 255.4L553.4 260L582.1 276.6L590.4 281.4C590.9 281 591.5 280.7 592.2 280.7C592.9 280.7 593.5 281 594 281.4L638.7 255.4ZM835 142.1C835 141.9 834.9 141.7 834.9 141.5C834.9 140.3 835.7 139.4 836.8 139.1V87.3C836.4 87.2 836 87 835.7 86.7L790.9 112.6C791 112.8 791 113 791 113.2C791 114.4 790.2 115.3 789.1 115.6V167.4C789.5 167.5 789.9 167.7 790.2 168L835 142.1ZM840 141.5C840 141.7 839.9 141.9 839.9 142.1L884.7 168C885 167.7 885.4 167.5 885.8 167.4V115.6C884.7 115.3 883.9 114.3 883.9 113.2C883.9 113 884 112.8 884 112.6L863.5 100.8L839.2 86.8C838.9 87.1 838.5 87.3 838.1 87.4V139.2C839.2 139.4 840 140.3 840 141.5ZM933.1 85.4C933.1 85.2 933 85 933 84.8C933 84.6 933.1 84.4 933.1 84.2L896.5 63.1L888.3 58.4C887.8 58.9 887.2 59.1 886.5 59.1C885.8 59.1 885.2 58.8 884.7 58.4L873.5 64.9L839.9 84.3C839.9 84.5 840 84.7 840 84.9C840 85.1 839.9 85.3 839.9 85.5L867.1 101.2L884.8 111.4C885.3 111 885.9 110.7 886.6 110.7C887.3 110.7 887.9 111 888.4 111.4L933.1 85.4ZM982.2 57.1C982.2 56.9 982.1 56.7 982.1 56.5C982.1 55.3 982.9 54.4 984 54.1V2.29999C983.6 2.19999 983.2 2.00001 982.9 1.70001L938.1 27.6C938.1 27.8 938.2 28 938.2 28.2C938.2 29.4 937.4 30.3 936.3 30.6V82.4C936.7 82.5 937.1 82.7 937.4 83L982.2 57.1ZM987.2 56.5C987.2 56.7 987.1 56.9 987.1 57.1L1031.9 83C1032.2 82.7 1032.6 82.5 1033 82.4V30.6C1031.9 30.3 1031.1 29.4 1031.1 28.2C1031.1 28 1031.2 27.8 1031.2 27.6L1020 21.1L1001.9 10.6L986.4 1.70001C986.1 2.00001 985.7 2.19999 985.3 2.29999V54.1C986.4 54.4 987.2 55.3 987.2 56.5ZM987 -57.5C987 -57.3 987.1 -57.1 987.1 -56.9C987.1 -55.7 986.3 -54.8 985.2 -54.5V-2.70001C985.6 -2.60001 986 -2.40001 986.3 -2.10001L1003.5 -12L1028 -26L1031.3 -27.9C1031.3 -28.1 1031.2 -28.3 1031.2 -28.5C1031.2 -29.7 1032 -30.6 1033.1 -30.9V-82.7C1032.7 -82.8 1032.3 -83 1032 -83.3L987 -57.5ZM982.1 -56.9C982.1 -57.1 982.2 -57.3 982.2 -57.5L937.4 -83.4C937.1 -83.1 936.7 -82.9 936.3 -82.8V-31C937.4 -30.7 938.2 -29.7 938.2 -28.6C938.2 -28.4 938.1 -28.2 938.1 -28L939.7 -27.1L982.9 -2.10001C983.2 -2.40001 983.6 -2.60001 984 -2.70001V-31.7V-54.5C982.9 -54.7 982.1 -55.7 982.1 -56.9ZM933 -85.2C933 -85.4 933.1 -85.6 933.1 -85.8L888.2 -111.7C887.7 -111.3 887.1 -111 886.4 -111C885.7 -111 885.1 -111.3 884.6 -111.7L866.9 -101.5L839.7 -85.8C839.7 -85.6 839.8 -85.4 839.8 -85.2C839.8 -85 839.7 -84.8 839.7 -84.6L884.5 -58.7C885 -59.2 885.6 -59.4 886.3 -59.4C887 -59.4 887.6 -59.1 888.1 -58.7L932.9 -84.6C933.1 -84.8 933 -84.9 933 -85.2ZM839.8 -142.4C839.8 -142.2 839.9 -142 839.9 -141.8C839.9 -140.6 839.1 -139.7 838 -139.4V-87.6C838.4 -87.5 838.8 -87.3 839.1 -87L865.7 -102.3L884 -112.8C883.9 -113 883.9 -113.2 883.9 -113.4C883.9 -114.6 884.7 -115.5 885.8 -115.8V-167.6C885.4 -167.7 885 -167.9 884.7 -168.2L839.8 -142.4ZM834.9 -141.8C834.9 -142 835 -142.2 835 -142.4L790.2 -168.3C789.9 -168 789.5 -167.8 789.1 -167.7V-115.9C790.2 -115.6 791 -114.6 791 -113.5C791 -113.3 790.9 -113.1 790.9 -112.9L835.6 -87C835.9 -87.3 836.3 -87.5 836.7 -87.6V-139.4C835.7 -139.7 834.9 -140.7 834.9 -141.8ZM638.6 -255.2C638.6 -255.4 638.7 -255.6 638.7 -255.8L593.8 -281.7C593.3 -281.3 592.7 -281 592 -281C591.3 -281 590.7 -281.3 590.2 -281.7L581.9 -276.9L553.2 -260.3L545.3 -255.7C545.3 -255.5 545.4 -255.3 545.4 -255.1C545.4 -254.9 545.3 -254.7 545.3 -254.5L565.4 -242.9L581.9 -233.4L590.1 -228.6C590.6 -229.1 591.2 -229.3 591.9 -229.3C592.6 -229.3 593.2 -229 593.7 -228.6L615.3 -241L638.7 -254.5C638.7 -254.7 638.6 -254.9 638.6 -255.2C638.6 -255.1 638.6 -255.1 638.6 -255.2C638.6 -255.1 638.6 -255.1 638.6 -255.2ZM582 -333.5L545.4 -312.4C545.4 -312.2 545.5 -312 545.5 -311.8C545.5 -310.6 544.7 -309.7 543.6 -309.4V-257.6C544 -257.5 544.4 -257.3 544.7 -257L563.5 -267.8L589.6 -282.9C589.5 -283.1 589.5 -283.3 589.5 -283.5C589.5 -284.7 590.3 -285.6 591.4 -285.9V-337.7C591 -337.8 590.6 -338 590.3 -338.3L582 -333.5ZM504 -333.5L495.8 -338.3C495.5 -338 495.1 -337.8 494.7 -337.7V-285.9C495.8 -285.6 496.6 -284.6 496.6 -283.5C496.6 -283.3 496.5 -283.1 496.5 -282.9L522.6 -267.9L541.2 -257C541.5 -257.3 541.9 -257.5 542.3 -257.6V-309.4C541.2 -309.7 540.4 -310.7 540.4 -311.8C540.4 -312 540.5 -312.2 540.5 -312.4L504 -333.5ZM447.3 -255.7C447.3 -255.5 447.4 -255.3 447.4 -255.1C447.4 -254.9 447.3 -254.7 447.3 -254.5L468.8 -242.1L492.2 -228.6C492.7 -229.1 493.3 -229.3 494 -229.3C494.7 -229.3 495.3 -229 495.8 -228.6L504 -233.4L520.5 -242.9L540.6 -254.5C540.6 -254.7 540.5 -254.9 540.5 -255.1C540.5 -255.3 540.6 -255.5 540.6 -255.7L533.1 -260L504 -276.8L495.7 -281.6C495.2 -281.2 494.6 -280.9 493.9 -280.9C493.2 -280.9 492.6 -281.2 492.1 -281.6L447.3 -255.7ZM251.1 -142.4C251.1 -142.2 251.2 -142 251.2 -141.8C251.2 -140.6 250.4 -139.7 249.3 -139.4V-87.6C249.7 -87.5 250.1 -87.3 250.4 -87L295.2 -112.9C295.1 -113.1 295.1 -113.3 295.1 -113.5C295.1 -114.7 295.9 -115.6 297 -115.9V-167.7C296.6 -167.8 296.2 -168 295.9 -168.3L251.1 -142.4ZM246.1 -141.8C246.1 -142 246.2 -142.2 246.2 -142.4L201.4 -168.3C201.1 -168 200.7 -167.8 200.3 -167.7V-115.9C201.4 -115.6 202.2 -114.6 202.2 -113.5C202.2 -113.3 202.1 -113.1 202.1 -112.9L220.4 -102.4L246.8 -87C247.1 -87.3 247.5 -87.5 247.9 -87.6V-139.4C246.9 -139.7 246.1 -140.7 246.1 -141.8ZM152.9 -85.8C152.9 -85.6 153 -85.4 153 -85.2C153 -85 152.9 -84.8 152.9 -84.6L189.9 -63.2L197.7 -58.7C198.2 -59.2 198.8 -59.4 199.5 -59.4C200.2 -59.4 200.8 -59.1 201.3 -58.7L212.1 -64.9L246.2 -84.6C246.2 -84.8 246.1 -85 246.1 -85.2C246.1 -85.4 246.2 -85.6 246.2 -85.8L219 -101.5L201.3 -111.7C200.8 -111.3 200.2 -111 199.5 -111C198.8 -111 198.2 -111.3 197.7 -111.7L152.9 -85.8ZM103.9 -57.4C103.9 -57.2 104 -57 104 -56.8C104 -55.6 103.2 -54.7 102.1 -54.4V-2.60001C102.5 -2.50001 102.9 -2.3 103.2 -2L148 -27.9C148 -28.1 147.9 -28.3 147.9 -28.5C147.9 -29.7 148.7 -30.6 149.8 -30.9V-82.7C149.4 -82.8 149 -83 148.7 -83.3L103.9 -57.4ZM98.8999 -56.9C98.8999 -57.1 98.9999 -57.3 98.9999 -57.5L54.2 -83.4C53.9 -83.1 53.5 -82.9 53.1 -82.8V-31C54.2 -30.7 54.9999 -29.8 54.9999 -28.6C54.9999 -28.4 54.8999 -28.2 54.8999 -28L66.0999 -21.5L80.8999 -12.9L99.5999 -2C99.8999 -2.3 100.3 -2.50001 100.7 -2.60001V-54.4C99.7 -54.7 98.8999 -55.7 98.8999 -56.9ZM393.4 227.1C393.4 226.9 393.3 226.7 393.3 226.5C393.3 225.3 394.1 224.4 395.2 224.1V172.3C394.8 172.2 394.4 172 394.1 171.7L369.8 185.7L349.2 197.6C349.3 197.8 349.3 198 349.3 198.2C349.3 199.4 348.5 200.3 347.4 200.6V252.4C347.8 252.5 348.2 252.7 348.5 253L393.4 227.1ZM398.4 226.5C398.4 226.7 398.3 226.9 398.3 227.1L443.1 253C443.4 252.7 443.8 252.5 444.2 252.4V200.6C443.1 200.3 442.3 199.3 442.3 198.2C442.3 198 442.4 197.8 442.4 197.6L397.6 171.7C397.3 172 396.9 172.2 396.5 172.3V224.1C397.6 224.4 398.4 225.3 398.4 226.5ZM687.8 227.1C687.8 226.9 687.7 226.7 687.7 226.5C687.7 225.3 688.5 224.4 689.6 224.1V172.3C689.2 172.2 688.8 172 688.5 171.7L643.7 197.6C643.8 197.8 643.8 198 643.8 198.2C643.8 199.4 643 200.3 641.9 200.6V252.4C642.3 252.5 642.7 252.7 643 253L687.8 227.1ZM692.8 226.5C692.8 226.7 692.7 226.9 692.7 227.1L737.5 253C737.8 252.7 738.2 252.5 738.6 252.4V200.6C737.5 200.3 736.7 199.3 736.7 198.2C736.7 198 736.8 197.8 736.8 197.6L715.1 185.1L692 171.7C691.7 172 691.3 172.2 690.9 172.3V224.1C692 224.4 692.8 225.3 692.8 226.5ZM692.6 -227.4C692.6 -227.2 692.7 -227 692.7 -226.8C692.7 -225.6 691.9 -224.7 690.8 -224.4V-172.6C691.2 -172.5 691.6 -172.3 691.9 -172L716.7 -186.3L736.8 -197.9C736.7 -198.1 736.7 -198.3 736.7 -198.5C736.7 -199.7 737.5 -200.6 738.6 -200.9V-252.7C738.2 -252.8 737.8 -253 737.5 -253.3L692.6 -227.4ZM687.7 -226.8C687.7 -227 687.8 -227.2 687.8 -227.4L643 -253.3C642.7 -253 642.3 -252.8 641.9 -252.7V-200.9C643 -200.6 643.8 -199.6 643.8 -198.5C643.8 -198.3 643.7 -198.1 643.7 -197.9L688.4 -172C688.7 -172.3 689.1 -172.5 689.5 -172.6V-224.4C688.5 -224.7 687.7 -225.7 687.7 -226.8ZM398.3 -227.4C398.3 -227.2 398.4 -227 398.4 -226.8C398.4 -225.6 397.6 -224.7 396.5 -224.4V-172.6C396.9 -172.5 397.3 -172.3 397.6 -172L442.4 -197.9C442.3 -198.1 442.3 -198.3 442.3 -198.5C442.3 -199.7 443.1 -200.6 444.2 -200.9V-252.7C443.8 -252.8 443.4 -253 443.1 -253.3L398.3 -227.4ZM393.3 -226.8C393.3 -227 393.4 -227.2 393.4 -227.4L348.6 -253.3C348.3 -253 347.9 -252.8 347.5 -252.7V-200.9C348.6 -200.6 349.4 -199.6 349.4 -198.5C349.4 -198.3 349.3 -198.1 349.3 -197.9L368.3 -186.9L394 -172C394.3 -172.3 394.7 -172.5 395.1 -172.6V-224.4C394.1 -224.7 393.3 -225.7 393.3 -226.8ZM349.3 254.8C349.3 255 349.2 255.2 349.2 255.4L394.1 281.3C394.6 280.9 395.2 280.6 395.9 280.6C396.6 280.6 397.2 280.9 397.7 281.3L442.6 255.4C442.6 255.2 442.5 255 442.5 254.8C442.5 254.6 442.6 254.4 442.6 254.2L397.8 228.3C397.3 228.8 396.7 229 396 229C395.3 229 394.7 228.7 394.2 228.3L349.4 254.2C349.2 254.4 349.3 254.6 349.3 254.8ZM736.8 255.4C736.8 255.2 736.7 255 736.7 254.8C736.7 254.6 736.8 254.4 736.8 254.2L692 228.3C691.5 228.8 690.9 229 690.2 229C689.5 229 688.9 228.7 688.4 228.3L643.6 254.2C643.6 254.4 643.7 254.6 643.7 254.8C643.7 255 643.6 255.2 643.6 255.4L688.5 281.3C689 280.9 689.6 280.6 690.3 280.6C691 280.6 691.6 280.9 692.1 281.3L736.8 255.4ZM736.7 -255.2C736.7 -255.4 736.8 -255.6 736.8 -255.8L691.9 -281.7C691.4 -281.3 690.8 -281 690.1 -281C689.4 -281 688.8 -281.3 688.3 -281.7L643.4 -255.8C643.4 -255.6 643.5 -255.4 643.5 -255.2C643.5 -255 643.4 -254.8 643.4 -254.6L688.2 -228.7C688.7 -229.2 689.3 -229.4 690 -229.4C690.7 -229.4 691.3 -229.1 691.8 -228.7L736.6 -254.6C736.8 -254.7 736.7 -254.9 736.7 -255.2C736.7 -255.1 736.7 -255.1 736.7 -255.2C736.7 -255.1 736.7 -255.1 736.7 -255.2ZM349.2 -255.7C349.2 -255.5 349.3 -255.3 349.3 -255.1C349.3 -254.9 349.2 -254.7 349.2 -254.5L394 -228.6C394.5 -229.1 395.1 -229.3 395.8 -229.3C396.5 -229.3 397.1 -229 397.6 -228.6L442.4 -254.5C442.4 -254.7 442.3 -254.9 442.3 -255.1C442.3 -255.3 442.4 -255.5 442.4 -255.7L397.5 -281.6C397 -281.2 396.4 -280.9 395.7 -280.9C395 -280.9 394.4 -281.2 393.9 -281.6L349.2 -255.7Z" fill="url(#paint0_linear_2_339)"/>
<defs>
<linearGradient id="paint0_linear_2_339" x1="843.027" y1="-300.186" x2="242.999" y2="299.842" gradientUnits="userSpaceOnUse">
<stop stop-color="#F4682B"/>
<stop offset="1" stop-color="#FFB800" stop-opacity="0"/>
</linearGradient>
</defs>
</svg>
