<svg width="543" height="371" viewBox="0 0 543 371" fill="none" xmlns="http://www.w3.org/2000/svg">
<path d="M541.7 -0.100006C541.7 -0.200012 541.7 -0.200012 541.7 -0.100006C541.7 -0.200012 541.7 -0.200012 541.7 -0.100006C541.7 -0.200012 541.7 -0.200012 541.7 -0.100006C541.7 -0.200012 541.7 -0.200012 541.7 -0.100006C541.7 -0.200012 541.7 -0.200012 541.7 -0.100006C541.7 -0.200012 541.7 -0.200012 541.7 -0.100006C541.7 -1.30002 540.9 -2.30002 539.8 -2.60001V-54.4C540.9 -54.7 541.7 -55.7 541.7 -56.8C541.7 -58.2 540.6 -59.4 539.1 -59.4C538.4 -59.4 537.8 -59.1 537.3 -58.7L492.5 -84.6C492.5 -84.8 492.6 -85 492.6 -85.2C492.6 -86.6 491.5 -87.8 490 -87.8C489.3 -87.8 488.7 -87.5 488.2 -87.1L443.4 -113C443.5 -113.2 443.5 -113.4 443.5 -113.6C443.5 -115 442.4 -116.2 440.9 -116.2C439.5 -116.2 438.3 -115.1 438.3 -113.6C438.3 -113.4 438.4 -113.2 438.4 -113L393.7 -87C393.4 -87.3 393 -87.5 392.6 -87.6V-139.4C393.7 -139.7 394.5 -140.7 394.5 -141.8C394.5 -143.2 393.4 -144.4 391.9 -144.4C391.2 -144.4 390.6 -144.1 390.1 -143.7L345.3 -169.6C345.3 -169.8 345.4 -170 345.4 -170.2C345.4 -171.6 344.3 -172.8 342.8 -172.8C342.1 -172.8 341.5 -172.5 341 -172.1L296.2 -198C296.3 -198.2 296.3 -198.4 296.3 -198.6C296.3 -200 295.2 -201.2 293.7 -201.2C292.3 -201.2 291.1 -200.1 291.1 -198.6C291.1 -198.4 291.2 -198.2 291.2 -198L246.5 -172C246.2 -172.3 245.8 -172.5 245.4 -172.6V-224.4C246.5 -224.7 247.3 -225.7 247.3 -226.8C247.3 -228.2 246.2 -229.4 244.7 -229.4C244 -229.4 243.4 -229.1 242.9 -228.7L198.1 -254.5C198.1 -254.7 198.2 -254.9 198.2 -255.1C198.2 -256.5 197.1 -257.7 195.6 -257.7C194.9 -257.7 194.3 -257.4 193.8 -257L149 -282.9C149.1 -283.1 149.1 -283.3 149.1 -283.5C149.1 -284.9 148 -286.1 146.5 -286.1C145.1 -286.1 143.9 -285 143.9 -283.5C143.9 -283.3 144 -283.1 144 -282.9L99.3 -257C99 -257.3 98.6 -257.5 98.2 -257.6V-309.4C99.2999 -309.7 100.1 -310.7 100.1 -311.8C100.1 -313.2 99 -314.4 97.5 -314.4C96.8 -314.4 96.2 -314.1 95.7 -313.7L50.9 -339.6C50.9 -339.8 51 -340 51 -340.2C51 -341.6 49.9 -342.8 48.4 -342.8C47.7 -342.8 47.1 -342.5 46.6 -342.1L38.4 -346.8L1.79999 -367.8C1.89996 -368 1.89996 -368.2 1.89996 -368.4C1.89996 -369.8 0.799988 -371 -0.700012 -371C-2.10004 -371 -3.30005 -369.9 -3.30005 -368.4C-3.30005 -368.2 -3.20001 -368 -3.20001 -367.8L-39.8 -346.7L-48 -342C-48.5 -342.5 -49.1 -342.7 -49.8 -342.7C-51.2 -342.7 -52.4 -341.6 -52.4 -340.1C-52.4 -339.9 -52.3 -339.7 -52.3 -339.5L-97.1 -313.6C-97.6 -314.1 -98.2 -314.3 -98.9 -314.3C-100.3 -314.3 -101.5 -313.2 -101.5 -311.7C-101.5 -310.5 -100.7 -309.6 -99.6 -309.3V-257.5C-100 -257.4 -100.4 -257.2 -100.7 -256.9L-145.5 -282.8C-145.4 -283 -145.4 -283.2 -145.4 -283.4C-145.4 -284.8 -146.5 -286 -148 -286C-149.4 -286 -150.6 -284.9 -150.6 -283.4C-150.6 -283.2 -150.5 -283 -150.5 -282.8L-195.1 -257C-195.6 -257.5 -196.2 -257.7 -196.9 -257.7C-198.3 -257.7 -199.5 -256.6 -199.5 -255.1C-199.5 -254.9 -199.4 -254.7 -199.4 -254.5L-244.2 -228.6C-244.7 -229.1 -245.3 -229.3 -246 -229.3C-247.4 -229.3 -248.6 -228.2 -248.6 -226.7C-248.6 -225.5 -247.8 -224.6 -246.7 -224.3V-172.5C-247.1 -172.4 -247.5 -172.2 -247.8 -171.9L-292.6 -197.8C-292.5 -198 -292.5 -198.2 -292.5 -198.4C-292.5 -199.8 -293.6 -201 -295.1 -201C-296.5 -201 -297.7 -199.9 -297.7 -198.4C-297.7 -198.2 -297.6 -198 -297.6 -197.8L-342.3 -172C-342.8 -172.5 -343.4 -172.7 -344.1 -172.7C-345.5 -172.7 -346.7 -171.6 -346.7 -170.1C-346.7 -169.9 -346.6 -169.7 -346.6 -169.5L-391.4 -143.6C-391.9 -144.1 -392.5 -144.3 -393.2 -144.3C-394.6 -144.3 -395.8 -143.2 -395.8 -141.7C-395.8 -140.5 -395 -139.6 -393.9 -139.3V-87.5C-394.3 -87.4 -394.7 -87.2 -395 -86.9L-439.8 -112.8C-439.7 -113 -439.7 -113.2 -439.7 -113.4C-439.7 -114.8 -440.8 -116 -442.3 -116C-443.7 -116 -444.9 -114.9 -444.9 -113.4C-444.9 -113.2 -444.8 -113 -444.8 -112.8L-489.5 -87C-490 -87.5 -490.6 -87.7 -491.3 -87.7C-492.7 -87.7 -493.9 -86.6 -493.9 -85.1C-493.9 -84.9 -493.8 -84.7 -493.8 -84.5L-538.6 -58.7C-539.1 -59.2 -539.7 -59.4 -540.4 -59.4C-541.8 -59.4 -543 -58.3 -543 -56.8C-543 -55.6 -542.2 -54.7 -541.1 -54.4V-2.60001C-542.2 -2.30002 -543 -1.30002 -543 -0.200012C-543 1 -542.2 1.90002 -541.1 2.20001V54C-542.2 54.3 -543 55.3 -543 56.4C-543 57.8 -541.9 59 -540.4 59C-539.7 59 -539.1 58.7 -538.6 58.3L-493.8 84.2C-493.8 84.4 -493.9 84.6 -493.9 84.8C-493.9 86.2 -492.8 87.4 -491.3 87.4C-490.6 87.4 -490 87.1 -489.5 86.7L-444.7 112.6C-444.8 112.8 -444.8 113 -444.8 113.2C-444.8 114.6 -443.7 115.8 -442.2 115.8C-440.8 115.8 -439.6 114.7 -439.6 113.2C-439.6 113 -439.7 112.8 -439.7 112.6L-394.9 86.7C-394.6 87 -394.2 87.2 -393.8 87.3V139.1C-394.9 139.4 -395.7 140.4 -395.7 141.5C-395.7 142.9 -394.6 144.1 -393.1 144.1C-392.4 144.1 -391.8 143.8 -391.3 143.4L-346.5 169.3C-346.5 169.5 -346.6 169.7 -346.6 169.9C-346.6 171.3 -345.5 172.5 -344 172.5C-343.3 172.5 -342.7 172.2 -342.2 171.8L-297.4 197.7C-297.5 197.9 -297.5 198.1 -297.5 198.3C-297.5 199.7 -296.4 200.9 -294.9 200.9C-293.5 200.9 -292.3 199.8 -292.3 198.3C-292.3 198.1 -292.4 197.9 -292.4 197.7L-247.6 171.8C-247.3 172.1 -246.9 172.3 -246.5 172.4V224.2C-247.6 224.5 -248.4 225.5 -248.4 226.6C-248.4 228 -247.3 229.2 -245.8 229.2C-245.1 229.2 -244.5 228.9 -244 228.5L-199.2 254.4C-199.2 254.6 -199.3 254.8 -199.3 255C-199.3 256.4 -198.2 257.6 -196.7 257.6C-196 257.6 -195.4 257.3 -194.9 256.9L-150.1 282.8C-150.2 283 -150.2 283.2 -150.2 283.4C-150.2 284.8 -149.1 286 -147.6 286C-146.2 286 -145 284.9 -145 283.4C-145 283.2 -145.1 283 -145.1 282.8L-100.3 256.9C-100 257.2 -99.6 257.4 -99.2 257.5V309.3C-100.3 309.6 -101.1 310.6 -101.1 311.7C-101.1 313.1 -100 314.3 -98.5 314.3C-97.8 314.3 -97.2 314 -96.7 313.6L-51.9 339.5C-51.9 339.7 -52 339.9 -52 340.1C-52 341.5 -50.9 342.7 -49.4 342.7C-48.7 342.7 -48.1 342.4 -47.6 342L-39.4 346.7L-2.80005 367.8C-2.90002 368 -2.90002 368.2 -2.90002 368.4C-2.90002 369.8 -1.80005 371 -0.300049 371C1.09998 371 2.29999 369.9 2.29999 368.4C2.29999 368.2 2.19995 368 2.19995 367.8L38.8 346.7L47 342C47.5 342.5 48.1 342.7 48.8 342.7C50.2 342.7 51.4 341.6 51.4 340.1C51.4 339.9 51.3 339.7 51.3 339.5L96.1 313.6C96.6 314.1 97.2 314.3 97.9 314.3C99.3 314.3 100.5 313.2 100.5 311.7C100.5 310.5 99.7 309.6 98.6 309.3V257.5C99 257.4 99.4 257.2 99.7 256.9L144.5 282.8C144.4 283 144.4 283.2 144.4 283.4C144.4 284.8 145.5 286 147 286C148.4 286 149.6 284.9 149.6 283.4C149.6 283.2 149.5 283 149.5 282.8L194.3 256.9C194.8 257.4 195.4 257.6 196.1 257.6C197.5 257.6 198.7 256.5 198.7 255C198.7 254.8 198.6 254.6 198.6 254.4L243.4 228.5C243.9 229 244.5 229.2 245.2 229.2C246.6 229.2 247.8 228.1 247.8 226.6C247.8 225.4 247 224.5 245.9 224.2V172.4C246.3 172.3 246.7 172.1 247 171.8L291.8 197.7C291.7 197.9 291.7 198.1 291.7 198.3C291.7 199.7 292.8 200.9 294.3 200.9C295.7 200.9 296.9 199.8 296.9 198.3C296.9 198.1 296.8 197.9 296.8 197.7L341.6 171.8C342.1 172.3 342.7 172.5 343.4 172.5C344.8 172.5 346 171.4 346 169.9C346 169.7 345.9 169.5 345.9 169.3L390.7 143.4C391.2 143.9 391.8 144.1 392.5 144.1C393.9 144.1 395.1 143 395.1 141.5C395.1 140.3 394.3 139.4 393.2 139.1V87.3C393.6 87.2 394 87 394.3 86.7L439.1 112.6C439 112.8 439 113 439 113.2C439 114.6 440.1 115.8 441.6 115.8C443 115.8 444.2 114.7 444.2 113.2C444.2 113 444.1 112.8 444.1 112.6L488.9 86.7C489.4 87.2 490 87.4 490.7 87.4C492.1 87.4 493.3 86.3 493.3 84.8C493.3 84.6 493.2 84.4 493.2 84.2L538 58.3C538.5 58.8 539.1 59 539.8 59C541.2 59 542.4 57.9 542.4 56.4C542.4 55.2 541.6 54.3 540.5 54V2.20001C540.9 2 541.7 1 541.7 -0.100006ZM538.4 -54.4V-2.60001C538 -2.5 537.6 -2.29999 537.3 -2L492.5 -27.9C492.5 -28.1 492.6 -28.3 492.6 -28.5C492.6 -29.7 491.8 -30.6 490.7 -30.9V-82.7C491.1 -82.8 491.5 -83 491.8 -83.3L536.6 -57.4C536.6 -57.2 536.5 -57 536.5 -56.8C536.6 -55.7 537.4 -54.7 538.4 -54.4ZM442.8 -111.7L487.7 -85.8C487.7 -85.6 487.6 -85.4 487.6 -85.2C487.6 -85 487.7 -84.8 487.7 -84.6L442.9 -58.7C442.4 -59.2 441.8 -59.4 441.1 -59.4C440.4 -59.4 439.8 -59.1 439.3 -58.7L394.5 -84.6C394.5 -84.8 394.6 -85 394.6 -85.2C394.6 -85.4 394.5 -85.6 394.5 -85.8L439.4 -111.7C439.9 -111.3 440.5 -111 441.2 -111C441.7 -110.9 442.3 -111.2 442.8 -111.7ZM391.2 -139.4V-87.6C390.8 -87.5 390.4 -87.3 390.1 -87L345.3 -112.9C345.4 -113.1 345.4 -113.3 345.4 -113.5C345.4 -114.7 344.6 -115.6 343.5 -115.9V-167.7C343.9 -167.8 344.3 -168 344.6 -168.3L389.4 -142.4C389.4 -142.2 389.3 -142 389.3 -141.8C389.4 -140.7 390.2 -139.7 391.2 -139.4ZM295.6 -196.6L340.5 -170.7C340.5 -170.5 340.4 -170.3 340.4 -170.1C340.4 -169.9 340.5 -169.7 340.5 -169.5L295.7 -143.6C295.2 -144.1 294.6 -144.3 293.9 -144.3C293.2 -144.3 292.6 -144 292.1 -143.6L247.3 -169.5C247.3 -169.7 247.4 -169.9 247.4 -170.1C247.4 -170.3 247.3 -170.5 247.3 -170.7L292.2 -196.6C292.7 -196.2 293.3 -195.9 294 -195.9C294.5 -195.9 295.1 -196.2 295.6 -196.6ZM244 -224.4V-172.6C243.6 -172.5 243.2 -172.3 242.9 -172L198.1 -197.9C198.2 -198.1 198.2 -198.3 198.2 -198.5C198.2 -199.7 197.4 -200.6 196.3 -200.9V-252.7C196.7 -252.8 197.1 -253 197.4 -253.3L242.2 -227.4C242.2 -227.2 242.1 -227 242.1 -226.8C242.2 -225.7 243 -224.7 244 -224.4ZM96.8 -309.4V-257.6C96.4 -257.5 95.9999 -257.3 95.7 -257L50.9 -282.9C50.9999 -283.1 51 -283.3 51 -283.5C51 -284.7 50.2 -285.6 49.1 -285.9V-337.7C49.5 -337.8 49.9 -338 50.2 -338.3L95.1 -312.4C95.1 -312.2 95 -312 95 -311.8C95 -310.6 95.8 -309.7 96.8 -309.4ZM1.19995 -366.6L46 -340.7C46 -340.5 45.9 -340.3 45.9 -340.1C45.9 -339.9 46 -339.7 46 -339.5L1.19995 -313.6C0.699951 -314.1 0.0999756 -314.3 -0.600037 -314.3C-1.30005 -314.3 -1.90002 -314 -2.40002 -313.6L-47.2 -339.5C-47.2 -339.7 -47.1 -339.9 -47.1 -340.1C-47.1 -340.3 -47.2 -340.5 -47.2 -340.7L-2.40002 -366.6C-1.90002 -366.2 -1.30005 -365.9 -0.600037 -365.9C0.0999756 -365.9 0.699951 -366.2 1.19995 -366.6ZM-96.2 -311.8C-96.2 -312 -96.3 -312.2 -96.3 -312.4L-51.5 -338.3C-51.2 -338 -50.8 -337.8 -50.4 -337.7V-285.9C-51.5 -285.6 -52.3 -284.6 -52.3 -283.5C-52.3 -283.3 -52.2 -283.1 -52.2 -282.9L-96.9 -257C-97.2 -257.3 -97.6 -257.5 -98 -257.6V-309.4C-97 -309.7 -96.2 -310.6 -96.2 -311.8ZM-243.4 -226.8C-243.4 -227 -243.5 -227.2 -243.5 -227.4L-198.7 -253.3C-198.4 -253 -198 -252.8 -197.6 -252.7V-200.9C-198.7 -200.6 -199.5 -199.6 -199.5 -198.5C-199.5 -198.3 -199.4 -198.1 -199.4 -197.9L-244.1 -172C-244.4 -172.3 -244.8 -172.5 -245.2 -172.6V-224.4C-244.2 -224.7 -243.4 -225.7 -243.4 -226.8ZM-293.2 -196.6L-248.3 -170.7C-248.3 -170.5 -248.4 -170.3 -248.4 -170.1C-248.4 -169.9 -248.3 -169.7 -248.3 -169.5L-293.1 -143.6C-293.6 -144.1 -294.2 -144.3 -294.9 -144.3C-295.6 -144.3 -296.2 -144 -296.7 -143.6L-341.5 -169.5C-341.5 -169.7 -341.4 -169.9 -341.4 -170.1C-341.4 -170.3 -341.5 -170.5 -341.5 -170.7L-296.6 -196.6C-296.1 -196.2 -295.5 -195.9 -294.8 -195.9C-294.3 -195.9 -293.7 -196.2 -293.2 -196.6ZM-390.6 -141.8C-390.6 -142 -390.7 -142.2 -390.7 -142.4L-345.9 -168.3C-345.6 -168 -345.2 -167.8 -344.8 -167.7V-115.9C-345.9 -115.6 -346.7 -114.6 -346.7 -113.5C-346.7 -113.3 -346.6 -113.1 -346.6 -112.9L-391.3 -87C-391.6 -87.3 -392 -87.5 -392.4 -87.6V-139.4C-391.4 -139.7 -390.6 -140.7 -390.6 -141.8ZM-440.4 -111.7L-395.5 -85.8C-395.5 -85.6 -395.6 -85.4 -395.6 -85.2C-395.6 -85 -395.5 -84.8 -395.5 -84.6L-440.4 -58.7C-440.9 -59.1 -441.5 -59.4 -442.2 -59.4C-442.9 -59.4 -443.5 -59.1 -444 -58.7L-488.8 -84.6C-488.8 -84.8 -488.7 -85 -488.7 -85.2C-488.7 -85.4 -488.8 -85.6 -488.8 -85.8L-443.9 -111.7C-443.4 -111.3 -442.8 -111 -442.1 -111C-441.5 -110.9 -440.9 -111.2 -440.4 -111.7ZM-537.8 -56.9C-537.8 -57.1 -537.9 -57.3 -537.9 -57.5L-493.1 -83.4C-492.8 -83.1 -492.4 -82.9 -492 -82.8V-31C-493.1 -30.7 -493.9 -29.8 -493.9 -28.6C-493.9 -28.4 -493.8 -28.2 -493.8 -28L-496.9 -26.2L-538.5 -2C-538.8 -2.29999 -539.2 -2.5 -539.6 -2.60001V-31.6V-54.4C-538.6 -54.7 -537.8 -55.7 -537.8 -56.9ZM-539.6 54.1V2.29999C-539.2 2.19998 -538.8 2 -538.5 1.70001L-493.7 27.6C-493.7 27.8 -493.8 28 -493.8 28.2C-493.8 29.4 -493 30.3 -491.9 30.6V82.4C-492.3 82.5 -492.7 82.7 -493 83L-537.9 57.1C-537.9 56.9 -537.8 56.7 -537.8 56.5C-537.8 55.3 -538.6 54.4 -539.6 54.1ZM-444 111.3L-488.9 85.4C-488.9 85.2 -488.8 85 -488.8 84.8C-488.8 84.6 -488.9 84.4 -488.9 84.2L-444.1 58.3C-443.6 58.8 -443 59 -442.3 59C-441.6 59 -441 58.7 -440.5 58.3L-395.7 84.2C-395.7 84.4 -395.8 84.6 -395.8 84.8C-395.8 85 -395.7 85.2 -395.7 85.4L-440.6 111.3C-441.1 110.9 -441.7 110.6 -442.4 110.6C-442.9 110.6 -443.5 110.9 -444 111.3ZM-392.5 139.1V87.3C-392.1 87.2 -391.7 87 -391.4 86.7L-346.6 112.6C-346.7 112.8 -346.7 113 -346.7 113.2C-346.7 114.4 -345.9 115.3 -344.8 115.6V167.4C-345.2 167.5 -345.6 167.7 -345.9 168L-390.7 142.1C-390.7 141.9 -390.6 141.7 -390.6 141.5C-390.6 140.3 -391.4 139.4 -392.5 139.1ZM-296.8 196.3L-341.7 170.4C-341.7 170.2 -341.6 170 -341.6 169.8C-341.6 169.6 -341.7 169.4 -341.7 169.2L-296.9 143.3C-296.4 143.8 -295.8 144 -295.1 144C-294.4 144 -293.8 143.7 -293.3 143.3L-248.5 169.2C-248.5 169.4 -248.6 169.6 -248.6 169.8C-248.6 170 -248.5 170.2 -248.5 170.4L-293.4 196.3C-293.9 195.9 -294.5 195.6 -295.2 195.6C-295.7 195.6 -296.3 195.9 -296.8 196.3ZM-245.3 224.1V172.3C-244.9 172.2 -244.5 172 -244.2 171.7L-199.4 197.6C-199.5 197.8 -199.5 198 -199.5 198.2C-199.5 199.4 -198.7 200.3 -197.6 200.6V252.4C-198 252.5 -198.4 252.7 -198.7 253L-243.5 227.1C-243.5 226.9 -243.4 226.7 -243.4 226.5C-243.4 225.3 -244.2 224.4 -245.3 224.1ZM-98.1 309V257.2C-97.7 257.1 -97.3 256.9 -97 256.6L-52.2 282.5C-52.3 282.7 -52.3 282.9 -52.3 283.1C-52.3 284.3 -51.5 285.2 -50.4 285.5V337.3C-50.8 337.4 -51.2 337.6 -51.5 337.9L-96.3 312C-96.3 311.8 -96.2 311.6 -96.2 311.4C-96.2 310.3 -97 309.4 -98.1 309ZM-2.40002 366.3L-47.2 340.4C-47.2 340.2 -47.1 340 -47.1 339.8C-47.1 339.6 -47.2 339.4 -47.2 339.2L-2.40002 313.3C-1.90002 313.8 -1.30005 314 -0.600037 314C0.0999756 314 0.699951 313.7 1.19995 313.3L46 339.2C46 339.4 45.9 339.6 45.9 339.8C45.9 340 46 340.2 46 340.4L1.19995 366.3C0.699951 365.9 0.0999756 365.6 -0.600037 365.6C-1.30005 365.5 -1.90002 365.8 -2.40002 366.3ZM95 311.5C95 311.7 95.1 311.9 95.1 312.1L50.2 338C49.9 337.7 49.5 337.5 49.1 337.4V285.6C50.2 285.3 51 284.3 51 283.2C51 283 50.9 282.8 50.9 282.6L95.7 256.7C95.9999 257 96.4 257.2 96.8 257.3V309C95.8 309.4 95 310.3 95 311.5ZM242.2 226.5C242.2 226.7 242.3 226.9 242.3 227.1L197.4 253C197.1 252.7 196.7 252.5 196.3 252.4V200.6C197.4 200.3 198.2 199.3 198.2 198.2C198.2 198 198.1 197.8 198.1 197.6L242.9 171.7C243.2 172 243.6 172.2 244 172.3V224.1C243 224.4 242.2 225.3 242.2 226.5ZM292 196.3L247.1 170.4C247.1 170.2 247.2 170 247.2 169.8C247.2 169.6 247.1 169.4 247.1 169.2L291.9 143.3C292.4 143.8 293 144 293.7 144C294.4 144 295 143.7 295.5 143.3L340.3 169.2C340.3 169.4 340.2 169.6 340.2 169.8C340.2 170 340.3 170.2 340.3 170.4L295.4 196.3C294.9 195.9 294.3 195.6 293.6 195.6C293.1 195.6 292.5 195.9 292 196.3ZM389.4 141.5C389.4 141.7 389.5 141.9 389.5 142.1L344.6 168C344.3 167.7 343.9 167.5 343.5 167.4V115.6C344.6 115.3 345.4 114.3 345.4 113.2C345.4 113 345.3 112.8 345.3 112.6L390.1 86.7C390.4 87 390.8 87.2 391.2 87.3V139.1C390.2 139.4 389.4 140.3 389.4 141.5ZM439.2 111.3L394.3 85.4C394.3 85.2 394.4 85 394.4 84.8C394.4 84.6 394.3 84.4 394.3 84.2L439.2 58.3C439.7 58.7 440.3 59 441 59C441.7 59 442.3 58.7 442.8 58.3L487.6 84.2C487.6 84.4 487.5 84.6 487.5 84.8C487.5 85 487.6 85.2 487.6 85.4L442.7 111.3C442.2 110.9 441.6 110.6 440.9 110.6C440.3 110.6 439.7 110.9 439.2 111.3ZM536.6 56.5C536.6 56.7 536.7 56.9 536.7 57.1L491.9 83C491.6 82.7 491.2 82.5 490.8 82.4V30.6C491.9 30.3 492.7 29.4 492.7 28.2C492.7 28 492.6 27.8 492.6 27.6L496 25.6L537.4 1.70001C537.7 2 538.1 2.19998 538.5 2.29999V31.3V54.1C537.4 54.4 536.6 55.3 536.6 56.5ZM242.3 -170.7C242.3 -170.5 242.2 -170.3 242.2 -170.1C242.2 -169.9 242.3 -169.7 242.3 -169.5L218.9 -156L197.4 -143.6C196.9 -144.1 196.3 -144.3 195.6 -144.3C194.9 -144.3 194.3 -144 193.8 -143.6L149 -169.5C149 -169.7 149.1 -169.9 149.1 -170.1C149.1 -170.3 149 -170.5 149 -170.7L177.4 -187.1L193.8 -196.6C194.3 -196.2 194.9 -195.9 195.6 -195.9C196.3 -195.9 196.9 -196.2 197.4 -196.6L242.3 -170.7ZM-180.2 -188L-150.3 -170.7C-150.3 -170.5 -150.4 -170.3 -150.4 -170.1C-150.4 -169.9 -150.3 -169.7 -150.3 -169.5L-195.1 -143.6C-195.6 -144.1 -196.2 -144.3 -196.9 -144.3C-197.6 -144.3 -198.2 -144 -198.7 -143.6L-219.2 -155.4L-243.5 -169.5C-243.5 -169.7 -243.4 -169.9 -243.4 -170.1C-243.4 -170.3 -243.5 -170.5 -243.5 -170.7L-198.6 -196.6C-198.1 -196.2 -197.5 -195.9 -196.8 -195.9C-196.1 -195.9 -195.5 -196.2 -195 -196.6L-180.2 -188ZM-243.5 170.4C-243.5 170.2 -243.4 170 -243.4 169.8C-243.4 169.6 -243.5 169.4 -243.5 169.2L-220.8 156.1L-198.6 143.3C-198.1 143.8 -197.5 144 -196.8 144C-196.1 144 -195.5 143.7 -195 143.3L-150.2 169.2C-150.2 169.4 -150.3 169.6 -150.3 169.8C-150.3 170 -150.2 170.2 -150.2 170.4L-180.1 187.7L-195 196.3C-195.5 195.9 -196.1 195.6 -196.8 195.6C-197.5 195.6 -198.1 195.9 -198.6 196.3L-243.5 170.4ZM177.5 186.8L149.1 170.4C149.1 170.2 149.2 170 149.2 169.8C149.2 169.6 149.1 169.4 149.1 169.2L193.9 143.3C194.4 143.8 195 144 195.7 144C196.4 144 197 143.7 197.5 143.3L220.5 156.6L242.3 169.2C242.3 169.4 242.2 169.6 242.2 169.8C242.2 170 242.3 170.2 242.3 170.4L197.4 196.3C196.9 195.9 196.3 195.6 195.6 195.6C194.9 195.6 194.3 195.9 193.8 196.3L177.5 186.8ZM96.8 -252.7V-200.9C95.7 -200.6 94.9 -199.6 94.9 -198.5C94.9 -198.3 95 -198.1 95 -197.9L74.9 -186.3L50.3 -172C50 -172.3 49.6 -172.5 49.2 -172.6V-224.4C50.2999 -224.7 51.1 -225.7 51.1 -226.8C51.1 -227 51 -227.2 51 -227.4L68 -237.2L95.9 -253.3C95.9999 -253 96.4 -252.8 96.8 -252.7ZM-69.1 -237.2L-52.1 -227.4C-52.1 -227.2 -52.2 -227 -52.2 -226.8C-52.2 -225.6 -51.4 -224.7 -50.3 -224.4V-172.6C-50.7 -172.5 -51.1 -172.3 -51.4 -172L-78.1 -187.4L-96.2 -197.9C-96.1 -198.1 -96.1 -198.3 -96.1 -198.5C-96.1 -199.7 -96.9 -200.6 -98 -200.9V-252.7C-97.6 -252.8 -97.2 -253 -96.9 -253.3L-69.1 -237.2ZM-98.1 252.4V200.6C-97 200.3 -96.2 199.3 -96.2 198.2C-96.2 198 -96.3 197.8 -96.3 197.6L-76.7 186.3L-51.5 171.7C-51.2 172 -50.8 172.2 -50.4 172.3V224.1C-51.5 224.4 -52.3 225.4 -52.3 226.5C-52.3 226.7 -52.2 226.9 -52.2 227.1L-69.2 236.9L-97 253C-97.3 252.7 -97.6 252.5 -98.1 252.4ZM67.9 236.9L50.9 227.1C50.9 226.9 51 226.7 51 226.5C51 225.3 50.2 224.4 49.1 224.1V172.3C49.5 172.2 49.9 172 50.2 171.7L73.3 185.1L95 197.6C94.9 197.8 94.9 198 94.9 198.2C94.9 199.4 95.7 200.3 96.8 200.6V252.4C96.4 252.5 95.9999 252.7 95.7 253L67.9 236.9ZM536.6 -0.100006C536.6 0.100006 536.7 0.299988 536.7 0.5L491.9 26.4C491.4 25.9 490.8 25.7 490.1 25.7C489.4 25.7 488.8 26 488.3 26.4L443.5 0.5C443.5 0.299988 443.6 0.100006 443.6 -0.100006C443.6 -0.300018 443.5 -0.5 443.5 -0.700012L488.3 -26.6C488.8 -26.1 489.4 -25.9 490.1 -25.9C490.8 -25.9 491.4 -26.2 491.9 -26.6L536.7 -0.700012C536.6 -0.600006 536.6 -0.399994 536.6 -0.100006C536.6 -0.200012 536.6 -0.200012 536.6 -0.100006C536.6 -0.200012 536.6 -0.200012 536.6 -0.100006C536.6 -0.200012 536.6 -0.200012 536.6 -0.100006C536.6 -0.200012 536.6 -0.200012 536.6 -0.100006C536.6 -0.200012 536.6 -0.200012 536.6 -0.100006C536.6 -0.200012 536.6 -0.200012 536.6 -0.100006ZM391.2 -82.7V-30.9C390.1 -30.6 389.3 -29.7 389.3 -28.5C389.3 -28.3 389.4 -28.1 389.4 -27.9L378.1 -21.4L362.9 -12.6L344.7 -2C344.4 -2.29999 344 -2.5 343.6 -2.60001V-54.4C344.7 -54.7 345.5 -55.7 345.5 -56.8C345.5 -57 345.4 -57.2 345.4 -57.4L390.2 -83.3C390.4 -83 390.8 -82.9 391.2 -82.7ZM99.3 -196.6L144.2 -170.7C144.2 -170.5 144.1 -170.3 144.1 -170.1C144.1 -169.9 144.2 -169.7 144.2 -169.5L121.8 -156.5L99.4 -143.6C98.9 -144.1 98.3 -144.3 97.6 -144.3C96.9 -144.3 96.3 -144 95.8 -143.6L51 -169.5C51 -169.7 51.1 -169.9 51.1 -170.1C51.1 -170.3 51 -170.5 51 -170.7L78.9 -186.8L95.8 -196.6C96.3 -196.2 96.9 -195.9 97.6 -195.9C98.2 -195.9 98.8 -196.2 99.3 -196.6ZM-80 -186.9L-52.1 -170.8C-52.1 -170.6 -52.2 -170.4 -52.2 -170.2C-52.2 -170 -52.1 -169.8 -52.1 -169.6L-96.9 -143.7C-97.4 -144.2 -98 -144.4 -98.7 -144.4C-99.4 -144.4 -100 -144.1 -100.5 -143.7L-123.9 -157.2L-145.4 -169.6C-145.4 -169.8 -145.3 -170 -145.3 -170.2C-145.3 -170.4 -145.4 -170.6 -145.4 -170.8L-100.5 -196.7C-100 -196.3 -99.4 -196 -98.7 -196C-98 -196 -97.4 -196.3 -96.9 -196.7L-80 -186.9ZM-392.5 82.4V30.6C-391.4 30.3 -390.6 29.4 -390.6 28.2C-390.6 28 -390.7 27.8 -390.7 27.6L-379.4 21.1L-363.4 11.9L-345.9 1.79999C-345.6 2.09998 -345.2 2.29999 -344.8 2.39999V54.2C-345.9 54.5 -346.7 55.5 -346.7 56.6C-346.7 56.8 -346.6 57 -346.6 57.2L-391.4 83C-391.7 82.7 -392 82.5 -392.5 82.4ZM-100.5 196.3L-145.4 170.4C-145.4 170.2 -145.3 170 -145.3 169.8C-145.3 169.6 -145.4 169.4 -145.4 169.2L-125.4 157.7L-100.5 143.3C-100 143.8 -99.4 144 -98.7 144C-98 144 -97.4 143.7 -96.9 143.3L-52.1 169.2C-52.1 169.4 -52.2 169.6 -52.2 169.8C-52.2 170 -52.1 170.2 -52.1 170.4L-80 186.5L-96.9 196.3C-97.4 195.9 -98 195.6 -98.7 195.6C-99.4 195.6 -100.1 195.9 -100.5 196.3ZM78.8 186.5L50.9 170.4C50.9 170.2 51 170 51 169.8C51 169.6 50.9 169.4 50.9 169.2L95.7 143.3C96.2 143.8 96.8 144 97.5 144C98.2 144 98.8 143.7 99.3 143.3L123.3 157.2L144.1 169.2C144.1 169.4 144 169.6 144 169.8C144 170 144.1 170.2 144.1 170.4L99.2 196.3C98.7 195.9 98.1 195.6 97.4 195.6C96.7 195.6 96.1 195.9 95.6 196.3L78.8 186.5ZM195 -139.4V-87.6C194.6 -87.5 194.2 -87.3 193.9 -87L149.1 -112.9C149.2 -113.1 149.2 -113.3 149.2 -113.5C149.2 -114.7 148.4 -115.6 147.3 -115.9V-167.7C147.7 -167.8 148.1 -168 148.4 -168.3L193.2 -142.4C193.2 -142.2 193.1 -142 193.1 -141.8C193.1 -140.7 193.9 -139.7 195 -139.4ZM47.8 -224.4V-172.6C47.4 -172.5 46.9999 -172.3 46.7 -172L38.5 -176.7L24.5 -184.8L1.89996 -197.8C1.99994 -198 2 -198.2 2 -198.4C2 -199.6 1.19995 -200.5 0.0999756 -200.8V-252.6C0.5 -252.7 0.899963 -252.9 1.19995 -253.2L11.5 -247.3L46 -227.4C46 -227.2 45.9 -227 45.9 -226.8C45.9 -225.7 46.7 -224.7 47.8 -224.4ZM-194.3 -141.8C-194.3 -142 -194.4 -142.2 -194.4 -142.4L-149.6 -168.3C-149.3 -168 -148.9 -167.8 -148.5 -167.7V-115.9C-149.6 -115.6 -150.4 -114.7 -150.4 -113.5C-150.4 -113.3 -150.3 -113.1 -150.3 -112.9L-195.1 -87C-195.4 -87.3 -195.8 -87.5 -196.2 -87.6V-139.4C-195.1 -139.7 -194.3 -140.7 -194.3 -141.8ZM-196.2 139.1V87.3C-195.8 87.2 -195.4 87 -195.1 86.7L-150.3 112.6C-150.4 112.8 -150.4 113 -150.4 113.2C-150.4 114.4 -149.6 115.3 -148.5 115.6V167.4C-148.9 167.5 -149.3 167.7 -149.6 168L-194.4 142.1C-194.4 141.9 -194.3 141.7 -194.3 141.5C-194.3 140.3 -195.1 139.4 -196.2 139.1ZM-49 224.1V172.3C-48.6 172.2 -48.2 172 -47.9 171.7L-39.7 176.4L-29.2 182.5L-3.10004 197.6C-3.20001 197.8 -3.20001 198 -3.20001 198.2C-3.20001 199.4 -2.40002 200.3 -1.30005 200.6V252.4C-1.70007 252.5 -2.10004 252.7 -2.40002 253L-10.5 248.3L-47.3 227.1C-47.3 226.9 -47.2 226.7 -47.2 226.5C-47.1 225.3 -47.9 224.4 -49 224.1ZM193.1 141.5C193.1 141.7 193.2 141.9 193.2 142.1L148.4 168C148.1 167.7 147.7 167.5 147.3 167.4V115.6C148.4 115.3 149.2 114.4 149.2 113.2C149.2 113 149.1 112.8 149.1 112.6L193.9 86.7C194.2 87 194.6 87.2 195 87.3V139.1C193.9 139.4 193.1 140.3 193.1 141.5ZM438.4 -0.100006C438.4 0.100006 438.5 0.299988 438.5 0.5L393.7 26.4C393.2 25.9 392.6 25.7 391.9 25.7C391.2 25.7 390.6 26 390.1 26.4L345.3 0.5C345.3 0.299988 345.4 0.100006 345.4 -0.100006C345.4 -0.300018 345.3 -0.5 345.3 -0.700012L390.1 -26.6C390.6 -26.1 391.2 -25.9 391.9 -25.9C392.6 -25.9 393.2 -26.2 393.7 -26.6L438.5 -0.700012C438.5 -0.600006 438.4 -0.399994 438.4 -0.100006C438.4 -0.200012 438.4 -0.200012 438.4 -0.100006C438.4 -0.200012 438.4 -0.200012 438.4 -0.100006C438.4 -0.200012 438.4 -0.200012 438.4 -0.100006C438.4 -0.200012 438.4 -0.200012 438.4 -0.100006C438.4 -0.200012 438.4 -0.200012 438.4 -0.100006C438.4 -0.200012 438.4 -0.200012 438.4 -0.100006ZM96.8 -139.4V-87.6C96.4 -87.5 95.9999 -87.3 95.7 -87L50.9 -112.9C50.9999 -113.1 51 -113.3 51 -113.5C51 -114.7 50.2 -115.6 49.1 -115.9V-167.7C49.5 -167.8 49.9 -168 50.2 -168.3L95 -142.4C95 -142.2 94.9 -142 94.9 -141.8C94.9999 -140.7 95.8 -139.7 96.8 -139.4ZM-96.2 -141.8C-96.2 -142 -96.3 -142.2 -96.3 -142.4L-51.5 -168.3C-51.2 -168 -50.8 -167.8 -50.4 -167.7V-115.9C-51.5 -115.6 -52.3 -114.6 -52.3 -113.5C-52.3 -113.3 -52.2 -113.1 -52.2 -112.9L-96.9 -87C-97.2 -87.3 -97.6 -87.5 -98 -87.6V-139.4C-97 -139.7 -96.2 -140.7 -96.2 -141.8ZM-98.1 139.1V87.3C-97.7 87.2 -97.3 87 -97 86.7L-52.2 112.6C-52.3 112.8 -52.3 113 -52.3 113.2C-52.3 114.4 -51.5 115.3 -50.4 115.6V167.4C-50.8 167.5 -51.2 167.7 -51.5 168L-96.3 142.1C-96.3 141.9 -96.2 141.7 -96.2 141.5C-96.2 140.3 -97 139.4 -98.1 139.1ZM95 141.5C95 141.7 95.1 141.9 95.1 142.1L50.2 168C49.9 167.7 49.5 167.5 49.1 167.4V115.6C50.2 115.3 51 114.3 51 113.2C51 113 50.9 112.8 50.9 112.6L95.7 86.7C95.9999 87 96.4 87.2 96.8 87.3V139.1C95.8 139.4 95 140.3 95 141.5ZM340.3 -0.100006C340.3 0.100006 340.4 0.299988 340.4 0.5L295.6 26.4C295.1 25.9 294.5 25.7 293.8 25.7C293.1 25.7 292.5 26 292 26.4L263.9 10.2L247.2 0.600006C247.2 0.399994 247.3 0.200012 247.3 0C247.3 -0.200012 247.2 -0.399994 247.2 -0.600006L292 -26.5C292.5 -26 293.1 -25.8 293.8 -25.8C294.5 -25.8 295.1 -26.1 295.6 -26.5L329.7 -6.79999L340.4 -0.600006C340.4 -0.600006 340.3 -0.399994 340.3 -0.100006C340.3 -0.200012 340.3 -0.200012 340.3 -0.100006C340.3 -0.200012 340.3 -0.200012 340.3 -0.100006C340.3 -0.200012 340.3 -0.200012 340.3 -0.100006C340.3 -0.200012 340.3 -0.200012 340.3 -0.100006C340.3 -0.200012 340.3 -0.200012 340.3 -0.100006C340.3 -0.200012 340.3 -0.200012 340.3 -0.100006ZM11.9 -190.4L46 -170.7C46 -170.5 45.9 -170.3 45.9 -170.1C45.9 -169.9 46 -169.7 46 -169.5L21.7 -155.5L1.19995 -143.6C0.699951 -144.1 0.0999756 -144.3 -0.600037 -144.3C-1.30005 -144.3 -1.90002 -144 -2.40002 -143.6L-22.9 -155.5L-47.2 -169.5C-47.2 -169.7 -47.1 -169.9 -47.1 -170.1C-47.1 -170.3 -47.2 -170.5 -47.2 -170.7L-13.4 -190.2L-2.40002 -196.6C-1.90002 -196.2 -1.30005 -195.9 -0.600037 -195.9C0.0999756 -195.9 0.699951 -196.2 1.19995 -196.6L11.9 -190.4ZM-341.5 -0.200012C-341.5 -0.400024 -341.6 -0.599976 -341.6 -0.799988L-296.8 -26.7C-296.3 -26.2 -295.7 -26 -295 -26C-294.3 -26 -293.7 -26.3 -293.2 -26.7L-264.4 -10.1L-248.3 -0.799988C-248.3 -0.599976 -248.4 -0.400024 -248.4 -0.200012C-248.4 0 -248.3 0.199982 -248.3 0.399994L-293.1 26.3C-293.6 25.8 -294.2 25.6 -294.9 25.6C-295.6 25.6 -296.2 25.9 -296.7 26.3L-330.2 7L-341.7 0.399994C-341.6 0.199982 -341.5 0.0999756 -341.5 -0.200012ZM-14.8 189.1L-47.2 170.4C-47.2 170.2 -47.1 170 -47.1 169.8C-47.1 169.6 -47.2 169.4 -47.2 169.2L-24.5 156.1L-2.30005 143.3C-1.80005 143.8 -1.20001 144 -0.5 144C0.200012 144 0.799988 143.7 1.29999 143.3L23.5 156.1L46.2 169.2C46.2 169.4 46.1 169.6 46.1 169.8C46.1 170 46.2 170.2 46.2 170.4L13.5 189.3L1.39996 196.3C0.899963 195.9 0.299988 195.6 -0.400024 195.6C-1.10004 195.6 -1.70001 195.9 -2.20001 196.3L-14.8 189.1ZM-243.4 -0.200012C-243.4 -0.400024 -243.5 -0.599976 -243.5 -0.799988L-198.7 -26.7C-198.2 -26.2 -197.6 -26 -196.9 -26C-196.2 -26 -195.6 -26.3 -195.1 -26.7L-162.3 -7.79999L-150.2 -0.799988C-150.2 -0.599976 -150.3 -0.400024 -150.3 -0.200012C-150.3 0 -150.2 0.199982 -150.2 0.399994L-195 26.3C-195.5 25.8 -196.1 25.6 -196.8 25.6C-197.5 25.6 -198.1 25.9 -198.6 26.3L-231.9 7.20001L-243.5 0.5C-243.5 0.200012 -243.4 0.0999756 -243.4 -0.200012ZM-145.3 -0.200012C-145.3 -0.400024 -145.4 -0.599976 -145.4 -0.799988L-100.6 -26.7C-100.1 -26.2 -99.5 -26 -98.8 -26C-98.1 -26 -97.5 -26.3 -97 -26.7L-63.8 -7.5L-52.2 -0.799988C-52.2 -0.599976 -52.3 -0.400024 -52.3 -0.200012C-52.3 0 -52.2 0.199982 -52.2 0.399994L-97 26.3C-97.5 25.8 -98.1 25.6 -98.8 25.6C-99.5 25.6 -100.1 25.9 -100.6 26.3L-129.8 9.39999L-145.4 0.399994C-145.3 0.199982 -145.3 0.0999756 -145.3 -0.200012ZM44.1 -1.89999L46 -0.799988C46 -0.599976 45.9 -0.400024 45.9 -0.200012C45.9 0 46 0.199982 46 0.399994L38.4 4.79999L23.6 13.4L1.19995 26.3C0.699951 25.8 0.0999756 25.6 -0.600037 25.6C-1.30005 25.6 -1.90002 25.9 -2.40002 26.3L-17.7 17.5L-29.8 10.5L-39.7 4.79999L-45.3 1.60001L-47.3 0.399994C-47.3 0.199982 -47.2 0 -47.2 -0.200012C-47.2 -0.400024 -47.3 -0.599976 -47.3 -0.799988L-39.7 -5.20001L-24.9 -13.8L-2.5 -26.7C-2 -26.2 -1.40002 -26 -0.700012 -26C0 -26 0.599976 -26.3 1.09998 -26.7L16.7 -17.7L28.3 -11L38.4 -5.20001L44.1 -1.89999ZM47.8 31.2V54C46.7 54.3 45.9 55.2 45.9 56.4C45.9 56.6 46 56.8 46 57L20.4 71.8L1.19995 83C0.899963 82.7 0.5 82.5 0.0999756 82.4V30.6C1.19995 30.3 2 29.4 2 28.2C2 28 1.89996 27.8 1.89996 27.6L7.5 24.4L22.5 15.8L38.6 6.5L46.8 1.79999C47.1 2.09998 47.4999 2.29999 47.9 2.39999L47.8 31.2ZM-43.3 59.4L-47.2 57.1C-47.2 56.9 -47.1 56.7 -47.1 56.5C-47.1 55.3 -47.9 54.4 -49 54.1V2.29999C-48.6 2.19998 -48.2 2 -47.9 1.70001L-39.7 6.39999L-23.6 15.7L-3.10004 27.6C-3.10004 27.8 -3.20001 28 -3.20001 28.2C-3.20001 29.4 -2.40002 30.3 -1.30005 30.6V82.4C-1.70007 82.5 -2.10004 82.7 -2.40002 83L-20.3 72.7L-24.7 70.1L-43.3 59.4ZM-49 -31.6V-54.4C-47.9 -54.7 -47.1 -55.6 -47.1 -56.8C-47.1 -57 -47.2 -57.2 -47.2 -57.4L-21.6 -72.2L-2.30005 -83.3C-2.00006 -83 -1.60004 -82.8 -1.20001 -82.7V-30.9C-2.29999 -30.6 -3.10004 -29.7 -3.10004 -28.5C-3.10004 -28.3 -3 -28.1 -3 -27.9L-8.5 -24.7L-23.6 -16L-39.7 -6.70001L-47.9 -2C-48.2 -2.29999 -48.6 -2.5 -49 -2.60001V-31.6ZM41.8 -59.9L46 -57.5C46 -57.3 45.9 -57.1 45.9 -56.9C45.9 -55.7 46.7 -54.8 47.8 -54.5V-2.70001C47.4 -2.60001 46.9999 -2.39999 46.7 -2.10001L38.5 -6.79999L22.4 -16.1L1.89996 -28C1.89996 -28.2 2 -28.4 2 -28.6C2 -29.8 1.19995 -30.7 0.0999756 -31V-82.8C0.5 -82.9 0.899963 -83.1 1.19995 -83.4L19.1 -73L24.5 -69.9L41.8 -59.9ZM129 -9.5L144.1 -0.799988C144.1 -0.599976 144 -0.400024 144 -0.200012C144 0 144.1 0.199982 144.1 0.399994L99.3 26.3C98.8 25.8 98.2 25.6 97.5 25.6C96.8 25.6 96.2 25.9 95.7 26.3L63.2 7.60001L50.8 0.5C50.8 0.299988 50.9 0.100006 50.9 -0.100006C50.9 -0.300018 50.8 -0.5 50.8 -0.700012L95.6 -26.6C96.1 -26.1 96.7 -25.9 97.4 -25.9C98.1 -25.9 98.7 -26.2 99.2 -26.6L129 -9.5ZM95 84.8C95 85 95.1 85.2 95.1 85.4L50.2 111.3C49.7 110.9 49.1 110.6 48.4 110.6C47.7 110.6 47.1 110.9 46.6 111.3L38.3 106.5L7.09998 88.5L1.79999 85.4C1.79999 85.2 1.89996 85 1.89996 84.8C1.89996 84.6 1.79999 84.4 1.79999 84.2L4.89996 82.4L30.3 67.8L34.2 65.6L38.5 63.1L44.9 59.4L46.8 58.3C47.3 58.8 47.9 59 48.6 59C49.3 59 49.9 58.7 50.4 58.3L63.7 66L95.3 84.2C95 84.4 95 84.6 95 84.8ZM46.7 168L38.5 163.2L1.89996 142.1C1.89996 141.9 2 141.7 2 141.5C2 140.3 1.19995 139.4 0.0999756 139.1V87.3C0.5 87.2 0.899963 87 1.19995 86.7L19.9 97.5L46.1 112.6C46 112.8 46 113 46 113.2C46 114.4 46.8 115.3 47.9 115.6V167.4C47.3 167.5 46.9999 167.7 46.7 168ZM-47.9 168C-48.2 167.7 -48.6 167.5 -49 167.4V115.6C-47.9 115.3 -47.1 114.3 -47.1 113.2C-47.1 113 -47.2 112.8 -47.2 112.6L-21 97.5L-2.30005 86.7C-2.00006 87 -1.60004 87.2 -1.20001 87.3V139.1C-2.29999 139.4 -3.10004 140.4 -3.10004 141.5C-3.10004 141.7 -3 141.9 -3 142.1L-39.6 163.2L-47.9 168ZM-51.5 111.3L-96.4 85.4C-96.4 85.2 -96.3 85 -96.3 84.8C-96.3 84.6 -96.4 84.4 -96.4 84.2L-75.3 72L-51.5 58.3C-51 58.8 -50.4 59 -49.7 59C-49 59 -48.4 58.7 -47.9 58.3L-46.5 59.1L-39.6 63.1L-35.3 65.6L-3 84.3C-3 84.5 -3.10004 84.7 -3.10004 84.9C-3.10004 85.1 -3 85.3 -3 85.5L-8.70001 88.8L-39.6 106.6L-47.9 111.4C-48.4 111 -49 110.7 -49.7 110.7C-50.4 110.7 -51 110.9 -51.5 111.3ZM-98.1 82.4V30.6C-97 30.3 -96.2 29.4 -96.2 28.2C-96.2 28 -96.3 27.8 -96.3 27.6L-89.4 23.6L-72 13.5L-51.5 1.60001C-51.2 1.89999 -50.8 2.10001 -50.4 2.20001V31.2V54C-51.5 54.3 -52.3 55.2 -52.3 56.4C-52.3 56.6 -52.2 56.8 -52.2 57L-61.9 62.6L-97 83C-97.3 82.7 -97.6 82.5 -98.1 82.4ZM-96.2 -85.2C-96.2 -85.4 -96.3 -85.6 -96.3 -85.8L-51.4 -111.7C-50.9 -111.3 -50.3 -111 -49.6 -111C-48.9 -111 -48.3 -111.3 -47.8 -111.7L-39.5 -106.9L-7.70001 -88.6L-2.90002 -85.8C-2.90002 -85.6 -3 -85.4 -3 -85.2C-3 -85 -2.90002 -84.8 -2.90002 -84.6L-6.20001 -82.7L-31.4 -68.2L-35.3 -65.9L-39.5 -63.4L-46 -59.7L-47.8 -58.7C-48.3 -59.2 -48.9 -59.4 -49.6 -59.4C-50.3 -59.4 -50.9 -59.1 -51.4 -58.7L-64 -65.9L-96.3 -84.5C-96.3 -84.8 -96.2 -84.9 -96.2 -85.2ZM-47.9 -168.3L-39.7 -163.5L-3.10004 -142.4C-3.10004 -142.2 -3.20001 -142 -3.20001 -141.8C-3.20001 -140.6 -2.40002 -139.7 -1.30005 -139.4V-87.6C-1.70007 -87.5 -2.10004 -87.3 -2.40002 -87L-21.1 -97.8L-47.3 -112.9C-47.2 -113.1 -47.2 -113.3 -47.2 -113.5C-47.2 -114.7 -48 -115.6 -49.1 -115.9V-167.7C-48.6 -167.8 -48.2 -168 -47.9 -168.3ZM46.7 -168.3C46.9999 -168 47.4 -167.8 47.8 -167.7V-115.9C46.7 -115.6 45.9 -114.6 45.9 -113.5C45.9 -113.3 46 -113.1 46 -112.9L19.8 -97.8L1.19995 -87C0.899963 -87.3 0.5 -87.5 0.0999756 -87.6V-139.4C1.19995 -139.7 2 -140.7 2 -141.8C2 -142 1.89996 -142.2 1.89996 -142.4L38.5 -163.5L46.7 -168.3ZM50.2 -111.7L95.1 -85.8C95.1 -85.6 95 -85.4 95 -85.2C95 -85 95.1 -84.8 95.1 -84.6L72.4 -71.5L50.3 -58.7C49.8 -59.2 49.2 -59.4 48.5 -59.4C47.8 -59.4 47.2 -59.1 46.7 -58.7L45.4 -59.4L38.4 -63.4L34.2 -65.8L1.79999 -84.5C1.79999 -84.7 1.89996 -84.9 1.89996 -85.1C1.89996 -85.3 1.79999 -85.5 1.79999 -85.7L6.29999 -88.3L38.4 -106.8L46.7 -111.6C47.2 -111.2 47.8 -110.9 48.5 -110.9C49.1 -110.9 49.7999 -111.2 50.2 -111.7ZM96.8 -82.7V-30.9C95.7 -30.6 94.9 -29.7 94.9 -28.5C94.9 -28.3 95 -28.1 95 -27.9L88.2 -24L71.6 -14.4L50.3 -2C50 -2.29999 49.6 -2.5 49.2 -2.60001V-31.6V-54.4C50.2999 -54.7 51.1 -55.6 51.1 -56.8C51.1 -57 51 -57.2 51 -57.4L60.5 -62.9L95.8 -83.3C96 -83 96.4 -82.9 96.8 -82.7ZM96.8 31.2V82.4C96.4 82.5 95.9999 82.7 95.7 83L50.9 57.1C50.9 56.9 51 56.7 51 56.5C51 55.3 50.2 54.4 49.1 54.1V2.29999C49.5 2.19998 49.9 2 50.2 1.70001L69.6 12.9L95 27.6C95 27.8 94.9 28 94.9 28.2C94.9 29.4 95.7 30.3 96.8 30.6V31.2ZM-98.1 -31.6V-82.8C-97.7 -82.9 -97.3 -83.1 -97 -83.4L-52.2 -57.5C-52.2 -57.3 -52.3 -57.1 -52.3 -56.9C-52.3 -55.7 -51.5 -54.8 -50.4 -54.5V-2.70001C-50.8 -2.60001 -51.2 -2.39999 -51.5 -2.10001L-74.3 -15.2L-96.4 -27.9C-96.4 -28.1 -96.3 -28.3 -96.3 -28.5C-96.3 -29.7 -97.1 -30.6 -98.2 -30.9L-98.1 -31.6ZM231.3 -7.10001L242.3 -0.700012C242.3 -0.5 242.2 -0.300018 242.2 -0.100006C242.2 0.100006 242.3 0.299988 242.3 0.5L197.5 26.4C197 25.9 196.4 25.7 195.7 25.7C195 25.7 194.4 26 193.9 26.4L161.8 7.89999L149.1 0.600006C149.1 0.399994 149.2 0.200012 149.2 0C149.2 -0.200012 149.1 -0.399994 149.1 -0.600006L193.9 -26.5C194.4 -26 195 -25.8 195.7 -25.8C196.4 -25.8 197 -26.1 197.5 -26.5L231.3 -7.10001ZM-100.5 83L-145.3 57.1C-145.3 56.9 -145.2 56.7 -145.2 56.5C-145.2 55.3 -146 54.4 -147.1 54.1V2.29999C-146.7 2.19998 -146.3 2 -146 1.70001L-101.2 27.6C-101.2 27.8 -101.3 28 -101.3 28.2C-101.3 29.4 -100.5 30.3 -99.4 30.6V82.4C-99.9 82.5 -100.2 82.7 -100.5 83ZM99.3 -83.3L144.1 -57.4C144.1 -57.2 144 -57 144 -56.8C144 -55.6 144.8 -54.7 145.9 -54.4V-2.60001C145.5 -2.5 145.1 -2.29999 144.8 -2L100 -27.9C100 -28.1 100.1 -28.3 100.1 -28.5C100.1 -29.7 99.2999 -30.6 98.2 -30.9V-82.7C98.6 -82.9 99 -83 99.3 -83.3ZM195 31.2V82.4C194.6 82.5 194.2 82.7 193.9 83L149.1 57.1C149.1 56.9 149.2 56.7 149.2 56.5C149.2 55.3 148.4 54.4 147.3 54.1V2.29999C147.7 2.19998 148.1 2 148.4 1.70001L171.4 15L193.2 27.6C193.2 27.8 193.1 28 193.1 28.2C193.1 29.4 193.9 30.3 195 30.6V31.2ZM133.1 63.5L99.3 83C99 82.7 98.6 82.5 98.2 82.4V30.6C99.2999 30.3 100.1 29.3 100.1 28.2C100.1 28 100 27.8 100 27.6L106.6 23.8L144.8 1.70001C145.1 2 145.5 2.19998 145.9 2.29999V31.3V54.1C144.8 54.4 144 55.3 144 56.5C144 56.7 144.1 56.9 144.1 57.1L133.1 63.5ZM-160.2 62.9L-195.1 83C-195.4 82.7 -195.8 82.5 -196.2 82.4V30.6C-195.1 30.3 -194.3 29.3 -194.3 28.2C-194.3 28 -194.4 27.8 -194.4 27.6L-187.5 23.6L-170.3 13.6L-149.6 1.60001C-149.3 1.89999 -148.9 2.10001 -148.5 2.20001V31.2V54C-149.6 54.3 -150.4 55.2 -150.4 56.4C-150.4 56.6 -150.3 56.8 -150.3 57L-160.2 62.9ZM-196.2 -31.6V-82.8C-195.8 -82.9 -195.4 -83.1 -195.1 -83.4L-150.3 -57.5C-150.3 -57.3 -150.4 -57.1 -150.4 -56.9C-150.4 -55.7 -149.6 -54.8 -148.5 -54.5V-2.70001C-148.9 -2.60001 -149.3 -2.39999 -149.6 -2.10001L-172.3 -15.2L-194.4 -28C-194.4 -28.2 -194.3 -28.4 -194.3 -28.6C-194.3 -29.8 -195.1 -30.7 -196.2 -31V-31.6ZM-134.5 -63.7L-100.5 -83.3C-100.2 -83 -99.8 -82.8 -99.4 -82.7V-30.9C-100.5 -30.6 -101.3 -29.6 -101.3 -28.5C-101.3 -28.3 -101.2 -28.1 -101.2 -27.9L-107.9 -24L-146 -2C-146.3 -2.29999 -146.7 -2.5 -147.1 -2.60001V-31.6V-54.4C-146 -54.7 -145.2 -55.6 -145.2 -56.8C-145.2 -57 -145.3 -57.2 -145.3 -57.4L-134.5 -63.7ZM158.9 -63.2L193.9 -83.4C194.2 -83.1 194.6 -82.9 195 -82.8V-31C193.9 -30.7 193.1 -29.7 193.1 -28.6C193.1 -28.4 193.2 -28.2 193.2 -28L186.2 -24L173.6 -16.7L148.4 -2C148.1 -2.29999 147.7 -2.5 147.3 -2.60001V-31.6V-54.4C148.4 -54.7 149.2 -55.6 149.2 -56.8C149.2 -57 149.1 -57.2 149.1 -57.4L158.9 -63.2ZM129.2 102.3L99.9 85.4C99.9 85.2 100 85 100 84.8C100 84.6 99.9 84.4 99.9 84.2L112.1 77.1L144.7 58.3C145.2 58.8 145.8 59 146.5 59C147.2 59 147.8 58.7 148.3 58.3L162.2 66.3L193.2 84.2C193.2 84.4 193.1 84.6 193.1 84.8C193.1 85 193.2 85.2 193.2 85.4L148.3 111.3C147.8 110.9 147.2 110.6 146.5 110.6C145.8 110.6 145.2 110.9 144.7 111.3L129.2 102.3ZM-130.5 102.3L-146.1 111.3C-146.6 110.9 -147.2 110.6 -147.9 110.6C-148.6 110.6 -149.2 110.9 -149.7 111.3L-194.6 85.4C-194.6 85.2 -194.5 85 -194.5 84.8C-194.5 84.6 -194.6 84.4 -194.6 84.2L-181.9 76.9L-149.8 58.3C-149.3 58.8 -148.7 59 -148 59C-147.3 59 -146.7 58.7 -146.2 58.3L-130.8 67.2L-101.4 84.2C-101.4 84.4 -101.5 84.6 -101.5 84.8C-101.5 85 -101.4 85.2 -101.4 85.4L-130.5 102.3ZM-198.7 83L-243.5 57.1C-243.5 56.9 -243.4 56.7 -243.4 56.5C-243.4 55.3 -244.2 54.4 -245.3 54.1V2.29999C-244.9 2.19998 -244.5 2 -244.2 1.70001L-199.4 27.6C-199.4 27.8 -199.5 28 -199.5 28.2C-199.5 29.4 -198.7 30.3 -197.6 30.6V82.4C-198 82.5 -198.4 82.7 -198.7 83ZM-439.7 -0.200012C-439.7 -0.400024 -439.8 -0.599976 -439.8 -0.799988L-395 -26.7C-394.5 -26.2 -393.9 -26 -393.2 -26C-392.5 -26 -391.9 -26.3 -391.4 -26.7L-346.6 -0.799988C-346.6 -0.599976 -346.7 -0.400024 -346.7 -0.200012C-346.7 0 -346.6 0.199982 -346.6 0.399994L-391.4 26.3C-391.9 25.8 -392.5 25.6 -393.2 25.6C-393.9 25.6 -394.5 25.9 -395 26.3L-439.8 0.399994C-439.7 0.199982 -439.7 0.0999756 -439.7 -0.200012ZM-294.3 -30.9V-82.7C-293.9 -82.8 -293.5 -83 -293.2 -83.3L-248.4 -57.4C-248.4 -57.2 -248.5 -57 -248.5 -56.8C-248.5 -55.6 -247.7 -54.7 -246.6 -54.4V-2.60001C-247 -2.5 -247.4 -2.29999 -247.7 -2L-270.4 -15.1L-292.5 -27.9C-292.5 -28.1 -292.4 -28.3 -292.4 -28.5C-292.5 -29.7 -293.3 -30.6 -294.3 -30.9ZM-130.5 -102.7L-101.2 -85.8C-101.2 -85.6 -101.3 -85.4 -101.3 -85.2C-101.3 -85 -101.2 -84.8 -101.2 -84.6L-115.2 -76.5L-146 -58.7C-146.5 -59.2 -147.1 -59.4 -147.8 -59.4C-148.5 -59.4 -149.1 -59.1 -149.6 -58.7L-162.8 -66.3L-194.4 -84.6C-194.4 -84.8 -194.3 -85 -194.3 -85.2C-194.3 -85.4 -194.4 -85.6 -194.4 -85.8L-149.5 -111.7C-149 -111.3 -148.4 -111 -147.7 -111C-147 -111 -146.4 -111.3 -145.9 -111.7L-130.5 -102.7ZM129.2 -102.7L144.8 -111.7C145.3 -111.3 145.9 -111 146.6 -111C147.3 -111 147.9 -111.3 148.4 -111.7L193.3 -85.8C193.3 -85.6 193.2 -85.4 193.2 -85.2C193.2 -85 193.3 -84.8 193.3 -84.6L177.4 -75.4L148.5 -58.7C148 -59.2 147.4 -59.4 146.7 -59.4C146 -59.4 145.4 -59.1 144.9 -58.7L130.1 -67.3L100.1 -84.6C100.1 -84.8 100.2 -85 100.2 -85.2C100.2 -85.4 100.1 -85.6 100.1 -85.8L129.2 -102.7ZM197.4 -83.3L242.2 -57.4C242.2 -57.2 242.1 -57 242.1 -56.8C242.1 -55.6 242.9 -54.7 244 -54.4V-2.60001C243.6 -2.5 243.2 -2.29999 242.9 -2L198.1 -27.9C198.1 -28.1 198.2 -28.3 198.2 -28.5C198.2 -29.7 197.4 -30.6 196.3 -30.9V-82.7C196.8 -82.9 197.1 -83 197.4 -83.3ZM293.1 30.6V82.4C292.7 82.5 292.3 82.7 292 83L247.2 57.1C247.2 56.9 247.3 56.7 247.3 56.5C247.3 55.3 246.5 54.4 245.4 54.1V2.29999C245.8 2.19998 246.2 2 246.5 1.70001L267.1 13.6L291.3 27.6C291.3 27.8 291.2 28 291.2 28.2C291.2 29.3 292 30.3 293.1 30.6ZM235.9 60.8L197.4 83C197.1 82.7 196.7 82.5 196.3 82.4V30.6C197.4 30.3 198.2 29.4 198.2 28.2C198.2 28 198.1 27.8 198.1 27.6L204.2 24.1L243 1.70001C243.3 2 243.7 2.19998 244.1 2.29999V31.3V54.1C243 54.4 242.2 55.3 242.2 56.5C242.2 56.7 242.3 56.9 242.3 57.1L235.9 60.8ZM118.7 152.9L99.9 142.1C99.9 141.9 100 141.7 100 141.5C100 140.3 99.2 139.4 98.1 139.1V87.3C98.5 87.2 98.9 87 99.2 86.7L124.4 101.3L144 112.6C143.9 112.8 143.9 113 143.9 113.2C143.9 114.4 144.7 115.3 145.8 115.6V167.4C145.4 167.5 145 167.7 144.7 168L118.7 152.9ZM45.9 226.5C45.9 226.7 46 226.9 46 227.1L9.19995 248.3L1.09998 253C0.799988 252.7 0.400024 252.5 0 252.4V200.6C1.09998 200.3 1.89996 199.4 1.89996 198.2C1.89996 198 1.79999 197.8 1.79999 197.6L27.9 182.5L38.4 176.4L46.6 171.7C46.9 172 47.2999 172.2 47.7 172.3V224.1C46.7 224.4 45.9 225.3 45.9 226.5ZM-119 152.4L-146 168C-146.3 167.7 -146.7 167.5 -147.1 167.4V115.6C-146 115.3 -145.2 114.3 -145.2 113.2C-145.2 113 -145.3 112.8 -145.3 112.6L-124.7 100.7L-100.4 86.7C-100.1 87 -99.7 87.2 -99.3 87.3V139.1C-100.4 139.4 -101.2 140.4 -101.2 141.5C-101.2 141.7 -101.1 141.9 -101.1 142.1L-119 152.4ZM-263.1 65.6L-293.2 83C-293.5 82.7 -293.9 82.5 -294.3 82.4V30.6C-293.2 30.3 -292.4 29.3 -292.4 28.2C-292.4 28 -292.5 27.8 -292.5 27.6L-284.7 23.1L-268.3 13.6L-247.7 1.70001C-247.4 2 -247 2.19998 -246.6 2.29999V31.3V54.1C-247.7 54.4 -248.5 55.3 -248.5 56.5C-248.5 56.7 -248.4 56.9 -248.4 57.1L-263.1 65.6ZM-237.4 -61L-198.6 -83.4C-198.3 -83.1 -197.9 -82.9 -197.5 -82.8V-31C-198.6 -30.7 -199.4 -29.8 -199.4 -28.6C-199.4 -28.4 -199.3 -28.2 -199.3 -28L-205.5 -24.4L-244.1 -2C-244.4 -2.29999 -244.8 -2.5 -245.2 -2.60001V-31.6V-54.4C-244.1 -54.7 -243.3 -55.6 -243.3 -56.8C-243.3 -57 -243.4 -57.2 -243.4 -57.4L-237.4 -61ZM-119 -152.7L-101.2 -142.4C-101.2 -142.2 -101.3 -142 -101.3 -141.8C-101.3 -140.6 -100.5 -139.7 -99.4 -139.4V-87.6C-99.8 -87.5 -100.2 -87.3 -100.5 -87L-126.9 -102.3L-145.3 -112.9C-145.2 -113.1 -145.2 -113.3 -145.2 -113.5C-145.2 -114.7 -146 -115.6 -147.1 -115.9V-167.7C-146.7 -167.8 -146.3 -168 -146 -168.3L-119 -152.7ZM-47.1 -226.8C-47.1 -227 -47.2 -227.2 -47.2 -227.4L-12.7 -247.3L-2.40002 -253.2C-2.10004 -252.9 -1.70007 -252.7 -1.30005 -252.6V-200.8C-2.40002 -200.5 -3.20001 -199.5 -3.20001 -198.4C-3.20001 -198.2 -3.10004 -198 -3.10004 -197.8L-25.7 -184.8L-39.7 -176.7L-47.9 -172C-48.2 -172.3 -48.6 -172.5 -49 -172.6V-224.4C-47.9 -224.7 -47.1 -225.7 -47.1 -226.8ZM118.7 -153.3L144.8 -168.4C145.1 -168.1 145.5 -167.9 145.9 -167.8V-116C144.8 -115.7 144 -114.7 144 -113.6C144 -113.4 144.1 -113.2 144.1 -113L126.7 -102.9L99.3 -87C99 -87.3 98.6 -87.5 98.2 -87.6V-139.4C99.2999 -139.7 100.1 -140.7 100.1 -141.8C100.1 -142 100 -142.2 100 -142.4L118.7 -153.3ZM261.8 -65.9L292 -83.4C292.3 -83.1 292.7 -82.9 293.1 -82.8V-31C292 -30.7 291.2 -29.7 291.2 -28.6C291.2 -28.4 291.3 -28.2 291.3 -28L283.4 -23.4L269.2 -15.2L246.5 -2C246.2 -2.29999 245.8 -2.5 245.4 -2.60001V-31.6V-54.4C246.5 -54.7 247.3 -55.6 247.3 -56.8C247.3 -57 247.2 -57.2 247.2 -57.4L261.8 -65.9ZM391.2 30.6V82.4C390.8 82.5 390.4 82.7 390.1 83L345.3 57.1C345.3 56.9 345.4 56.7 345.4 56.5C345.4 55.3 344.6 54.4 343.5 54.1V2.29999C343.9 2.19998 344.3 2 344.6 1.70001L361 11.2L386 25.6L389.4 27.6C389.4 27.8 389.3 28 389.3 28.2C389.4 29.3 390.2 30.3 391.2 30.6ZM226.7 101.9L198.1 85.4C198.1 85.2 198.2 85 198.2 84.8C198.2 84.6 198.1 84.4 198.1 84.2L231.2 65.1L242.9 58.3C243.4 58.8 244 59 244.7 59C245.4 59 246 58.7 246.5 58.3L291.3 84.2C291.3 84.4 291.2 84.6 291.2 84.8C291.2 85 291.3 85.2 291.3 85.4L246.4 111.3C245.9 110.9 245.3 110.6 244.6 110.6C243.9 110.6 243.3 110.9 242.8 111.3L226.7 101.9ZM-227 101.4L-244.2 111.3C-244.7 110.9 -245.3 110.6 -246 110.6C-246.7 110.6 -247.3 110.9 -247.8 111.3L-292.7 85.4C-292.7 85.2 -292.6 85 -292.6 84.8C-292.6 84.6 -292.7 84.4 -292.7 84.2L-290.7 83.1L-247.8 58.3C-247.3 58.8 -246.7 59 -246 59C-245.3 59 -244.7 58.7 -244.2 58.3L-232.7 64.9L-199.4 84.1C-199.4 84.3 -199.5 84.5 -199.5 84.7C-199.5 84.9 -199.4 85.1 -199.4 85.3L-227 101.4ZM-296.8 83L-341.6 57.1C-341.6 56.9 -341.5 56.7 -341.5 56.5C-341.5 55.3 -342.3 54.4 -343.4 54.1V2.29999C-343 2.19998 -342.6 2 -342.3 1.70001L-297.5 27.6C-297.5 27.8 -297.6 28 -297.6 28.2C-297.6 29.4 -296.8 30.3 -295.7 30.6V82.4C-296.1 82.5 -296.5 82.7 -296.8 83ZM-392.5 -30.9V-82.7C-392.1 -82.8 -391.7 -83 -391.4 -83.3L-346.6 -57.4C-346.6 -57.2 -346.7 -57 -346.7 -56.8C-346.7 -55.6 -345.9 -54.7 -344.8 -54.4V-2.60001C-345.2 -2.5 -345.6 -2.29999 -345.9 -2L-365.6 -13.4L-387.4 -26L-390.8 -27.9C-390.8 -28.1 -390.7 -28.3 -390.7 -28.5C-390.6 -29.7 -391.4 -30.6 -392.5 -30.9ZM-335.6 -60.9L-296.8 -83.3C-296.5 -83 -296.1 -82.8 -295.7 -82.7V-30.9C-296.8 -30.6 -297.6 -29.7 -297.6 -28.5C-297.6 -28.3 -297.5 -28.1 -297.5 -27.9L-303.3 -24.6L-342.3 -2.10001C-342.6 -2.39999 -343 -2.60001 -343.4 -2.70001V-31.7V-54.5C-342.3 -54.8 -341.5 -55.7 -341.5 -56.9C-341.5 -57.1 -341.6 -57.3 -341.6 -57.5L-335.6 -60.9ZM-227 -101.7L-199.3 -85.7C-199.3 -85.5 -199.4 -85.3 -199.4 -85.1C-199.4 -84.9 -199.3 -84.7 -199.3 -84.5L-234.7 -64.1L-244.1 -58.7C-244.6 -59.2 -245.2 -59.4 -245.9 -59.4C-246.6 -59.4 -247.2 -59.1 -247.7 -58.7L-292.5 -84.6C-292.5 -84.8 -292.4 -85 -292.4 -85.2C-292.4 -85.4 -292.5 -85.6 -292.5 -85.8L-247.6 -111.7C-247.1 -111.3 -246.5 -111 -245.8 -111C-245.1 -111 -244.5 -111.3 -244 -111.7L-227 -101.7ZM226.7 -102.3L242.9 -111.7C243.4 -111.3 244 -111 244.7 -111C245.4 -111 246 -111.3 246.5 -111.7L291.4 -85.8C291.4 -85.6 291.3 -85.4 291.3 -85.2C291.3 -85 291.4 -84.8 291.4 -84.6L288.6 -83L246.6 -58.7C246.1 -59.2 245.5 -59.4 244.8 -59.4C244.1 -59.4 243.5 -59.1 243 -58.7L232.2 -64.9L198.1 -84.6C198.1 -84.8 198.2 -85 198.2 -85.2C198.2 -85.4 198.1 -85.6 198.1 -85.8L226.7 -102.3ZM295.6 -83.3L340.4 -57.4C340.4 -57.2 340.3 -57 340.3 -56.8C340.3 -55.6 341.1 -54.7 342.2 -54.4V-2.60001C341.8 -2.5 341.4 -2.29999 341.1 -2L296.3 -27.9C296.3 -28.1 296.4 -28.3 296.4 -28.5C296.4 -29.7 295.6 -30.6 294.5 -30.9V-82.7C294.9 -82.9 295.3 -83 295.6 -83.3ZM333.9 60.9L295.6 83C295.3 82.7 294.9 82.5 294.5 82.4V30.6C295.6 30.3 296.4 29.4 296.4 28.2C296.4 28 296.3 27.8 296.3 27.6L301.9 24.3L341.1 1.70001C341.4 2 341.8 2.19998 342.2 2.29999V31.3V54.1C341.1 54.4 340.3 55.3 340.3 56.5C340.3 56.7 340.4 56.9 340.4 57.1L333.9 60.9ZM213.7 151.1L198.1 142.1C198.1 141.9 198.2 141.7 198.2 141.5C198.2 140.3 197.4 139.4 196.3 139.1V87.3C196.7 87.2 197.1 87 197.4 86.7L219.5 99.5L242.2 112.6C242.1 112.8 242.1 113 242.1 113.2C242.1 114.4 242.9 115.3 244 115.6V167.4C243.6 167.5 243.2 167.7 242.9 168L213.7 151.1ZM-214.9 151.1L-244.2 168C-244.5 167.7 -244.9 167.5 -245.3 167.4V115.6C-244.2 115.3 -243.4 114.3 -243.4 113.2C-243.4 113 -243.5 112.8 -243.5 112.6L-221.8 100.1L-198.7 86.8C-198.4 87.1 -198 87.3 -197.6 87.4V139.2C-198.7 139.5 -199.5 140.5 -199.5 141.6C-199.5 141.8 -199.4 142 -199.4 142.2L-214.9 151.1ZM-537.8 -0.200012C-537.8 -0.400024 -537.9 -0.599976 -537.9 -0.799988L-493.1 -26.7C-492.6 -26.2 -492 -26 -491.3 -26C-490.6 -26 -490 -26.3 -489.5 -26.7L-444.7 -0.799988C-444.7 -0.599976 -444.8 -0.400024 -444.8 -0.200012C-444.8 0 -444.7 0.199982 -444.7 0.399994L-489.5 26.3C-490 25.8 -490.6 25.6 -491.3 25.6C-492 25.6 -492.6 25.9 -493.1 26.3L-537.9 0.399994C-537.9 0.199982 -537.8 0.0999756 -537.8 -0.200012ZM-214.9 -151.4L-199.3 -142.4C-199.3 -142.2 -199.4 -142 -199.4 -141.8C-199.4 -140.6 -198.6 -139.7 -197.5 -139.4V-87.6C-197.9 -87.5 -198.3 -87.3 -198.6 -87L-223.6 -101.4L-243.5 -112.9C-243.4 -113.1 -243.4 -113.3 -243.4 -113.5C-243.4 -114.7 -244.2 -115.6 -245.3 -115.9V-167.7C-244.9 -167.8 -244.5 -168 -244.2 -168.3L-214.9 -151.4ZM213.7 -151.4L242.9 -168.3C243.2 -168 243.6 -167.8 244 -167.7V-115.9C242.9 -115.6 242.1 -114.6 242.1 -113.5C242.1 -113.3 242.2 -113.1 242.2 -112.9L221.4 -100.9L197.4 -87C197.1 -87.3 196.7 -87.5 196.3 -87.6V-139.4C197.4 -139.7 198.2 -140.7 198.2 -141.8C198.2 -142 198.1 -142.2 198.1 -142.4L213.7 -151.4ZM443.4 57.1C443.4 56.9 443.5 56.7 443.5 56.5C443.5 55.3 442.7 54.4 441.6 54.1V2.29999C442 2.19998 442.4 2 442.7 1.70001L459.7 11.5L484.2 25.6L487.5 27.5C487.5 27.7 487.4 27.9 487.4 28.1C487.4 29.3 488.2 30.2 489.3 30.5V82.3C488.9 82.4 488.5 82.6 488.2 82.9L443.4 57.1ZM438.4 56.5C438.4 56.7 438.5 56.9 438.5 57.1L393.7 83C393.4 82.7 393 82.5 392.6 82.4V30.6C393.7 30.3 394.5 29.3 394.5 28.2C394.5 28 394.4 27.8 394.4 27.6L395.8 26.8L439.2 1.79999C439.5 2.09998 439.9 2.29999 440.3 2.39999V31.4V54.2C439.2 54.4 438.4 55.3 438.4 56.5ZM389.4 84.8C389.4 85 389.5 85.2 389.5 85.4L344.6 111.3C344.1 110.9 343.5 110.6 342.8 110.6C342.1 110.6 341.5 110.9 341 111.3L323.3 101.1L296.1 85.4C296.1 85.2 296.2 85 296.2 84.8C296.2 84.6 296.1 84.4 296.1 84.2L339.1 59.4L340.9 58.3C341.4 58.8 342 59 342.7 59C343.4 59 344 58.7 344.5 58.3L389.3 84.2C389.4 84.4 389.4 84.6 389.4 84.8ZM296.2 142.1C296.2 141.9 296.3 141.7 296.3 141.5C296.3 140.3 295.5 139.4 294.4 139.1V87.3C294.8 87.2 295.2 87 295.5 86.7L319.8 100.7L340.3 112.5C340.2 112.7 340.2 112.9 340.2 113.1C340.2 114.3 341 115.2 342.1 115.5V167.3C341.7 167.4 341.3 167.6 341 167.9L296.2 142.1ZM291.2 141.5C291.2 141.7 291.3 141.9 291.3 142.1L246.5 168C246.2 167.7 245.8 167.5 245.4 167.4V115.6C246.5 115.3 247.3 114.3 247.3 113.2C247.3 113 247.2 112.8 247.2 112.6L292 86.7C292.3 87 292.7 87.2 293.1 87.3V139.1C292 139.4 291.2 140.3 291.2 141.5ZM95 254.8C95 255 95.1 255.2 95.1 255.4L50.2 281.3C49.7 280.9 49.1 280.6 48.4 280.6C47.7 280.6 47.1 280.9 46.6 281.3L38.3 276.5L9.19995 259.7L1.69995 255.4C1.69995 255.2 1.79999 255 1.79999 254.8C1.79999 254.6 1.69995 254.4 1.69995 254.2L21.8 242.6L38.3 233.1L46.5 228.3C47 228.8 47.6 229 48.3 229C49 229 49.6 228.7 50.1 228.3L73.5 241.8L95 254.2C95 254.4 95 254.6 95 254.8ZM38.4 333.2L1.79999 312.1C1.79999 311.9 1.89996 311.7 1.89996 311.5C1.89996 310.3 1.09998 309.4 0 309.1V257.3C0.400024 257.2 0.799988 257 1.09998 256.7L19.9 267.5L46 282.5C45.9 282.7 45.9 282.9 45.9 283.1C45.9 284.3 46.7 285.2 47.8 285.5V337.3C47.4 337.4 46.9999 337.6 46.7 337.9L38.4 333.2ZM-39.6 333.2L-47.9 338C-48.2 337.7 -48.6 337.5 -49 337.4V285.6C-47.9 285.3 -47.1 284.3 -47.1 283.2C-47.1 283 -47.2 282.8 -47.2 282.6L-21.1 267.5L-2.30005 256.7C-2.00006 257 -1.60004 257.2 -1.20001 257.3V309C-2.29999 309.3 -3.10004 310.3 -3.10004 311.4C-3.10004 311.6 -3 311.8 -3 312L-39.6 333.2ZM-96.3 255.4C-96.3 255.2 -96.2 255 -96.2 254.8C-96.2 254.6 -96.3 254.4 -96.3 254.2L-72.9 240.7L-51.5 228.3C-51 228.8 -50.4 229 -49.7 229C-49 229 -48.4 228.7 -47.9 228.3L-39.7 233.1L-23.2 242.6L-3.10004 254.2C-3.10004 254.4 -3.20001 254.6 -3.20001 254.8C-3.20001 255 -3.10004 255.2 -3.10004 255.4L-11 260L-39.7 276.6L-48 281.4C-48.5 281 -49.1 280.7 -49.8 280.7C-50.5 280.7 -51.1 281 -51.6 281.4L-96.3 255.4ZM-292.6 142.1C-292.6 141.9 -292.5 141.7 -292.5 141.5C-292.5 140.3 -293.3 139.4 -294.4 139.1V87.3C-294 87.2 -293.6 87 -293.3 86.7L-248.5 112.6C-248.6 112.8 -248.6 113 -248.6 113.2C-248.6 114.4 -247.8 115.3 -246.7 115.6V167.4C-247.1 167.5 -247.5 167.7 -247.8 168L-292.6 142.1ZM-297.6 141.5C-297.6 141.7 -297.5 141.9 -297.5 142.1L-342.3 168C-342.6 167.7 -343 167.5 -343.4 167.4V115.6C-342.3 115.3 -341.5 114.3 -341.5 113.2C-341.5 113 -341.6 112.8 -341.6 112.6L-321.1 100.8L-296.8 86.8C-296.5 87.1 -296.1 87.3 -295.7 87.4V139.2C-296.8 139.4 -297.6 140.3 -297.6 141.5ZM-390.7 85.4C-390.7 85.2 -390.6 85 -390.6 84.8C-390.6 84.6 -390.7 84.4 -390.7 84.2L-354.1 63.1L-345.9 58.4C-345.4 58.9 -344.8 59.1 -344.1 59.1C-343.4 59.1 -342.8 58.8 -342.3 58.4L-331.1 64.9L-297.5 84.3C-297.5 84.5 -297.6 84.7 -297.6 84.9C-297.6 85.1 -297.5 85.3 -297.5 85.5L-324.7 101.2L-342.4 111.4C-342.9 111 -343.5 110.7 -344.2 110.7C-344.9 110.7 -345.5 111 -346 111.4L-390.7 85.4ZM-439.8 57.1C-439.8 56.9 -439.7 56.7 -439.7 56.5C-439.7 55.3 -440.5 54.4 -441.6 54.1V2.29999C-441.2 2.19998 -440.8 2 -440.5 1.70001L-395.7 27.6C-395.7 27.8 -395.8 28 -395.8 28.2C-395.8 29.4 -395 30.3 -393.9 30.6V82.4C-394.3 82.5 -394.7 82.7 -395 83L-439.8 57.1ZM-444.8 56.5C-444.8 56.7 -444.7 56.9 -444.7 57.1L-489.5 83C-489.8 82.7 -490.2 82.5 -490.6 82.4V30.6C-489.5 30.3 -488.7 29.4 -488.7 28.2C-488.7 28 -488.8 27.8 -488.8 27.6L-477.6 21.1L-459.5 10.6L-444 1.70001C-443.7 2 -443.3 2.19998 -442.9 2.29999V54.1C-444 54.4 -444.8 55.3 -444.8 56.5ZM-444.6 -57.5C-444.6 -57.3 -444.7 -57.1 -444.7 -56.9C-444.7 -55.7 -443.9 -54.8 -442.8 -54.5V-2.70001C-443.2 -2.60001 -443.6 -2.39999 -443.9 -2.10001L-461.1 -12L-485.6 -26L-488.9 -27.9C-488.9 -28.1 -488.8 -28.3 -488.8 -28.5C-488.8 -29.7 -489.6 -30.6 -490.7 -30.9V-82.7C-490.3 -82.8 -489.9 -83 -489.6 -83.3L-444.6 -57.5ZM-439.7 -56.9C-439.7 -57.1 -439.8 -57.3 -439.8 -57.5L-395 -83.4C-394.7 -83.1 -394.3 -82.9 -393.9 -82.8V-31C-395 -30.7 -395.8 -29.7 -395.8 -28.6C-395.8 -28.4 -395.7 -28.2 -395.7 -28L-397.3 -27.1L-440.5 -2.10001C-440.8 -2.39999 -441.2 -2.60001 -441.6 -2.70001V-31.7V-54.5C-440.5 -54.7 -439.7 -55.7 -439.7 -56.9ZM-390.6 -85.2C-390.6 -85.4 -390.7 -85.6 -390.7 -85.8L-345.8 -111.7C-345.3 -111.3 -344.7 -111 -344 -111C-343.3 -111 -342.7 -111.3 -342.2 -111.7L-324.5 -101.5L-297.3 -85.8C-297.3 -85.6 -297.4 -85.4 -297.4 -85.2C-297.4 -85 -297.3 -84.8 -297.3 -84.6L-342.1 -58.7C-342.6 -59.2 -343.2 -59.4 -343.9 -59.4C-344.6 -59.4 -345.2 -59.1 -345.7 -58.7L-390.5 -84.6C-390.7 -84.8 -390.6 -84.9 -390.6 -85.2ZM-297.4 -142.4C-297.4 -142.2 -297.5 -142 -297.5 -141.8C-297.5 -140.6 -296.7 -139.7 -295.6 -139.4V-87.6C-296 -87.5 -296.4 -87.3 -296.7 -87L-323.3 -102.3L-341.6 -112.8C-341.5 -113 -341.5 -113.2 -341.5 -113.4C-341.5 -114.6 -342.3 -115.5 -343.4 -115.8V-167.6C-343 -167.7 -342.6 -167.9 -342.3 -168.2L-297.4 -142.4ZM-292.5 -141.8C-292.5 -142 -292.6 -142.2 -292.6 -142.4L-247.8 -168.3C-247.5 -168 -247.1 -167.8 -246.7 -167.7V-115.9C-247.8 -115.6 -248.6 -114.6 -248.6 -113.5C-248.6 -113.3 -248.5 -113.1 -248.5 -112.9L-293.2 -87C-293.5 -87.3 -293.9 -87.5 -294.3 -87.6V-139.4C-293.3 -139.7 -292.5 -140.7 -292.5 -141.8ZM-96.2 -255.2C-96.2 -255.4 -96.3 -255.6 -96.3 -255.8L-51.4 -281.7C-50.9 -281.3 -50.3 -281 -49.6 -281C-48.9 -281 -48.3 -281.3 -47.8 -281.7L-39.5 -276.9L-10.8 -260.3L-2.90002 -255.7C-2.90002 -255.5 -3 -255.3 -3 -255.1C-3 -254.9 -2.90002 -254.7 -2.90002 -254.5L-23 -242.9L-39.5 -233.4L-47.7 -228.6C-48.2 -229.1 -48.8 -229.3 -49.5 -229.3C-50.2 -229.3 -50.8 -229 -51.3 -228.6L-72.9 -241L-96.3 -254.5C-96.3 -254.7 -96.2 -254.9 -96.2 -255.2C-96.2 -255.1 -96.2 -255.1 -96.2 -255.2C-96.2 -255.1 -96.2 -255.1 -96.2 -255.2ZM-39.6 -333.5L-3 -312.4C-3 -312.2 -3.10004 -312 -3.10004 -311.8C-3.10004 -310.6 -2.29999 -309.7 -1.20001 -309.4V-257.6C-1.60004 -257.5 -2.00006 -257.3 -2.30005 -257L-21.1 -267.8L-47.2 -282.9C-47.1 -283.1 -47.1 -283.3 -47.1 -283.5C-47.1 -284.7 -47.9 -285.6 -49 -285.9V-337.7C-48.6 -337.8 -48.2 -338 -47.9 -338.3L-39.6 -333.5ZM38.4 -333.5L46.6 -338.3C46.9 -338 47.2999 -337.8 47.7 -337.7V-285.9C46.6 -285.6 45.8 -284.6 45.8 -283.5C45.8 -283.3 45.9 -283.1 45.9 -282.9L19.8 -267.9L1.19995 -257C0.899963 -257.3 0.5 -257.5 0.0999756 -257.6V-309.4C1.19995 -309.7 2 -310.7 2 -311.8C2 -312 1.89996 -312.2 1.89996 -312.4L38.4 -333.5ZM95.1 -255.7C95.1 -255.5 95 -255.3 95 -255.1C95 -254.9 95.1 -254.7 95.1 -254.5L73.6 -242.1L50.2 -228.6C49.7 -229.1 49.1 -229.3 48.4 -229.3C47.7 -229.3 47.1 -229 46.6 -228.6L38.4 -233.4L21.9 -242.9L1.79999 -254.5C1.79999 -254.7 1.89996 -254.9 1.89996 -255.1C1.89996 -255.3 1.79999 -255.5 1.79999 -255.7L9.29999 -260L38.4 -276.8L46.7 -281.6C47.2 -281.2 47.8 -280.9 48.5 -280.9C49.2 -280.9 49.8 -281.2 50.3 -281.6L95.1 -255.7ZM291.3 -142.4C291.3 -142.2 291.2 -142 291.2 -141.8C291.2 -140.6 292 -139.7 293.1 -139.4V-87.6C292.7 -87.5 292.3 -87.3 292 -87L247.2 -112.9C247.3 -113.1 247.3 -113.3 247.3 -113.5C247.3 -114.7 246.5 -115.6 245.4 -115.9V-167.7C245.8 -167.8 246.2 -168 246.5 -168.3L291.3 -142.4ZM296.3 -141.8C296.3 -142 296.2 -142.2 296.2 -142.4L341 -168.3C341.3 -168 341.7 -167.8 342.1 -167.7V-115.9C341 -115.6 340.2 -114.6 340.2 -113.5C340.2 -113.3 340.3 -113.1 340.3 -112.9L322 -102.4L295.6 -87C295.3 -87.3 294.9 -87.5 294.5 -87.6V-139.4C295.5 -139.7 296.3 -140.7 296.3 -141.8ZM389.5 -85.8C389.5 -85.6 389.4 -85.4 389.4 -85.2C389.4 -85 389.5 -84.8 389.5 -84.6L352.5 -63.2L344.7 -58.7C344.2 -59.2 343.6 -59.4 342.9 -59.4C342.2 -59.4 341.6 -59.1 341.1 -58.7L330.3 -64.9L296.2 -84.6C296.2 -84.8 296.3 -85 296.3 -85.2C296.3 -85.4 296.2 -85.6 296.2 -85.8L323.4 -101.5L341.1 -111.7C341.6 -111.3 342.2 -111 342.9 -111C343.6 -111 344.2 -111.3 344.7 -111.7L389.5 -85.8ZM438.5 -57.4C438.5 -57.2 438.4 -57 438.4 -56.8C438.4 -55.6 439.2 -54.7 440.3 -54.4V-2.60001C439.9 -2.5 439.5 -2.29999 439.2 -2L394.4 -27.9C394.4 -28.1 394.5 -28.3 394.5 -28.5C394.5 -29.7 393.7 -30.6 392.6 -30.9V-82.7C393 -82.8 393.4 -83 393.7 -83.3L438.5 -57.4ZM443.5 -56.9C443.5 -57.1 443.4 -57.3 443.4 -57.5L488.2 -83.4C488.5 -83.1 488.9 -82.9 489.3 -82.8V-31C488.2 -30.7 487.4 -29.8 487.4 -28.6C487.4 -28.4 487.5 -28.2 487.5 -28L476.3 -21.5L461.5 -12.9L442.8 -2C442.5 -2.29999 442.1 -2.5 441.7 -2.60001V-54.4C442.7 -54.7 443.5 -55.7 443.5 -56.9ZM149 227.1C149 226.9 149.1 226.7 149.1 226.5C149.1 225.3 148.3 224.4 147.2 224.1V172.3C147.6 172.2 148 172 148.3 171.7L172.6 185.7L193.2 197.6C193.1 197.8 193.1 198 193.1 198.2C193.1 199.4 193.9 200.3 195 200.6V252.4C194.6 252.5 194.2 252.7 193.9 253L149 227.1ZM144 226.5C144 226.7 144.1 226.9 144.1 227.1L99.3 253C99 252.7 98.6 252.5 98.2 252.4V200.6C99.2999 200.3 100.1 199.3 100.1 198.2C100.1 198 100 197.8 100 197.6L144.8 171.7C145.1 172 145.5 172.2 145.9 172.3V224.1C144.8 224.4 144 225.3 144 226.5ZM-145.4 227.1C-145.4 226.9 -145.3 226.7 -145.3 226.5C-145.3 225.3 -146.1 224.4 -147.2 224.1V172.3C-146.8 172.2 -146.4 172 -146.1 171.7L-101.3 197.6C-101.4 197.8 -101.4 198 -101.4 198.2C-101.4 199.4 -100.6 200.3 -99.5 200.6V252.4C-99.9 252.5 -100.3 252.7 -100.6 253L-145.4 227.1ZM-150.4 226.5C-150.4 226.7 -150.3 226.9 -150.3 227.1L-195.1 253C-195.4 252.7 -195.8 252.5 -196.2 252.4V200.6C-195.1 200.3 -194.3 199.3 -194.3 198.2C-194.3 198 -194.4 197.8 -194.4 197.6L-172.7 185.1L-149.6 171.7C-149.3 172 -148.9 172.2 -148.5 172.3V224.1C-149.6 224.4 -150.4 225.3 -150.4 226.5ZM-150.2 -227.4C-150.2 -227.2 -150.3 -227 -150.3 -226.8C-150.3 -225.6 -149.5 -224.7 -148.4 -224.4V-172.6C-148.8 -172.5 -149.2 -172.3 -149.5 -172L-174.3 -186.3L-194.4 -197.9C-194.3 -198.1 -194.3 -198.3 -194.3 -198.5C-194.3 -199.7 -195.1 -200.6 -196.2 -200.9V-252.7C-195.8 -252.8 -195.4 -253 -195.1 -253.3L-150.2 -227.4ZM-145.3 -226.8C-145.3 -227 -145.4 -227.2 -145.4 -227.4L-100.6 -253.3C-100.3 -253 -99.9 -252.8 -99.5 -252.7V-200.9C-100.6 -200.6 -101.4 -199.6 -101.4 -198.5C-101.4 -198.3 -101.3 -198.1 -101.3 -197.9L-146 -172C-146.3 -172.3 -146.7 -172.5 -147.1 -172.6V-224.4C-146.1 -224.7 -145.3 -225.7 -145.3 -226.8ZM144.1 -227.4C144.1 -227.2 144 -227 144 -226.8C144 -225.6 144.8 -224.7 145.9 -224.4V-172.6C145.5 -172.5 145.1 -172.3 144.8 -172L100 -197.9C100.1 -198.1 100.1 -198.3 100.1 -198.5C100.1 -199.7 99.2999 -200.6 98.2 -200.9V-252.7C98.6 -252.8 99 -253 99.3 -253.3L144.1 -227.4ZM149.1 -226.8C149.1 -227 149 -227.2 149 -227.4L193.8 -253.3C194.1 -253 194.5 -252.8 194.9 -252.7V-200.9C193.8 -200.6 193 -199.6 193 -198.5C193 -198.3 193.1 -198.1 193.1 -197.9L174.1 -186.9L148.4 -172C148.1 -172.3 147.7 -172.5 147.3 -172.6V-224.4C148.3 -224.7 149.1 -225.7 149.1 -226.8ZM193.1 254.8C193.1 255 193.2 255.2 193.2 255.4L148.3 281.3C147.8 280.9 147.2 280.6 146.5 280.6C145.8 280.6 145.2 280.9 144.7 281.3L99.8 255.4C99.8 255.2 99.9 255 99.9 254.8C99.9 254.6 99.8 254.4 99.8 254.2L144.6 228.3C145.1 228.8 145.7 229 146.4 229C147.1 229 147.7 228.7 148.2 228.3L193 254.2C193.2 254.4 193.1 254.6 193.1 254.8ZM-194.4 255.4C-194.4 255.2 -194.3 255 -194.3 254.8C-194.3 254.6 -194.4 254.4 -194.4 254.2L-149.6 228.3C-149.1 228.8 -148.5 229 -147.8 229C-147.1 229 -146.5 228.7 -146 228.3L-101.2 254.2C-101.2 254.4 -101.3 254.6 -101.3 254.8C-101.3 255 -101.2 255.2 -101.2 255.4L-146.1 281.3C-146.6 280.9 -147.2 280.6 -147.9 280.6C-148.6 280.6 -149.2 280.9 -149.7 281.3L-194.4 255.4ZM-194.3 -255.2C-194.3 -255.4 -194.4 -255.6 -194.4 -255.8L-149.5 -281.7C-149 -281.3 -148.4 -281 -147.7 -281C-147 -281 -146.4 -281.3 -145.9 -281.7L-101 -255.8C-101 -255.6 -101.1 -255.4 -101.1 -255.2C-101.1 -255 -101 -254.8 -101 -254.6L-145.8 -228.7C-146.3 -229.2 -146.9 -229.4 -147.6 -229.4C-148.3 -229.4 -148.9 -229.1 -149.4 -228.7L-194.2 -254.6C-194.4 -254.7 -194.3 -254.9 -194.3 -255.2C-194.3 -255.1 -194.3 -255.1 -194.3 -255.2C-194.3 -255.1 -194.3 -255.1 -194.3 -255.2ZM193.2 -255.7C193.2 -255.5 193.1 -255.3 193.1 -255.1C193.1 -254.9 193.2 -254.7 193.2 -254.5L148.4 -228.6C147.9 -229.1 147.3 -229.3 146.6 -229.3C145.9 -229.3 145.3 -229 144.8 -228.6L100 -254.5C100 -254.7 100.1 -254.9 100.1 -255.1C100.1 -255.3 100 -255.5 100 -255.7L144.9 -281.6C145.4 -281.2 146 -280.9 146.7 -280.9C147.4 -280.9 148 -281.2 148.5 -281.6L193.2 -255.7Z" fill="url(#paint0_linear_184_583)"/>
<defs>
<linearGradient id="paint0_linear_184_583" x1="-300.627" y1="-300.186" x2="299.401" y2="299.842" gradientUnits="userSpaceOnUse">
<stop stop-color="#F4682B"/>
<stop offset="1" stop-color="#FFB800" stop-opacity="0"/>
</linearGradient>
</defs>
</svg>
