<svg width="40" height="41" viewBox="0 0 40 41" fill="none" xmlns="http://www.w3.org/2000/svg">
<path d="M36.0491 0.714283C34.9554 0.714283 33.9286 1.20536 33.1473 1.91964L18.9063 14.8438C17.5893 16.0491 16.8527 17.7902 16.8527 19.5759C16.8527 23.3259 19.933 26.5402 23.7054 26.5402C25.6027 26.5402 27.2098 25.7812 28.5714 24.5089C31.3616 21.942 37.2098 11.0268 38.9509 7.72321C39.4866 6.67411 39.9554 5.53571 39.9554 4.35268C39.9554 2.23214 38.0804 0.714283 36.0491 0.714283ZM15.7589 23.7946C10.7366 24.0179 7.76786 24.9107 5.87054 29.8661C5.66964 30.3795 5.20089 30.692 4.64286 30.692C3.70536 30.692 0.825893 28.3929 0 27.8348C0 34.6875 3.28125 40.7143 10.8482 40.7143C17.2321 40.7143 21.6518 36.3393 21.5179 29.9777L21.4955 28.3929C19.0402 27.7455 16.9196 26.0491 15.7589 23.7946Z" fill="#ED692F"/>
</svg>
