<svg width="166" height="48" viewBox="0 0 166 48" fill="none" xmlns="http://www.w3.org/2000/svg">
<path d="M45.4603 25.7778L49.2698 25.1429V29.2064H53.8413V32.381H49.2698V37.0794C49.2698 37.8413 49.3968 38.4762 49.6508 38.9841C49.9048 39.4921 50.5397 39.746 51.4286 39.746C51.8095 39.746 52.3175 39.746 52.6984 39.619C53.2064 39.4921 53.5873 39.3651 53.9683 39.2381L54.4762 42.1587C53.9683 42.2857 53.4603 42.5397 52.9524 42.6667C52.4444 42.7937 51.6825 42.9206 50.9206 42.9206C49.9048 42.9206 49.0159 42.7937 48.381 42.5397C47.746 42.2857 47.1111 41.9048 46.7302 41.3968C46.3492 40.8889 45.9683 40.254 45.8413 39.4921C45.7143 38.7302 45.5873 37.9683 45.5873 37.0794V25.7778H45.4603ZM68.5714 42.2857C67.9365 42.4127 67.0476 42.6667 66.0317 42.7937C65.0159 42.9206 63.873 43.0476 62.7302 43.0476C61.5873 43.0476 60.5714 42.9206 59.8095 42.5397C59.0476 42.2857 58.4127 41.7778 58.0317 41.2698C57.5238 40.7619 57.2698 40 57.1429 39.2381C57.0159 38.4762 56.8889 37.5873 56.8889 36.6984V29.2064H60.6984V36.3175C60.6984 37.5873 60.8254 38.4762 61.2064 38.9841C61.5873 39.4921 62.0952 39.746 62.9841 39.746C63.2381 39.746 63.4921 39.746 63.873 39.746C64.127 39.746 64.5079 39.619 64.6349 39.619V29.2064H68.4445V42.2857H68.5714ZM80.8889 36.0635C80.8889 34.9206 80.6349 33.9048 80.127 33.2698C79.619 32.5079 78.8571 32.254 77.7143 32.254C77.3333 32.254 77.0794 32.254 76.8254 32.254C76.5714 32.254 76.3175 32.254 76.0635 32.381V39.2381C76.3175 39.3651 76.5714 39.4921 76.9524 39.619C77.3333 39.746 77.7143 39.746 78.0952 39.746C79.873 39.746 80.8889 38.4762 80.8889 36.0635ZM84.6984 35.9365C84.6984 36.9524 84.5714 37.9683 84.3175 38.7302C84.0635 39.619 83.6825 40.381 83.1746 40.8889C82.6667 41.5238 82.0317 42.0317 81.2698 42.2857C80.5079 42.6667 79.746 42.7937 78.7302 42.7937C78.2222 42.7937 77.7143 42.7937 77.2064 42.6667C76.6984 42.5397 76.3175 42.4127 75.8095 42.2857V47.3651H72V29.5873C72.381 29.4603 72.7619 29.3333 73.1429 29.3333C73.5238 29.2064 74.0317 29.2064 74.5397 29.0794C75.0476 28.9524 75.5556 28.9524 76.0635 28.9524C76.5714 28.9524 77.0794 28.8254 77.5873 28.8254C78.7302 28.8254 79.746 28.9524 80.5079 29.3333C81.3968 29.7143 82.1587 30.0952 82.6667 30.7302C83.3016 31.3651 83.6825 32.127 84.0635 32.8889C84.5714 33.9048 84.6984 34.9206 84.6984 35.9365ZM92.8254 40C93.2064 40 93.5873 40 93.8413 40C94.2222 40 94.4762 40 94.6032 39.873V36.9524C94.4762 36.9524 94.2222 36.8254 93.9683 36.8254C93.7143 36.8254 93.3333 36.8254 93.0794 36.8254C92.6984 36.8254 92.3175 36.8254 92.0635 36.9524C91.8095 36.9524 91.4286 37.0794 91.3016 37.2063C91.0476 37.3333 90.9206 37.4603 90.7937 37.7143C90.6667 37.9683 90.5397 38.2222 90.5397 38.4762C90.5397 39.1111 90.7937 39.4921 91.1746 39.746C91.5556 39.873 92.1905 40 92.8254 40ZM92.5714 28.8254C93.7143 28.8254 94.6032 28.9524 95.3651 29.2064C96.127 29.4603 96.7619 29.8413 97.1429 30.3492C97.6508 30.8571 97.9048 31.3651 98.1587 32.127C98.2857 32.7619 98.4127 33.5238 98.4127 34.4127V42.4127C97.9048 42.5397 97.1429 42.6667 96.127 42.7937C95.1111 42.9206 93.9683 43.0476 92.5714 43.0476C91.6825 43.0476 90.9206 42.9206 90.1587 42.7937C89.3968 42.6667 88.8889 42.4127 88.381 42.0317C87.873 41.6508 87.4921 41.2698 87.2381 40.6349C86.9841 40.127 86.8571 39.3651 86.8571 38.6032C86.8571 37.8413 86.9841 37.2063 87.3651 36.5714C87.746 36.0635 88.127 35.5556 88.6349 35.3016C89.1429 34.9206 89.7778 34.7937 90.4127 34.6667C91.0476 34.5397 91.8095 34.4127 92.5714 34.4127C93.0794 34.4127 93.4603 34.4127 93.8413 34.5397C94.2222 34.5397 94.6032 34.6667 94.8571 34.6667V34.2857C94.8571 33.6508 94.6032 33.1429 94.2222 32.7619C93.8413 32.381 93.2064 32.127 92.1905 32.127C91.5556 32.127 90.9206 32.127 90.2857 32.254C89.6508 32.381 89.1429 32.5079 88.6349 32.6349L88.127 29.5873C88.381 29.4603 88.6349 29.4603 88.8889 29.3333C89.2698 29.2064 89.6508 29.2064 90.0318 29.0794C90.4127 28.9524 90.7937 28.9524 91.3016 28.9524C91.6825 28.8254 92.0635 28.8254 92.5714 28.8254ZM105.778 42.6667H101.968V29.2064H105.778V42.6667ZM106.032 25.2698C106.032 26.0317 105.778 26.5397 105.397 26.9206C104.889 27.3016 104.381 27.5556 103.746 27.5556C103.111 27.5556 102.603 27.3016 102.095 26.9206C101.587 26.5397 101.46 25.9048 101.46 25.2698C101.46 24.5079 101.714 24 102.095 23.619C102.603 23.2381 103.111 22.9841 103.746 22.9841C104.381 22.9841 104.889 23.2381 105.397 23.619C105.905 24 106.032 24.6349 106.032 25.2698ZM115.429 25.7778L119.238 25.1429V29.2064H123.81V32.381H119.238V37.0794C119.238 37.8413 119.365 38.4762 119.619 38.9841C119.873 39.4921 120.508 39.746 121.397 39.746C121.778 39.746 122.286 39.746 122.667 39.619C123.048 39.4921 123.556 39.3651 123.937 39.2381L124.444 42.1587C123.937 42.2857 123.429 42.5397 122.921 42.6667C122.413 42.7937 121.651 42.9206 120.889 42.9206C119.873 42.9206 118.984 42.7937 118.349 42.5397C117.714 42.2857 117.079 41.9048 116.698 41.3968C116.317 40.8889 115.937 40.254 115.81 39.4921C115.683 38.7302 115.556 37.9683 115.556 37.0794V25.7778H115.429ZM125.714 36.0635C125.714 34.9206 125.841 33.7778 126.222 32.8889C126.603 32 127.111 31.2381 127.746 30.6032C128.381 29.9683 129.016 29.5873 129.778 29.2064C130.54 28.9524 131.429 28.6984 132.19 28.6984C134.095 28.6984 135.619 29.3333 136.762 30.4762C137.905 31.619 138.413 33.3968 138.413 35.6825C138.413 35.9365 138.413 36.1905 138.413 36.4444C138.413 36.6984 138.413 36.9524 138.413 37.0794H129.778C129.905 37.8413 130.286 38.4762 130.921 38.9841C131.556 39.4921 132.444 39.619 133.587 39.619C134.349 39.619 134.984 39.619 135.619 39.4921C136.254 39.3651 136.889 39.2381 137.27 38.9841L137.778 42.0317C137.524 42.1587 137.27 42.2857 136.889 42.2857C136.508 42.4127 136.127 42.4127 135.746 42.5397C135.365 42.6667 134.857 42.6667 134.349 42.7937C133.841 42.7937 133.333 42.9206 132.952 42.9206C131.683 42.9206 130.667 42.7937 129.778 42.4127C128.889 42.0317 128.127 41.5238 127.492 40.8889C126.857 40.254 126.476 39.4921 126.222 38.6032C125.968 37.9683 125.714 37.0794 125.714 36.0635ZM134.73 34.5397C134.73 34.1587 134.603 33.9048 134.603 33.5238C134.476 33.2698 134.349 32.8889 134.222 32.7619C134.095 32.5079 133.841 32.381 133.46 32.127C133.206 32 132.825 31.873 132.317 31.873C131.937 31.873 131.556 32 131.175 32.127C130.921 32.254 130.667 32.5079 130.413 32.6349C130.159 32.8889 130.032 33.1429 129.905 33.5238C129.778 33.7778 129.778 34.1587 129.651 34.5397H134.73ZM140.825 35.9365C140.825 34.9206 140.952 34.0317 141.333 33.1429C141.714 32.254 142.095 31.4921 142.73 30.8571C143.365 30.2222 144 29.7143 144.889 29.3333C145.778 28.9524 146.667 28.8254 147.81 28.8254C148.571 28.8254 149.206 28.9524 149.841 29.0794C150.476 29.2064 150.984 29.3333 151.619 29.5873L150.857 32.6349C150.476 32.5079 150.095 32.381 149.714 32.254C149.333 32.127 148.825 32.127 148.317 32.127C147.175 32.127 146.286 32.5079 145.778 33.1429C145.27 33.9048 145.016 34.7937 145.016 35.9365C145.016 37.2063 145.27 38.0952 145.778 38.7302C146.286 39.3651 147.175 39.746 148.571 39.746C149.079 39.746 149.587 39.746 150.095 39.619C150.603 39.4921 151.111 39.3651 151.619 39.2381L152.127 42.4127C151.619 42.5397 151.111 42.7937 150.476 42.9206C149.841 43.0476 149.079 43.1746 148.317 43.1746C147.048 43.1746 146.032 43.0476 145.143 42.6667C144.254 42.2857 143.492 41.7778 142.984 41.1429C142.476 40.5079 141.968 39.746 141.714 38.8571C140.952 37.8413 140.825 36.9524 140.825 35.9365ZM154.286 42.6667V23.3651L158.095 22.7302V29.2064C158.349 29.0794 158.73 29.0794 159.111 28.9524C159.492 28.8254 159.873 28.8254 160.254 28.8254C161.397 28.8254 162.286 28.9524 162.921 29.3333C163.683 29.5873 164.19 30.0952 164.698 30.6032C165.206 31.1111 165.46 31.746 165.587 32.5079C165.714 33.2698 165.841 34.1587 165.841 35.0476V42.6667H162.032V35.5556C162.032 34.2857 161.905 33.3968 161.524 32.8889C161.27 32.381 160.635 32.127 159.746 32.127C159.365 32.127 159.111 32.127 158.73 32.254C158.476 32.254 158.222 32.381 157.968 32.381V42.6667H154.286ZM51.9365 7.87302C52.6984 8.88889 53.2064 10.0317 53.2064 11.4286C53.2064 14.6032 50.6667 17.1429 47.4921 17.1429C46.2222 17.1429 45.0794 16.7619 44.1905 16C44.9524 16.5079 45.9683 16.8889 47.1111 16.8889C50.0317 16.8889 52.3175 14.6032 52.3175 11.6825C52.3175 8.7619 49.9048 6.22222 46.9841 6.22222C44.4444 6.22222 42.4127 8 41.9048 10.2857C41.9048 10.2857 41.9048 10.1587 41.9048 10.0317C41.6508 10.7937 41.5238 11.5556 41.5238 12.3175C41.5238 16.7619 45.0794 20.3175 49.5238 20.3175C53.9683 20.3175 57.5238 16.7619 57.5238 12.3175C57.5238 11.3016 57.3968 10.2857 57.0159 9.39683C55.3651 3.93651 50.1587 0 44.0635 0C36.4444 0 30.2222 6.22222 30.2222 13.8413C30.2222 18.1587 32.254 22.0952 35.4286 24.6349C36.9524 26.0317 37.8413 27.9365 37.8413 30.2222C37.8413 33.9048 35.1746 37.0794 31.619 37.7143C32 37.8413 32.5079 37.8413 33.0159 37.8413C33.1429 37.8413 33.2698 37.8413 33.3968 37.8413C33.5238 37.8413 33.6508 37.8413 33.7778 37.8413C33.9048 37.8413 34.1587 37.8413 34.2857 37.8413C34.4127 37.8413 34.6667 37.8413 34.7937 37.8413C38.6032 37.8413 41.6508 34.7937 41.6508 30.9841C41.6508 29.4603 41.1429 28.1905 40.381 27.0476C39.1111 25.1429 38.4762 22.8571 38.4762 20.3175C38.4762 17.9048 39.2381 15.619 40.381 13.5873C40.254 13.2063 40.254 12.8254 40.254 12.3175C40.254 10.7937 40.7619 9.39683 41.6508 8.25397C42.0317 7.61905 42.4127 7.11111 43.0476 6.73016C44.0635 5.71429 45.5873 5.20635 47.1111 5.20635C49.0159 5.20635 50.7937 6.09524 51.9365 7.61905C51.8095 7.74603 51.8095 7.74603 51.9365 7.87302ZM18.4127 16.5079C16.6349 13.9683 14.0952 11.9365 11.0476 10.7937C11.6825 11.9365 12.1905 13.0794 12.5714 14.3492C12.3175 14.3492 11.9365 14.3492 11.6825 14.3492C5.20635 14.3492 0 19.5556 0 26.0317C0 29.0794 1.14286 31.873 3.04762 33.9048C4.95238 35.1746 7.2381 35.9365 9.65079 35.9365C16.127 35.9365 21.3333 30.7302 21.3333 24.254C21.4603 21.3333 20.3175 18.5397 18.4127 16.5079ZM9.01587 28.5714C8.50794 28.5714 8 28.4444 7.49206 28.3175C7.36508 27.9365 7.36508 27.5556 7.36508 27.0476C7.36508 24.127 9.65079 21.8413 12.5714 21.8413C13.0794 21.8413 13.5873 21.9683 14.0952 22.0952C14.2222 22.4762 14.2222 22.8571 14.2222 23.3651C14.0952 26.1587 11.8095 28.5714 9.01587 28.5714ZM21.3333 48C21.3333 46.2222 19.8095 44.6984 18.0317 44.6984C16.254 44.6984 14.7302 46.2222 14.7302 48H21.3333ZM15.3651 44.8254C14.9841 44.6984 14.6032 44.5714 14.2222 44.5714C12.4444 44.5714 10.9206 46.0952 10.9206 47.873H13.2063C13.2063 46.6032 14.0952 45.3333 15.3651 44.8254ZM12.9524 38.2222C12.0635 38.2222 11.3016 38.9841 11.3016 39.873C11.3016 40.7619 12.0635 41.5238 12.9524 41.5238C13.8413 41.5238 14.6032 40.7619 14.6032 39.873C14.6032 38.9841 13.8413 38.2222 12.9524 38.2222ZM10.4127 39.873C10.4127 39.1111 10.9206 38.4762 11.6825 38.2222C11.5556 38.2222 11.4286 38.2222 11.3016 38.2222C10.4127 38.2222 9.65079 38.9841 9.65079 39.873C9.65079 40.7619 10.4127 41.5238 11.3016 41.5238C11.4286 41.5238 11.5556 41.5238 11.6825 41.5238C10.9206 41.2698 10.4127 40.6349 10.4127 39.873ZM13.7143 36.9524C13.7143 37.2064 13.7143 37.5873 13.7143 37.8413C14.6032 37.9683 15.3651 38.7302 15.3651 39.746C15.3651 40.254 15.1111 40.7619 14.7302 41.1429C15.3651 42.2857 16.254 43.1746 17.2698 43.9365C17.6508 43.8095 17.9048 43.8095 18.2857 43.8095C19.4286 43.8095 20.5714 44.4444 21.0794 45.4603C21.3333 45.4603 21.5873 45.4603 21.9683 45.4603C26.5397 45.4603 30.3492 41.6508 30.3492 37.0794C30.3492 32.5079 26.5397 28.6984 21.9683 28.6984C21.8413 28.6984 21.8413 28.6984 21.7143 28.6984C20.8254 32.7619 17.6508 35.9365 13.5873 36.8254C13.7143 36.6984 13.7143 36.8254 13.7143 36.9524Z" fill="url(#paint0_linear_2_572)"/>
<defs>
<linearGradient id="paint0_linear_2_572" x1="165.841" y1="-5.66158e-05" x2="-3.24957" y2="29.1505" gradientUnits="userSpaceOnUse">
<stop stop-color="#FAB710"/>
<stop offset="1" stop-color="#ED692F"/>
</linearGradient>
</defs>
</svg>
